<svg xmlns="http://www.w3.org/2000/svg" xmlns:xlink="http://www.w3.org/1999/xlink" width="900" zoomAndPan="magnify" viewBox="0 0 675 675.000002" height="900" preserveAspectRatio="xMidYMid meet" version="1.0"><defs><g/><clipPath id="03883f1e31"><path d="M 0.5 0 L 674.5 0 L 674.5 674 L 0.5 674 Z M 0.5 0 " clip-rule="nonzero"/></clipPath><clipPath id="993b1210ae"><path d="M 475 344 L 550 344 L 550 560 L 475 560 Z M 475 344 " clip-rule="nonzero"/></clipPath><clipPath id="37bd110a13"><path d="M 367.054688 405.78125 L 565.863281 328.128906 L 647.875 538.097656 L 449.066406 615.75 Z M 367.054688 405.78125 " clip-rule="nonzero"/></clipPath><clipPath id="1cf4bb24c6"><path d="M 367.054688 405.78125 L 565.863281 328.128906 L 647.875 538.097656 L 449.066406 615.75 Z M 367.054688 405.78125 " clip-rule="nonzero"/></clipPath><clipPath id="ebb63d813c"><path d="M 367.054688 405.78125 L 565.863281 328.128906 L 647.875 538.097656 L 449.066406 615.75 Z M 367.054688 405.78125 " clip-rule="nonzero"/></clipPath><clipPath id="9d89bc9d0f"><path d="M 489 359 L 547 359 L 547 547 L 489 547 Z M 489 359 " clip-rule="nonzero"/></clipPath><clipPath id="e23afbfcf8"><path d="M 367.054688 405.78125 L 565.863281 328.128906 L 647.875 538.097656 L 449.066406 615.75 Z M 367.054688 405.78125 " clip-rule="nonzero"/></clipPath><clipPath id="c59a30ac6c"><path d="M 367.054688 405.78125 L 565.863281 328.128906 L 647.875 538.097656 L 449.066406 615.75 Z M 367.054688 405.78125 " clip-rule="nonzero"/></clipPath><clipPath id="cbe3e87a87"><path d="M 367.054688 405.78125 L 565.863281 328.128906 L 647.875 538.097656 L 449.066406 615.75 Z M 367.054688 405.78125 " clip-rule="nonzero"/></clipPath><clipPath id="9ce5ab5944"><path d="M 425 408 L 526 408 L 526 519 L 425 519 Z M 425 408 " clip-rule="nonzero"/></clipPath><clipPath id="c4dc184819"><path d="M 367.054688 405.78125 L 565.863281 328.128906 L 647.875 538.097656 L 449.066406 615.75 Z M 367.054688 405.78125 " clip-rule="nonzero"/></clipPath><clipPath id="e26b4320ce"><path d="M 367.054688 405.78125 L 565.863281 328.128906 L 647.875 538.097656 L 449.066406 615.75 Z M 367.054688 405.78125 " clip-rule="nonzero"/></clipPath><clipPath id="2751e0915b"><path d="M 367.054688 405.78125 L 565.863281 328.128906 L 647.875 538.097656 L 449.066406 615.75 Z M 367.054688 405.78125 " clip-rule="nonzero"/></clipPath><clipPath id="b58adff154"><path d="M 426 408 L 513 408 L 513 509 L 426 509 Z M 426 408 " clip-rule="nonzero"/></clipPath><clipPath id="a564b4e2d7"><path d="M 367.054688 405.78125 L 565.863281 328.128906 L 647.875 538.097656 L 449.066406 615.75 Z M 367.054688 405.78125 " clip-rule="nonzero"/></clipPath><clipPath id="bc2defdba4"><path d="M 367.054688 405.78125 L 565.863281 328.128906 L 647.875 538.097656 L 449.066406 615.75 Z M 367.054688 405.78125 " clip-rule="nonzero"/></clipPath><clipPath id="4ccffff8db"><path d="M 367.054688 405.78125 L 565.863281 328.128906 L 647.875 538.097656 L 449.066406 615.75 Z M 367.054688 405.78125 " clip-rule="nonzero"/></clipPath><clipPath id="192d03a12e"><path d="M 487 380 L 612 380 L 612 531 L 487 531 Z M 487 380 " clip-rule="nonzero"/></clipPath><clipPath id="e14cd2456a"><path d="M 367.054688 405.78125 L 565.863281 328.128906 L 647.875 538.097656 L 449.066406 615.75 Z M 367.054688 405.78125 " clip-rule="nonzero"/></clipPath><clipPath id="c30449bf43"><path d="M 367.054688 405.78125 L 565.863281 328.128906 L 647.875 538.097656 L 449.066406 615.75 Z M 367.054688 405.78125 " clip-rule="nonzero"/></clipPath><clipPath id="279cca08f7"><path d="M 367.054688 405.78125 L 565.863281 328.128906 L 647.875 538.097656 L 449.066406 615.75 Z M 367.054688 405.78125 " clip-rule="nonzero"/></clipPath><clipPath id="149851f9d3"><path d="M 577 467 L 601 467 L 601 506 L 577 506 Z M 577 467 " clip-rule="nonzero"/></clipPath><clipPath id="8ee12330c9"><path d="M 367.054688 405.78125 L 565.863281 328.128906 L 647.875 538.097656 L 449.066406 615.75 Z M 367.054688 405.78125 " clip-rule="nonzero"/></clipPath><clipPath id="8bd7ac10d7"><path d="M 367.054688 405.78125 L 565.863281 328.128906 L 647.875 538.097656 L 449.066406 615.75 Z M 367.054688 405.78125 " clip-rule="nonzero"/></clipPath><clipPath id="4891850c11"><path d="M 367.054688 405.78125 L 565.863281 328.128906 L 647.875 538.097656 L 449.066406 615.75 Z M 367.054688 405.78125 " clip-rule="nonzero"/></clipPath><clipPath id="bc39cbb279"><path d="M 503 427 L 593 427 L 593 519 L 503 519 Z M 503 427 " clip-rule="nonzero"/></clipPath><clipPath id="8ab7445033"><path d="M 367.054688 405.78125 L 565.863281 328.128906 L 647.875 538.097656 L 449.066406 615.75 Z M 367.054688 405.78125 " clip-rule="nonzero"/></clipPath><clipPath id="d9a66113a6"><path d="M 367.054688 405.78125 L 565.863281 328.128906 L 647.875 538.097656 L 449.066406 615.75 Z M 367.054688 405.78125 " clip-rule="nonzero"/></clipPath><clipPath id="db2ca8b5cc"><path d="M 367.054688 405.78125 L 565.863281 328.128906 L 647.875 538.097656 L 449.066406 615.75 Z M 367.054688 405.78125 " clip-rule="nonzero"/></clipPath><clipPath id="db7a044d4f"><path d="M 509 439 L 609 439 L 609 528 L 509 528 Z M 509 439 " clip-rule="nonzero"/></clipPath><clipPath id="44e5b46075"><path d="M 367.054688 405.78125 L 565.863281 328.128906 L 647.875 538.097656 L 449.066406 615.75 Z M 367.054688 405.78125 " clip-rule="nonzero"/></clipPath><clipPath id="3b8dba7a8f"><path d="M 367.054688 405.78125 L 565.863281 328.128906 L 647.875 538.097656 L 449.066406 615.75 Z M 367.054688 405.78125 " clip-rule="nonzero"/></clipPath><clipPath id="4fae7578c0"><path d="M 367.054688 405.78125 L 565.863281 328.128906 L 647.875 538.097656 L 449.066406 615.75 Z M 367.054688 405.78125 " clip-rule="nonzero"/></clipPath><clipPath id="bc789a0715"><path d="M 487 380 L 595 380 L 595 440 L 487 440 Z M 487 380 " clip-rule="nonzero"/></clipPath><clipPath id="a62ee9ac47"><path d="M 367.054688 405.78125 L 565.863281 328.128906 L 647.875 538.097656 L 449.066406 615.75 Z M 367.054688 405.78125 " clip-rule="nonzero"/></clipPath><clipPath id="c42787df9f"><path d="M 367.054688 405.78125 L 565.863281 328.128906 L 647.875 538.097656 L 449.066406 615.75 Z M 367.054688 405.78125 " clip-rule="nonzero"/></clipPath><clipPath id="454973fe93"><path d="M 367.054688 405.78125 L 565.863281 328.128906 L 647.875 538.097656 L 449.066406 615.75 Z M 367.054688 405.78125 " clip-rule="nonzero"/></clipPath><clipPath id="2dde09de12"><path d="M 497 392 L 584 392 L 584 429 L 497 429 Z M 497 392 " clip-rule="nonzero"/></clipPath><clipPath id="0fed277584"><path d="M 367.054688 405.78125 L 565.863281 328.128906 L 647.875 538.097656 L 449.066406 615.75 Z M 367.054688 405.78125 " clip-rule="nonzero"/></clipPath><clipPath id="9b68c5b85d"><path d="M 367.054688 405.78125 L 565.863281 328.128906 L 647.875 538.097656 L 449.066406 615.75 Z M 367.054688 405.78125 " clip-rule="nonzero"/></clipPath><clipPath id="7cf1e8ef8e"><path d="M 367.054688 405.78125 L 565.863281 328.128906 L 647.875 538.097656 L 449.066406 615.75 Z M 367.054688 405.78125 " clip-rule="nonzero"/></clipPath><clipPath id="b8c416668a"><path d="M 483 570 L 504 570 L 504 595 L 483 595 Z M 483 570 " clip-rule="nonzero"/></clipPath><clipPath id="2fb571b7cf"><path d="M 367.054688 405.78125 L 565.863281 328.128906 L 647.875 538.097656 L 449.066406 615.75 Z M 367.054688 405.78125 " clip-rule="nonzero"/></clipPath><clipPath id="4736150c8a"><path d="M 367.054688 405.78125 L 565.863281 328.128906 L 647.875 538.097656 L 449.066406 615.75 Z M 367.054688 405.78125 " clip-rule="nonzero"/></clipPath><clipPath id="02f0e95d87"><path d="M 367.054688 405.78125 L 565.863281 328.128906 L 647.875 538.097656 L 449.066406 615.75 Z M 367.054688 405.78125 " clip-rule="nonzero"/></clipPath><clipPath id="aaffb6e4c0"><path d="M 451 513 L 535 513 L 535 556 L 451 556 Z M 451 513 " clip-rule="nonzero"/></clipPath><clipPath id="15c37d0029"><path d="M 367.054688 405.78125 L 565.863281 328.128906 L 647.875 538.097656 L 449.066406 615.75 Z M 367.054688 405.78125 " clip-rule="nonzero"/></clipPath><clipPath id="de4a2fba27"><path d="M 367.054688 405.78125 L 565.863281 328.128906 L 647.875 538.097656 L 449.066406 615.75 Z M 367.054688 405.78125 " clip-rule="nonzero"/></clipPath><clipPath id="09d4f66b7d"><path d="M 367.054688 405.78125 L 565.863281 328.128906 L 647.875 538.097656 L 449.066406 615.75 Z M 367.054688 405.78125 " clip-rule="nonzero"/></clipPath><clipPath id="2d61d2bf82"><path d="M 431 509 L 524 509 L 524 588 L 431 588 Z M 431 509 " clip-rule="nonzero"/></clipPath><clipPath id="d4e2d83127"><path d="M 367.054688 405.78125 L 565.863281 328.128906 L 647.875 538.097656 L 449.066406 615.75 Z M 367.054688 405.78125 " clip-rule="nonzero"/></clipPath><clipPath id="4f03bc578e"><path d="M 367.054688 405.78125 L 565.863281 328.128906 L 647.875 538.097656 L 449.066406 615.75 Z M 367.054688 405.78125 " clip-rule="nonzero"/></clipPath><clipPath id="1bc1f28c79"><path d="M 367.054688 405.78125 L 565.863281 328.128906 L 647.875 538.097656 L 449.066406 615.75 Z M 367.054688 405.78125 " clip-rule="nonzero"/></clipPath><clipPath id="e242bd9a1b"><path d="M 402 489 L 446 489 L 446 523 L 402 523 Z M 402 489 " clip-rule="nonzero"/></clipPath><clipPath id="153165c027"><path d="M 367.054688 405.78125 L 565.863281 328.128906 L 647.875 538.097656 L 449.066406 615.75 Z M 367.054688 405.78125 " clip-rule="nonzero"/></clipPath><clipPath id="0408e7008e"><path d="M 367.054688 405.78125 L 565.863281 328.128906 L 647.875 538.097656 L 449.066406 615.75 Z M 367.054688 405.78125 " clip-rule="nonzero"/></clipPath><clipPath id="e27c62af9e"><path d="M 367.054688 405.78125 L 565.863281 328.128906 L 647.875 538.097656 L 449.066406 615.75 Z M 367.054688 405.78125 " clip-rule="nonzero"/></clipPath><clipPath id="b816a6b114"><path d="M 507 536 L 520 536 L 520 549 L 507 549 Z M 507 536 " clip-rule="nonzero"/></clipPath><clipPath id="b3796ab8ec"><path d="M 367.054688 405.78125 L 565.863281 328.128906 L 647.875 538.097656 L 449.066406 615.75 Z M 367.054688 405.78125 " clip-rule="nonzero"/></clipPath><clipPath id="da4193189d"><path d="M 367.054688 405.78125 L 565.863281 328.128906 L 647.875 538.097656 L 449.066406 615.75 Z M 367.054688 405.78125 " clip-rule="nonzero"/></clipPath><clipPath id="84f23927cb"><path d="M 367.054688 405.78125 L 565.863281 328.128906 L 647.875 538.097656 L 449.066406 615.75 Z M 367.054688 405.78125 " clip-rule="nonzero"/></clipPath><clipPath id="b421b5e828"><path d="M 405 491 L 434 491 L 434 514 L 405 514 Z M 405 491 " clip-rule="nonzero"/></clipPath><clipPath id="302b6fef89"><path d="M 367.054688 405.78125 L 565.863281 328.128906 L 647.875 538.097656 L 449.066406 615.75 Z M 367.054688 405.78125 " clip-rule="nonzero"/></clipPath><clipPath id="681e2a2207"><path d="M 367.054688 405.78125 L 565.863281 328.128906 L 647.875 538.097656 L 449.066406 615.75 Z M 367.054688 405.78125 " clip-rule="nonzero"/></clipPath><clipPath id="a1afb4d42d"><path d="M 367.054688 405.78125 L 565.863281 328.128906 L 647.875 538.097656 L 449.066406 615.75 Z M 367.054688 405.78125 " clip-rule="nonzero"/></clipPath><clipPath id="75ec5e2cef"><path d="M 426 505 L 434 505 L 434 516 L 426 516 Z M 426 505 " clip-rule="nonzero"/></clipPath><clipPath id="636fca4440"><path d="M 367.054688 405.78125 L 565.863281 328.128906 L 647.875 538.097656 L 449.066406 615.75 Z M 367.054688 405.78125 " clip-rule="nonzero"/></clipPath><clipPath id="7881437561"><path d="M 367.054688 405.78125 L 565.863281 328.128906 L 647.875 538.097656 L 449.066406 615.75 Z M 367.054688 405.78125 " clip-rule="nonzero"/></clipPath><clipPath id="e01e38ff64"><path d="M 367.054688 405.78125 L 565.863281 328.128906 L 647.875 538.097656 L 449.066406 615.75 Z M 367.054688 405.78125 " clip-rule="nonzero"/></clipPath><clipPath id="39da4f5fde"><path d="M 454 527 L 476 527 L 476 544 L 454 544 Z M 454 527 " clip-rule="nonzero"/></clipPath><clipPath id="5e5d92f397"><path d="M 367.054688 405.78125 L 565.863281 328.128906 L 647.875 538.097656 L 449.066406 615.75 Z M 367.054688 405.78125 " clip-rule="nonzero"/></clipPath><clipPath id="02cde757bc"><path d="M 367.054688 405.78125 L 565.863281 328.128906 L 647.875 538.097656 L 449.066406 615.75 Z M 367.054688 405.78125 " clip-rule="nonzero"/></clipPath><clipPath id="49062771ce"><path d="M 367.054688 405.78125 L 565.863281 328.128906 L 647.875 538.097656 L 449.066406 615.75 Z M 367.054688 405.78125 " clip-rule="nonzero"/></clipPath><clipPath id="7508244ee4"><path d="M 507 540 L 519 540 L 519 549 L 507 549 Z M 507 540 " clip-rule="nonzero"/></clipPath><clipPath id="f91434226d"><path d="M 367.054688 405.78125 L 565.863281 328.128906 L 647.875 538.097656 L 449.066406 615.75 Z M 367.054688 405.78125 " clip-rule="nonzero"/></clipPath><clipPath id="72eb1a93a6"><path d="M 367.054688 405.78125 L 565.863281 328.128906 L 647.875 538.097656 L 449.066406 615.75 Z M 367.054688 405.78125 " clip-rule="nonzero"/></clipPath><clipPath id="546113660f"><path d="M 367.054688 405.78125 L 565.863281 328.128906 L 647.875 538.097656 L 449.066406 615.75 Z M 367.054688 405.78125 " clip-rule="nonzero"/></clipPath><clipPath id="160a711f2b"><path d="M 63 130 L 208 130 L 208 297 L 63 297 Z M 63 130 " clip-rule="nonzero"/></clipPath><clipPath id="2b38e53eaf"><path d="M 42.160156 171.484375 L 154.257812 109.574219 L 236.082031 257.730469 L 123.980469 319.640625 Z M 42.160156 171.484375 " clip-rule="nonzero"/></clipPath><clipPath id="65e8ef1d59"><path d="M 42.160156 171.484375 L 154.257812 109.574219 L 236.082031 257.730469 L 123.980469 319.640625 Z M 42.160156 171.484375 " clip-rule="nonzero"/></clipPath><clipPath id="e208cc2c65"><path d="M 42.160156 171.484375 L 154.257812 109.574219 L 236.082031 257.730469 L 123.980469 319.640625 Z M 42.160156 171.484375 " clip-rule="nonzero"/></clipPath></defs><g clip-path="url(#03883f1e31)"><path fill="#ffffff" d="M 0.5 0 L 674.5 0 L 674.5 674 L 0.5 674 Z M 0.5 0 " fill-opacity="1" fill-rule="nonzero"/><path fill="#ded6d6" d="M 0.5 0 L 674.5 0 L 674.5 674 L 0.5 674 Z M 0.5 0 " fill-opacity="1" fill-rule="nonzero"/></g><g clip-path="url(#993b1210ae)"><g clip-path="url(#37bd110a13)"><g clip-path="url(#1cf4bb24c6)"><g clip-path="url(#ebb63d813c)"><path fill="#a7ddea" d="M 524.152344 344.421875 L 549.257812 350.273438 L 500.539062 559.175781 L 475.652344 552.328125 Z M 524.152344 344.421875 " fill-opacity="1" fill-rule="nonzero"/></g></g></g></g><g clip-path="url(#9d89bc9d0f)"><g clip-path="url(#e23afbfcf8)"><g clip-path="url(#c59a30ac6c)"><g clip-path="url(#cbe3e87a87)"><path fill="#281c22" d="M 503.535156 546.289062 L 503.410156 546.742188 C 498.769531 545.722656 494.160156 544.644531 489.53125 543.523438 C 489.242188 543.433594 489.324219 542.996094 489.65625 543.070312 C 494.285156 544.191406 498.894531 545.269531 503.535156 546.289062 Z M 502.261719 526.480469 C 501.972656 526.390625 501.863281 526.886719 502.132812 526.933594 C 503.992188 527.417969 505.875 527.847656 507.695312 528.246094 L 507.820312 527.792969 C 506 527.394531 504.117188 526.964844 502.261719 526.480469 Z M 497.128906 506.105469 C 496.800781 506.035156 496.734375 506.515625 497.003906 506.558594 C 502.042969 507.570312 507.066406 508.539062 512.109375 509.550781 L 512.234375 509.097656 C 507.195312 508.085938 502.152344 507.074219 497.128906 506.105469 Z M 522.527344 396.882812 C 522.242188 396.792969 522.132812 397.289062 522.402344 397.335938 C 527.378906 398.574219 532.425781 399.734375 537.441406 400.804688 L 537.566406 400.351562 C 532.550781 399.28125 527.550781 398.101562 522.527344 396.882812 Z M 535.480469 380.40625 C 535.191406 380.316406 535.085938 380.8125 535.355469 380.859375 C 537.480469 381.394531 539.589844 381.882812 541.746094 382.355469 L 541.871094 381.902344 C 539.761719 381.414062 537.589844 380.894531 535.480469 380.40625 Z M 529.941406 359.890625 C 529.609375 359.816406 529.546875 360.296875 529.816406 360.34375 C 535.230469 361.410156 540.664062 362.523438 546.121094 363.570312 L 546.246094 363.117188 C 540.832031 362.050781 535.402344 360.941406 529.941406 359.890625 Z M 539.144531 371.296875 C 538.855469 371.207031 538.746094 371.707031 539.015625 371.75 C 540.691406 372.160156 542.332031 372.476562 543.96875 372.796875 L 544.09375 372.34375 C 542.414062 372.042969 540.757812 371.679688 539.144531 371.296875 Z M 535.058594 390.574219 C 536.566406 390.945312 538.09375 391.359375 539.601562 391.730469 L 539.726562 391.277344 C 538.21875 390.90625 536.691406 390.492188 535.183594 390.121094 C 534.878906 389.984375 534.769531 390.484375 535.058594 390.574219 Z M 506.003906 517.1875 C 505.671875 517.117188 505.605469 517.59375 505.875 517.640625 C 507.246094 517.914062 508.589844 518.25 509.957031 518.523438 L 510.082031 518.070312 C 508.757812 517.777344 507.390625 517.503906 506.003906 517.1875 Z M 501.445312 536.546875 C 501.132812 536.515625 501.050781 536.953125 501.320312 537 C 502.714844 537.210938 504.128906 537.46875 505.523438 537.679688 L 505.652344 537.226562 C 504.253906 537.015625 502.84375 536.757812 501.445312 536.546875 Z M 501.445312 536.546875 " fill-opacity="1" fill-rule="nonzero"/></g></g></g></g><g clip-path="url(#9ce5ab5944)"><g clip-path="url(#c4dc184819)"><g clip-path="url(#e26b4320ce)"><g clip-path="url(#2751e0915b)"><path fill="#f2da66" d="M 512.546875 412.953125 C 512.425781 412.898438 512.242188 412.820312 512.121094 412.765625 C 506.949219 410.644531 501.5625 409.261719 496.15625 408.597656 C 495.988281 408.558594 495.839844 408.566406 495.675781 408.53125 C 490.597656 407.9375 485.460938 407.976562 480.414062 408.632812 C 480.265625 408.640625 480.074219 408.664062 479.945312 408.714844 C 474.425781 409.457031 469.007812 410.964844 463.820312 413.195312 C 463.6875 413.246094 463.511719 413.3125 463.382812 413.367188 C 458.542969 415.457031 453.964844 418.207031 449.726562 421.578125 C 449.613281 421.671875 449.496094 421.769531 449.339844 421.878906 C 445.71875 424.761719 442.347656 428.148438 439.335938 431.949219 C 439.242188 432.089844 439.125 432.183594 439.027344 432.324219 C 436.082031 436.152344 433.621094 440.191406 431.675781 444.386719 C 431.578125 444.527344 431.542969 444.691406 431.488281 444.816406 C 429.265625 449.722656 427.722656 454.820312 426.808594 459.976562 C 426.773438 460.144531 426.734375 460.308594 426.742188 460.457031 C 425.832031 466.015625 425.65625 471.640625 426.25 477.167969 C 426.257812 477.316406 426.285156 477.507812 426.289062 477.65625 C 426.863281 482.738281 428.054688 487.726562 429.832031 492.539062 C 429.882812 492.667969 429.953125 492.84375 430.003906 492.976562 C 431.960938 498.121094 434.613281 503.097656 437.957031 507.652344 C 438.050781 507.765625 438.164062 507.921875 438.257812 508.039062 C 441.007812 511.710938 444.175781 515.171875 447.816406 518.296875 C 449.03125 519.335938 450.886719 519.167969 451.910156 517.910156 L 525.019531 423.6875 C 526.054688 422.324219 525.746094 420.375 524.355469 419.402344 C 520.578125 416.835938 516.59375 414.65625 512.546875 412.953125 Z M 453.300781 489.9375 C 439.96875 479.585938 441.195312 459.710938 453.636719 443.742188 C 466.0625 427.726562 484.976562 421.601562 498.308594 431.949219 Z M 453.300781 489.9375 " fill-opacity="1" fill-rule="nonzero"/></g></g></g></g><g clip-path="url(#b58adff154)"><g clip-path="url(#a564b4e2d7)"><g clip-path="url(#bc2defdba4)"><g clip-path="url(#4ccffff8db)"><path fill="#281c22" d="M 450.195312 440.488281 C 450.429688 440.699219 450.121094 441.074219 449.886719 440.863281 C 446.285156 437.972656 442.65625 435.148438 438.984375 432.339844 C 439.082031 432.199219 439.179688 432.0625 439.292969 431.964844 C 442.964844 434.777344 446.609375 437.644531 450.195312 440.488281 Z M 431.648438 444.449219 C 431.550781 444.589844 431.515625 444.753906 431.460938 444.875 C 434.609375 446.726562 437.753906 448.578125 440.929688 450.371094 C 441.1875 450.523438 441.375 450.09375 441.097656 449.902344 C 437.984375 448.136719 434.796875 446.300781 431.648438 444.449219 Z M 435.527344 462.785156 C 432.636719 461.84375 429.71875 460.964844 426.78125 460.039062 C 426.746094 460.203125 426.707031 460.371094 426.714844 460.519531 C 429.589844 461.417969 432.464844 462.3125 435.339844 463.210938 C 435.644531 463.34375 435.832031 462.917969 435.527344 462.785156 Z M 434.847656 476.941406 C 431.964844 477.058594 429.125 477.15625 426.242188 477.273438 C 426.25 477.421875 426.273438 477.613281 426.28125 477.761719 C 429.164062 477.644531 432.003906 477.546875 434.886719 477.429688 C 435.183594 477.414062 435.144531 476.925781 434.847656 476.941406 Z M 437.011719 489.984375 C 434.632812 490.867188 432.230469 491.703125 429.804688 492.597656 C 429.855469 492.730469 429.925781 492.90625 429.976562 493.039062 C 432.359375 492.15625 434.800781 491.304688 437.183594 490.425781 C 437.464844 490.363281 437.292969 489.925781 437.011719 489.984375 Z M 445.164062 502.714844 C 442.765625 504.457031 440.378906 506.097656 437.945312 507.753906 C 438.039062 507.871094 438.152344 508.027344 438.25 508.140625 C 440.699219 506.527344 443.113281 504.828125 445.511719 503.082031 C 445.742188 502.890625 445.4375 502.503906 445.164062 502.714844 Z M 449.296875 421.898438 C 451.949219 424.550781 454.554688 427.21875 457.164062 429.886719 C 457.398438 430.097656 457.785156 429.796875 457.550781 429.585938 C 454.941406 426.914062 452.335938 424.246094 449.683594 421.59375 C 449.570312 421.691406 449.453125 421.785156 449.296875 421.898438 Z M 463.355469 413.425781 C 464.976562 416.027344 466.613281 418.667969 468.234375 421.269531 C 468.398438 421.558594 468.785156 421.257812 468.621094 420.964844 C 467 418.367188 465.398438 415.8125 463.820312 413.195312 C 463.644531 413.261719 463.488281 413.375 463.355469 413.425781 Z M 479.917969 408.777344 C 480.503906 411.578125 481.121094 414.316406 481.710938 417.117188 C 481.769531 417.398438 482.257812 417.359375 482.199219 417.078125 C 481.609375 414.277344 480.996094 411.539062 480.40625 408.738281 C 480.242188 408.699219 480.09375 408.707031 479.917969 408.777344 Z M 495.648438 408.59375 C 495.402344 411.0625 495.152344 413.535156 494.933594 415.941406 C 494.90625 416.257812 495.386719 416.324219 495.414062 416.007812 C 495.660156 413.539062 495.90625 411.066406 496.109375 408.613281 C 495.960938 408.621094 495.796875 408.585938 495.648438 408.59375 Z M 512.078125 412.78125 C 511.0625 415.351562 509.984375 417.894531 508.941406 420.523438 C 508.851562 420.8125 509.277344 421 509.410156 420.695312 C 510.429688 418.125 511.546875 415.566406 512.546875 412.953125 C 512.382812 412.917969 512.242188 412.820312 512.078125 412.78125 Z M 512.078125 412.78125 " fill-opacity="1" fill-rule="nonzero"/></g></g></g></g><g clip-path="url(#192d03a12e)"><g clip-path="url(#e14cd2456a)"><g clip-path="url(#c30449bf43)"><g clip-path="url(#279cca08f7)"><path fill="#e87b69" d="M 587.722656 386.570312 L 611.550781 505.109375 C 612.339844 508.941406 609.820312 512.703125 606.015625 513.433594 L 519.457031 530.824219 C 515.625 531.613281 511.863281 529.09375 511.132812 525.285156 L 487.304688 406.75 C 486.515625 402.917969 489.03125 399.15625 492.839844 398.425781 L 579.398438 381.035156 C 583.230469 380.246094 586.929688 382.738281 587.722656 386.570312 Z M 587.722656 386.570312 " fill-opacity="1" fill-rule="nonzero"/></g></g></g></g><g clip-path="url(#149851f9d3)"><g clip-path="url(#8ee12330c9)"><g clip-path="url(#8bd7ac10d7)"><g clip-path="url(#4891850c11)"><path fill="#d15081" d="M 578.910156 470.527344 L 592.164062 467.878906 C 593.28125 467.640625 594.378906 468.375 594.613281 469.496094 L 600.667969 499.863281 C 600.902344 500.984375 600.167969 502.078125 599.050781 502.3125 L 585.796875 504.964844 C 584.675781 505.199219 583.582031 504.464844 583.347656 503.34375 L 577.25 472.996094 C 577.054688 471.859375 577.789062 470.765625 578.910156 470.527344 Z M 578.910156 470.527344 " fill-opacity="1" fill-rule="nonzero"/></g></g></g></g><g clip-path="url(#bc39cbb279)"><g clip-path="url(#8ab7445033)"><g clip-path="url(#d9a66113a6)"><g clip-path="url(#db2ca8b5cc)"><path fill="#f2da66" d="M 505.796875 443.371094 L 518.492188 440.835938 C 519.757812 440.59375 520.992188 441.425781 521.28125 442.675781 L 523.386719 453.117188 C 523.632812 454.386719 522.800781 455.621094 521.550781 455.90625 L 508.855469 458.441406 C 507.589844 458.683594 506.355469 457.851562 506.066406 456.601562 L 503.960938 446.160156 C 503.714844 444.890625 504.546875 443.65625 505.796875 443.371094 Z M 525.898438 441.582031 L 528.058594 452.40625 C 528.3125 453.570312 529.421875 454.347656 530.585938 454.09375 L 543.648438 451.46875 C 544.808594 451.214844 545.585938 450.105469 545.335938 448.941406 L 543.175781 438.117188 C 542.925781 436.953125 541.8125 436.171875 540.648438 436.425781 L 527.589844 439.050781 C 526.40625 439.261719 525.648438 440.417969 525.898438 441.582031 Z M 547.714844 437.707031 L 549.667969 447.5 C 549.980469 448.945312 551.371094 449.917969 552.816406 449.605469 L 564.84375 447.179688 C 566.285156 446.871094 567.257812 445.480469 566.945312 444.035156 L 564.988281 434.242188 C 564.679688 432.796875 563.289062 431.824219 561.84375 432.136719 L 549.816406 434.5625 C 548.355469 434.828125 547.402344 436.261719 547.714844 437.707031 Z M 569.3125 433.414062 L 571.269531 443.207031 C 571.578125 444.652344 572.96875 445.625 574.457031 445.292969 L 586.484375 442.871094 C 587.929688 442.558594 588.898438 441.167969 588.570312 439.679688 L 586.613281 429.886719 C 586.304688 428.445312 584.914062 427.472656 583.425781 427.800781 L 571.398438 430.226562 C 569.953125 430.535156 569.027344 431.910156 569.3125 433.414062 Z M 508.140625 466.953125 L 510.242188 477.496094 C 510.484375 478.765625 511.699219 479.554688 512.96875 479.3125 L 525.792969 476.726562 C 527.0625 476.484375 527.847656 475.269531 527.605469 474 L 525.507812 463.453125 C 525.265625 462.183594 524.046875 461.398438 522.777344 461.640625 L 509.953125 464.222656 C 508.6875 464.46875 507.898438 465.683594 508.140625 466.953125 Z M 530.140625 462.652344 L 532.199219 472.960938 C 532.460938 474.273438 533.753906 475.132812 535.066406 474.875 L 547.609375 472.347656 C 548.921875 472.085938 549.78125 470.792969 549.519531 469.480469 L 547.460938 459.171875 C 547.203125 457.859375 545.90625 457 544.597656 457.261719 L 532.050781 459.785156 C 530.695312 460.0625 529.839844 461.359375 530.140625 462.652344 Z M 551.726562 457.808594 L 554.011719 469.089844 C 554.214844 470.121094 555.246094 470.828125 556.28125 470.628906 L 569.8125 467.917969 C 570.84375 467.71875 571.550781 466.683594 571.351562 465.652344 L 569.066406 454.371094 C 568.863281 453.339844 567.828125 452.632812 566.796875 452.832031 L 553.265625 455.542969 C 552.234375 455.742188 551.527344 456.777344 551.726562 457.808594 Z M 573.359375 453.601562 L 575.585938 464.605469 C 575.820312 465.722656 576.917969 466.457031 578.035156 466.222656 L 591.289062 463.570312 C 592.410156 463.335938 593.140625 462.242188 592.90625 461.121094 L 590.679688 450.121094 C 590.445312 449 589.351562 448.265625 588.230469 448.503906 L 574.976562 451.152344 C 573.859375 451.386719 573.125 452.484375 573.359375 453.601562 Z M 512.054688 486.539062 L 514.070312 496.609375 C 514.347656 497.96875 515.722656 498.894531 517.078125 498.617188 L 529.386719 496.136719 C 530.742188 495.859375 531.667969 494.484375 531.390625 493.128906 L 529.375 483.054688 C 529.097656 481.699219 527.726562 480.769531 526.371094 481.046875 L 514.0625 483.53125 C 512.707031 483.808594 511.777344 485.179688 512.054688 486.539062 Z M 533.902344 481.589844 L 536.136719 492.738281 C 536.355469 493.816406 537.390625 494.523438 538.464844 494.304688 L 551.851562 491.605469 C 552.925781 491.386719 553.632812 490.351562 553.414062 489.273438 L 551.179688 478.125 C 550.960938 477.050781 549.929688 476.34375 548.851562 476.558594 L 535.46875 479.261719 C 534.390625 479.480469 533.683594 480.515625 533.902344 481.589844 Z M 555.703125 477.421875 L 557.886719 488.183594 C 558.140625 489.347656 559.25 490.128906 560.476562 489.902344 L 573.492188 487.292969 C 574.65625 487.039062 575.433594 485.929688 575.207031 484.703125 L 573.023438 473.9375 C 572.769531 472.773438 571.65625 471.996094 570.433594 472.222656 L 557.417969 474.832031 C 556.210938 475.101562 555.449219 476.257812 555.703125 477.421875 Z M 515.84375 505.414062 L 518.042969 516.476562 C 518.277344 517.597656 519.355469 518.285156 520.433594 518.066406 L 533.730469 515.402344 C 534.847656 515.164062 535.539062 514.085938 535.320312 513.011719 L 533.121094 501.949219 C 532.886719 500.828125 531.808594 500.140625 530.730469 500.355469 L 517.433594 503.023438 C 516.34375 503.199219 515.652344 504.277344 515.84375 505.414062 Z M 537.851562 501.011719 L 540.097656 512.054688 C 540.332031 513.175781 541.410156 513.867188 542.484375 513.648438 L 555.78125 510.980469 C 556.902344 510.742188 557.59375 509.667969 557.375 508.589844 L 555.128906 497.546875 C 554.894531 496.425781 553.816406 495.734375 552.742188 495.953125 L 539.445312 498.621094 C 538.308594 498.8125 537.617188 499.890625 537.851562 501.011719 Z M 559.554688 496.726562 L 561.75 507.640625 C 562 508.804688 563.09375 509.539062 564.257812 509.285156 L 577.40625 506.625 C 578.570312 506.371094 579.304688 505.277344 579.050781 504.113281 L 576.859375 493.199219 C 576.605469 492.035156 575.511719 491.300781 574.347656 491.554688 L 561.199219 494.214844 C 560.082031 494.449219 559.347656 495.546875 559.554688 496.726562 Z M 559.554688 496.726562 " fill-opacity="1" fill-rule="nonzero"/></g></g></g></g><g clip-path="url(#db7a044d4f)"><g clip-path="url(#44e5b46075)"><g clip-path="url(#3b8dba7a8f)"><g clip-path="url(#4fae7578c0)"><path fill="#281c22" d="M 608.199219 508.289062 C 608.476562 508.226562 608.5625 508.699219 608.238281 508.777344 C 601.5625 510.171875 594.886719 511.566406 588.273438 512.988281 C 564.757812 517.929688 541.242188 522.871094 517.769531 527.796875 C 517.488281 527.855469 517.40625 527.382812 517.730469 527.308594 C 524.40625 525.910156 531.078125 524.515625 537.695312 523.09375 C 561.167969 518.171875 584.683594 513.230469 608.199219 508.289062 Z M 599.554688 499.339844 C 594.410156 500.136719 589.339844 501.105469 584.289062 502.269531 C 584.007812 502.328125 584.050781 502.816406 584.328125 502.757812 C 589.378906 501.597656 594.496094 500.605469 599.59375 499.828125 C 599.917969 499.753906 599.851562 499.324219 599.554688 499.339844 Z M 577.480469 503.96875 C 572.957031 505.179688 568.433594 506.140625 563.816406 506.984375 C 563.535156 507.042969 563.558594 507.488281 563.855469 507.472656 C 568.488281 506.671875 573.101562 505.679688 577.625 504.46875 C 577.914062 504.304688 577.742188 503.867188 577.480469 503.96875 Z M 555.863281 508.472656 C 551.191406 509.4375 546.519531 510.40625 541.832031 511.328125 C 541.550781 511.386719 541.589844 511.875 541.871094 511.816406 C 546.542969 510.851562 551.214844 509.882812 555.902344 508.960938 C 556.167969 508.859375 556.144531 508.414062 555.863281 508.472656 Z M 533.976562 512.675781 C 529.097656 513.625 524.234375 514.613281 519.324219 515.621094 C 519.046875 515.679688 519.085938 516.171875 519.367188 516.109375 C 524.230469 515.121094 529.136719 514.113281 534.019531 513.167969 C 534.339844 513.089844 534.273438 512.660156 533.976562 512.675781 Z M 529.832031 492.878906 C 525.324219 494.136719 520.789062 495.199219 516.207031 496.128906 C 515.925781 496.1875 515.964844 496.679688 516.246094 496.621094 C 520.875 495.671875 525.449219 494.589844 529.976562 493.378906 C 530.265625 493.214844 530.09375 492.777344 529.832031 492.878906 Z M 551.035156 488.738281 C 547.042969 489.894531 543.015625 490.960938 538.957031 491.941406 C 538.675781 492 538.714844 492.492188 538.996094 492.433594 C 543.101562 491.433594 547.125 490.367188 551.179688 489.238281 C 551.53125 489.101562 551.359375 488.664062 551.035156 488.738281 Z M 572.746094 484.351562 C 568.351562 485.511719 564.019531 486.699219 559.625 487.859375 C 559.347656 487.917969 559.519531 488.355469 559.796875 488.296875 C 564.191406 487.136719 568.523438 485.949219 572.917969 484.789062 C 573.179688 484.6875 573.007812 484.25 572.746094 484.351562 Z M 590.242188 461.40625 C 586.058594 462.332031 581.9375 463.285156 577.753906 464.210938 C 577.476562 464.269531 577.515625 464.757812 577.792969 464.699219 C 581.976562 463.773438 586.097656 462.820312 590.28125 461.894531 C 590.605469 461.820312 590.5625 461.328125 590.242188 461.40625 Z M 568.90625 465.597656 C 564.933594 466.542969 560.910156 467.355469 556.894531 468.066406 C 556.613281 468.125 556.636719 468.570312 556.933594 468.554688 C 560.949219 467.84375 564.972656 467.03125 568.945312 466.085938 C 569.25 465.964844 569.183594 465.539062 568.90625 465.597656 Z M 546.933594 469.835938 C 542.707031 470.523438 538.542969 471.496094 534.386719 472.613281 C 534.105469 472.671875 534.277344 473.109375 534.558594 473.050781 C 538.652344 471.90625 542.792969 470.996094 546.953125 470.28125 C 547.25 470.265625 547.210938 469.777344 546.933594 469.835938 Z M 525.785156 474.507812 C 523.609375 474.75 521.464844 475.082031 519.347656 475.609375 C 517.40625 476.0625 515.425781 476.9375 513.40625 477.070312 C 513.109375 477.085938 513.148438 477.574219 513.445312 477.558594 C 515.464844 477.425781 517.445312 476.554688 519.386719 476.097656 C 521.523438 475.617188 523.648438 475.242188 525.824219 474.996094 C 526.164062 474.964844 526.125 474.476562 525.785156 474.507812 Z M 521.554688 453.078125 C 517.492188 454.308594 513.386719 455.304688 509.234375 456.171875 C 508.953125 456.230469 508.992188 456.71875 509.273438 456.660156 C 513.472656 455.777344 517.621094 454.765625 521.726562 453.515625 C 521.988281 453.414062 521.816406 452.972656 521.554688 453.078125 Z M 543.265625 448.6875 C 539.257812 449.800781 535.292969 450.894531 531.285156 452.003906 C 531.003906 452.0625 531.175781 452.5 531.457031 452.441406 C 535.464844 451.332031 539.429688 450.238281 543.4375 449.125 C 543.71875 449.066406 543.546875 448.628906 543.265625 448.6875 Z M 564.980469 444.046875 C 560.800781 444.972656 556.667969 446.03125 552.527344 447.191406 C 552.25 447.25 552.417969 447.6875 552.699219 447.628906 C 556.796875 446.484375 560.882812 445.445312 565.019531 444.535156 C 565.300781 444.476562 565.261719 443.988281 564.980469 444.046875 Z M 586.242188 439.53125 C 582.453125 440.300781 578.699219 441.164062 574.953125 442.171875 C 574.671875 442.230469 574.84375 442.667969 575.125 442.609375 C 578.828125 441.617188 582.519531 440.730469 586.261719 439.976562 C 586.585938 439.898438 586.5625 439.453125 586.242188 439.53125 Z M 586.242188 439.53125 " fill-opacity="1" fill-rule="nonzero"/></g></g></g></g><g clip-path="url(#bc789a0715)"><g clip-path="url(#a62ee9ac47)"><g clip-path="url(#c42787df9f)"><g clip-path="url(#454973fe93)"><path fill="#281c22" d="M 587.722656 386.570312 L 594.375 419.632812 L 493.894531 439.785156 L 487.242188 406.722656 C 486.453125 402.890625 488.972656 399.128906 492.777344 398.398438 L 579.335938 381.007812 C 583.230469 380.246094 586.929688 382.738281 587.722656 386.570312 Z M 587.722656 386.570312 " fill-opacity="1" fill-rule="nonzero"/></g></g></g></g><g clip-path="url(#2dde09de12)"><g clip-path="url(#0fed277584)"><g clip-path="url(#9b68c5b85d)"><g clip-path="url(#7cf1e8ef8e)"><path fill="#a7ddea" d="M 581.878906 412.847656 L 502.804688 428.730469 C 501.816406 428.914062 500.863281 428.277344 500.695312 427.332031 L 497.351562 410.757812 C 497.167969 409.765625 497.804688 408.8125 498.746094 408.644531 L 577.820312 392.761719 C 578.808594 392.578125 579.761719 393.214844 579.929688 394.160156 L 583.273438 410.734375 C 583.503906 411.707031 582.867188 412.664062 581.878906 412.847656 Z M 581.878906 412.847656 " fill-opacity="1" fill-rule="nonzero"/></g></g></g></g><g clip-path="url(#b8c416668a)"><g clip-path="url(#2fb571b7cf)"><g clip-path="url(#4736150c8a)"><g clip-path="url(#02f0e95d87)"><path fill="#a7ddea" d="M 492.832031 571.882812 C 495.472656 573.730469 496.132812 577.363281 494.332031 579.988281 C 492.484375 582.628906 488.855469 583.289062 486.230469 581.484375 C 483.589844 579.636719 482.929688 576.003906 484.730469 573.378906 C 486.5625 570.695312 490.191406 570.035156 492.832031 571.882812 Z M 495.054688 584.300781 L 492.761719 586.308594 C 492.714844 586.324219 492.707031 586.429688 492.769531 586.457031 L 503.402344 594.425781 C 503.480469 594.496094 503.640625 594.382812 503.542969 594.269531 L 495.203125 584.292969 C 495.144531 584.265625 495.097656 584.28125 495.054688 584.300781 Z M 495.054688 584.300781 " fill-opacity="1" fill-rule="nonzero"/></g></g></g></g><g clip-path="url(#aaffb6e4c0)"><g clip-path="url(#15c37d0029)"><g clip-path="url(#de4a2fba27)"><g clip-path="url(#09d4f66b7d)"><path fill="#281c22" d="M 451.308594 553.855469 L 478.441406 514.617188 C 478.832031 514.0625 479.398438 513.839844 479.800781 514.085938 C 480.15625 514.351562 480.160156 515.007812 479.796875 515.503906 L 452.664062 554.742188 C 452.273438 555.296875 451.703125 555.519531 451.304688 555.269531 C 450.921875 555.066406 450.917969 554.410156 451.308594 553.855469 Z M 521.265625 544.765625 C 525.03125 546.125 528.835938 547.46875 532.597656 548.828125 C 534.007812 549.335938 534.984375 547.1875 533.53125 546.695312 C 529.769531 545.335938 525.964844 543.992188 522.203125 542.632812 C 520.835938 542.105469 519.855469 544.257812 521.265625 544.765625 Z M 521.265625 544.765625 " fill-opacity="1" fill-rule="nonzero"/></g></g></g></g><g clip-path="url(#2d61d2bf82)"><g clip-path="url(#d4e2d83127)"><g clip-path="url(#4f03bc578e)"><g clip-path="url(#1bc1f28c79)"><path fill="#d15081" d="M 438.632812 509 L 521.632812 538.460938 C 523.148438 538.980469 524.085938 540.480469 523.945312 542.054688 L 523.683594 545.136719 C 523.582031 546.035156 522.703125 546.628906 521.824219 546.316406 L 439.253906 516.539062 Z M 431.777344 519.105469 L 488.609375 586.414062 C 489.640625 587.628906 491.339844 587.972656 492.796875 587.304688 L 495.558594 585.972656 C 496.355469 585.558594 496.601562 584.503906 495.984375 583.835938 L 439.101562 517.050781 Z M 431.777344 519.105469 " fill-opacity="1" fill-rule="nonzero"/></g></g></g></g><g clip-path="url(#e242bd9a1b)"><g clip-path="url(#153165c027)"><g clip-path="url(#0408e7008e)"><g clip-path="url(#e27c62af9e)"><path fill="#281c22" d="M 444.289062 520.632812 C 439.542969 527.742188 421.507812 516.601562 415.019531 512.265625 C 413.722656 511.40625 413.425781 509.605469 414.335938 508.1875 L 416.4375 505.042969 L 403.605469 496.871094 C 402.664062 496.277344 402.246094 495.078125 402.597656 494.035156 C 403.023438 492.804688 403.78125 491.246094 405.152344 490.105469 C 406.023438 489.363281 407.332031 489.355469 408.21875 490.070312 L 420.203125 499.429688 L 422.433594 496.085938 C 423.386719 494.652344 425.300781 494.257812 426.605469 495.261719 C 432.898438 500.128906 448.964844 513.605469 444.289062 520.632812 Z M 444.289062 520.632812 " fill-opacity="1" fill-rule="nonzero"/></g></g></g></g><g clip-path="url(#b816a6b114)"><g clip-path="url(#b3796ab8ec)"><g clip-path="url(#da4193189d)"><g clip-path="url(#84f23927cb)"><path fill="#a7ddea" d="M 516.511719 537.632812 C 519.152344 539.480469 519.8125 543.109375 518.011719 545.734375 C 516.164062 548.375 512.535156 549.035156 509.910156 547.230469 C 507.289062 545.425781 506.609375 541.753906 508.414062 539.128906 C 510.214844 536.503906 513.890625 535.828125 516.511719 537.632812 Z M 516.511719 537.632812 " fill-opacity="1" fill-rule="nonzero"/></g></g></g></g><g clip-path="url(#b421b5e828)"><g clip-path="url(#302b6fef89)"><g clip-path="url(#681e2a2207)"><g clip-path="url(#a1afb4d42d)"><path fill="#a7ddea" d="M 431.710938 506.402344 C 433.5625 507.648438 434.003906 510.203125 432.742188 512.011719 C 431.476562 513.816406 428.941406 514.304688 427.136719 513.039062 C 425.285156 511.792969 424.84375 509.238281 426.105469 507.429688 C 427.367188 505.621094 429.863281 505.15625 431.710938 506.402344 Z M 419.914062 499.59375 C 419.71875 499.871094 419.527344 500.148438 419.332031 500.425781 C 419.3125 500.382812 419.3125 500.382812 419.253906 500.355469 C 415.609375 497.488281 411.890625 494.695312 408.148438 491.964844 C 407.933594 491.796875 407.625 492.171875 407.839844 492.339844 C 411.628906 495.050781 415.34375 497.84375 418.945312 500.730469 C 418.960938 500.773438 419.003906 500.757812 419.066406 500.785156 C 418.800781 501.140625 418.535156 501.496094 418.273438 501.851562 C 414.335938 499.144531 410.359375 496.457031 406.328125 493.890625 C 406.066406 493.738281 405.800781 494.09375 406.019531 494.261719 C 410.066406 496.875 414.027344 499.519531 417.980469 502.269531 C 417.757812 502.609375 417.539062 502.945312 417.273438 503.300781 C 413.335938 500.851562 409.382812 498.351562 405.488281 495.882812 C 405.230469 495.734375 404.964844 496.089844 405.179688 496.257812 C 409.136719 498.753906 413.070312 501.207031 417.027344 503.703125 C 416.875 503.964844 416.679688 504.242188 416.488281 504.519531 C 416.335938 504.78125 416.691406 505.046875 416.859375 504.828125 C 417.921875 503.152344 419.015625 501.5625 420.21875 499.980469 C 420.480469 499.625 420.125 499.359375 419.914062 499.59375 Z M 419.914062 499.59375 " fill-opacity="1" fill-rule="nonzero"/></g></g></g></g><g clip-path="url(#75ec5e2cef)"><g clip-path="url(#636fca4440)"><g clip-path="url(#7881437561)"><g clip-path="url(#e01e38ff64)"><path fill="#281c22" d="M 426.125 506.058594 C 425.980469 505.8125 426.417969 505.640625 426.5625 505.886719 C 428.320312 509.089844 430.144531 512.214844 432.058594 515.308594 C 432.207031 515.554688 431.863281 515.839844 431.671875 515.609375 C 429.742188 512.476562 427.882812 509.261719 426.125 506.058594 Z M 427.8125 505.855469 C 429.414062 508.664062 431.015625 511.472656 432.679688 514.308594 C 432.824219 514.554688 433.230469 514.292969 433.066406 514.003906 C 431.464844 511.195312 429.863281 508.386719 428.199219 505.550781 C 428.050781 505.304688 427.664062 505.609375 427.8125 505.855469 Z M 427.8125 505.855469 " fill-opacity="1" fill-rule="nonzero"/></g></g></g></g><g clip-path="url(#39da4f5fde)"><g clip-path="url(#5e5d92f397)"><g clip-path="url(#02cde757bc)"><g clip-path="url(#49062771ce)"><path fill="#a7ddea" d="M 457.167969 527.625 L 475.410156 541.109375 L 473.898438 543.316406 L 454.976562 530.804688 Z M 457.167969 527.625 " fill-opacity="1" fill-rule="nonzero"/></g></g></g></g><g clip-path="url(#7508244ee4)"><g clip-path="url(#f91434226d)"><g clip-path="url(#72eb1a93a6)"><g clip-path="url(#546113660f)"><path fill="#281c22" d="M 512.269531 540.855469 C 512.496094 540.664062 512.800781 541.050781 512.570312 541.242188 C 511.4375 542.089844 512.425781 543.976562 513.773438 543.550781 C 515.492188 543.03125 514.082031 540.199219 512.570312 541.242188 C 512.28125 541.40625 511.976562 541.019531 512.269531 540.855469 C 513.058594 540.292969 514.296875 540.621094 514.769531 541.445312 C 515.226562 542.226562 515.058594 543.351562 514.277344 543.808594 C 513.472656 544.324219 512.332031 543.863281 511.847656 543.140625 C 511.304688 542.394531 511.519531 541.398438 512.269531 540.855469 Z M 507.277344 541.136719 C 506.460938 543.832031 508.792969 547.214844 511.238281 548.175781 C 513.914062 549.203125 517.226562 547.859375 518.496094 545.292969 C 518.644531 545.03125 518.21875 544.84375 518.066406 545.105469 C 516.90625 547.429688 513.8125 548.6875 511.425781 547.75 C 509.242188 546.9375 506.953125 543.789062 507.703125 541.324219 C 507.792969 541.035156 507.367188 540.851562 507.277344 541.136719 Z M 507.277344 541.136719 " fill-opacity="1" fill-rule="nonzero"/></g></g></g></g><g clip-path="url(#160a711f2b)"><g clip-path="url(#2b38e53eaf)"><g clip-path="url(#65e8ef1d59)"><g clip-path="url(#e208cc2c65)"><path fill="#000000" d="M 194.089844 181.699219 L 186.117188 167.371094 C 180.792969 157.828125 175.445312 148.296875 170.082031 138.777344 L 170.078125 138.769531 C 169.933594 138.511719 169.667969 138.328125 169.351562 138.296875 C 153.707031 136.832031 138.320312 133.085938 122.691406 130.765625 C 118.417969 130.179688 118.292969 131.113281 122.519531 131.828125 C 137.558594 134.417969 152.421875 138.277344 167.734375 140.027344 C 167.519531 140.207031 167.289062 140.414062 167.039062 140.65625 C 159.722656 147.820312 153.308594 155.789062 146.269531 163.085938 C 139.25 170.410156 131.707031 177.226562 123.519531 183.175781 C 121.464844 184.652344 119.390625 186.105469 117.265625 187.46875 C 116.210938 188.15625 115.125 188.867188 114.082031 189.476562 C 113.558594 189.777344 113.054688 190.019531 112.5625 190.171875 C 112.074219 190.320312 111.558594 190.371094 110.980469 190.371094 C 109.832031 190.359375 108.5625 190.175781 107.308594 190.019531 C 106.039062 189.859375 104.816406 189.683594 103.574219 189.464844 C 101.097656 189.027344 98.636719 188.460938 96.167969 187.859375 C 93.699219 187.25 91.226562 186.644531 88.773438 186 L 81.390625 184.039062 C 76.507812 182.75 71.59375 181.496094 66.601562 180.601562 C 68.230469 178.679688 69.882812 176.78125 71.597656 174.957031 C 72.597656 173.898438 73.617188 172.863281 74.664062 171.863281 C 75.707031 170.863281 76.808594 169.898438 77.902344 168.917969 C 82.289062 165.019531 86.765625 161.207031 91.199219 157.335938 C 95.640625 153.46875 100.015625 149.511719 104.277344 145.449219 C 108.542969 141.390625 112.71875 137.234375 116.769531 132.960938 C 119.707031 129.800781 119.015625 129.164062 115.992188 132.210938 C 111.859375 136.371094 107.613281 140.425781 103.285156 144.386719 C 98.960938 148.359375 94.550781 152.222656 90.066406 156.015625 C 85.582031 159.816406 81.058594 163.578125 76.613281 167.453125 C 75.507812 168.421875 74.386719 169.386719 73.292969 170.414062 C 72.207031 171.433594 71.152344 172.484375 70.125 173.558594 C 68.070312 175.707031 66.125 177.945312 64.210938 180.1875 C 63.910156 180.542969 63.875 181.070312 64.160156 181.464844 L 64.210938 181.539062 C 64.578125 182.050781 64.964844 182.53125 65.320312 183.066406 L 66.367188 184.710938 C 67.027344 185.851562 67.707031 186.976562 68.332031 188.148438 L 69.285156 189.890625 L 70.214844 191.65625 C 70.835938 192.828125 71.4375 194.015625 72.042969 195.199219 C 74.453125 199.945312 76.789062 204.738281 79.136719 209.53125 C 81.492188 214.324219 83.800781 219.128906 86.351562 223.875 C 86.671875 224.46875 87.027344 225.058594 87.363281 225.648438 L 87.859375 226.492188 L 88.335938 227.34375 C 88.960938 228.492188 89.542969 229.675781 90.121094 230.871094 C 91.277344 233.261719 92.425781 235.71875 93.894531 238.046875 L 93.898438 238.058594 C 94.035156 238.269531 94.253906 238.429688 94.519531 238.480469 C 102.445312 239.988281 110.386719 241.308594 118.21875 243.042969 C 119.1875 243.265625 120.183594 243.492188 121.179688 243.699219 C 122.179688 243.902344 123.175781 244.082031 124.179688 244.246094 C 126.179688 244.578125 128.1875 244.839844 130.195312 245.066406 C 134.210938 245.523438 138.230469 245.839844 142.242188 246.148438 C 144.734375 246.335938 146.027344 246.210938 146.109375 245.96875 C 146.507812 245.921875 147.601562 245.300781 149.3125 244 C 151.628906 242.234375 153.941406 240.460938 156.234375 238.65625 C 157.378906 237.753906 158.519531 236.839844 159.648438 235.90625 C 160.777344 234.976562 161.886719 234.007812 162.980469 233.070312 C 167.402344 229.3125 172.007812 225.726562 176.367188 221.796875 C 178.542969 219.835938 180.667969 217.765625 182.644531 215.613281 C 183.617188 214.589844 184.671875 213.578125 185.71875 212.578125 L 188.882812 209.574219 L 195.253906 203.585938 C 196.316406 202.585938 197.375 201.582031 198.425781 200.5625 C 199.480469 199.539062 200.523438 198.535156 201.558594 197.410156 C 201.847656 197.09375 201.917969 196.617188 201.703125 196.222656 L 201.695312 196.207031 C 200.402344 193.84375 199.203125 191.394531 197.96875 188.953125 C 197.351562 187.730469 196.730469 186.507812 196.078125 185.289062 Z M 130.359375 243.722656 C 128.375 243.457031 126.394531 243.160156 124.429688 242.796875 C 123.449219 242.617188 122.46875 242.421875 121.496094 242.207031 C 120.527344 241.988281 119.5625 241.75 118.574219 241.507812 C 111.574219 239.832031 104.515625 238.511719 97.484375 237.121094 C 97.695312 237.011719 97.90625 236.902344 98.113281 236.796875 C 98.390625 236.648438 98.667969 236.496094 98.949219 236.328125 C 99.089844 236.242188 99.230469 236.152344 99.378906 236.050781 C 99.445312 236.007812 99.539062 235.933594 99.609375 235.882812 L 99.777344 235.753906 C 100.238281 235.410156 100.757812 235.03125 101.261719 234.574219 C 101.761719 234.117188 102.265625 233.578125 102.609375 232.894531 C 102.691406 232.683594 101.929688 232.136719 101.78125 232.207031 C 100.792969 232.808594 99.628906 233.1875 98.484375 234.042969 L 97.753906 234.621094 C 97.507812 234.824219 97.253906 235.035156 97.007812 235.269531 C 96.761719 235.5 96.523438 235.75 96.292969 236.027344 C 96.179688 236.167969 96.066406 236.316406 95.957031 236.480469 C 95.902344 236.570312 95.851562 236.644531 95.800781 236.75 L 95.785156 236.78125 C 95.625 236.75 95.464844 236.71875 95.308594 236.683594 C 94.046875 234.578125 93 232.304688 91.917969 230.011719 C 91.347656 228.800781 90.761719 227.585938 90.117188 226.382812 L 89.625 225.484375 L 89.113281 224.601562 C 88.792969 224.03125 88.464844 223.472656 88.15625 222.890625 C 85.683594 218.21875 83.390625 213.390625 81.050781 208.597656 C 78.71875 203.796875 76.382812 198.996094 73.953125 194.226562 C 73.339844 193.039062 72.734375 191.84375 72.101562 190.660156 L 71.164062 188.886719 L 70.191406 187.121094 C 69.558594 185.9375 68.851562 184.78125 68.167969 183.613281 L 67.0625 181.890625 C 67.042969 181.859375 67.019531 181.832031 67 181.800781 C 71.699219 182.839844 76.335938 184.171875 80.976562 185.527344 L 88.316406 187.667969 C 90.777344 188.371094 93.238281 189.027344 95.707031 189.683594 C 98.179688 190.332031 100.675781 190.945312 103.214844 191.425781 C 104.476562 191.667969 105.777344 191.871094 107.035156 192.042969 C 108.304688 192.210938 109.5625 192.417969 110.960938 192.449219 C 111.660156 192.460938 112.425781 192.398438 113.15625 192.179688 C 113.886719 191.964844 114.539062 191.640625 115.121094 191.308594 C 115.292969 191.210938 115.460938 191.109375 115.632812 191.007812 C 124.808594 209.347656 134.613281 227.398438 145.011719 245.070312 C 145.128906 245.265625 145.25 245.429688 145.363281 245.558594 C 144.742188 245.386719 143.734375 245.210938 142.335938 245.0625 C 138.332031 244.65625 134.335938 244.253906 130.359375 243.722656 Z M 196.988281 199.082031 C 195.953125 200.101562 194.902344 201.105469 193.851562 202.117188 L 187.535156 208.15625 L 184.386719 211.203125 C 183.339844 212.226562 182.304688 213.246094 181.277344 214.347656 C 179.339844 216.511719 177.3125 218.535156 175.1875 220.507812 C 170.945312 224.445312 166.40625 228.097656 162.023438 231.96875 C 157.730469 235.890625 153.179688 239.488281 148.640625 243.140625 C 147.433594 244.113281 146.648438 244.859375 146.25 245.339844 C 146.210938 245.125 146.125 244.859375 145.972656 244.546875 C 140.191406 232.980469 134.152344 221.523438 127.875 210.207031 C 128.605469 209.757812 129.324219 209.292969 129.996094 208.683594 C 130.414062 208.304688 130.808594 207.875 131.152344 207.378906 C 131.496094 206.882812 131.785156 206.316406 131.941406 205.699219 C 131.972656 205.511719 131.144531 205.074219 131.011719 205.15625 C 130.203125 205.8125 129.359375 206.359375 128.554688 207.09375 C 128.03125 207.570312 127.507812 208.121094 127.074219 208.765625 C 123.644531 202.613281 120.148438 196.496094 116.578125 190.429688 C 117.199219 190.046875 117.800781 189.65625 118.417969 189.261719 C 120.585938 187.882812 122.695312 186.414062 124.78125 184.914062 C 133.09375 178.871094 140.6875 171.890625 147.640625 164.378906 C 154.628906 156.878906 160.816406 148.769531 167.8125 141.429688 C 168.214844 141 168.53125 140.632812 168.769531 140.324219 C 173.910156 149.691406 179.070312 159.050781 184.25 168.398438 L 192.207031 182.722656 L 194.195312 186.300781 C 194.832031 187.488281 195.453125 188.699219 196.070312 189.914062 C 196.917969 191.574219 197.753906 193.246094 198.625 194.910156 C 198.304688 194.800781 197.957031 194.714844 197.582031 194.679688 C 197.050781 194.636719 196.617188 194.679688 196.191406 194.734375 C 195.765625 194.789062 195.371094 194.871094 194.992188 194.902344 C 194.890625 194.933594 194.433594 195.757812 194.566406 195.894531 C 195.03125 196.285156 195.558594 196.476562 196.039062 196.605469 C 196.523438 196.734375 197.007812 196.785156 197.382812 196.820312 C 197.753906 196.851562 198.160156 196.894531 198.625 196.910156 C 198.796875 196.914062 198.980469 196.914062 199.164062 196.90625 C 198.460938 197.636719 197.71875 198.363281 196.988281 199.082031 Z M 121.84375 135.578125 C 122.082031 136.113281 122.324219 136.628906 122.597656 137.113281 C 122.867188 137.601562 123.164062 138.058594 123.574219 138.476562 C 123.695312 138.636719 123.332031 139.496094 123.066406 139.441406 C 122.324219 139.253906 121.640625 138.8125 121.113281 138.277344 C 120.578125 137.742188 120.175781 137.113281 119.886719 136.460938 C 119.300781 135.15625 119.125 133.773438 119.175781 132.421875 C 119.199219 132.226562 120.117188 132.015625 120.226562 132.179688 C 120.863281 133.359375 121.359375 134.503906 121.84375 135.578125 Z M 125.667969 141.148438 C 126.222656 142.148438 126.832031 143.089844 127.351562 144.113281 C 127.875 145.128906 128.320312 146.214844 128.683594 147.390625 C 128.726562 147.597656 127.957031 148.125 127.777344 148 C 126.804688 147.179688 126.011719 146.207031 125.4375 145.089844 C 124.875 143.976562 124.503906 142.695312 124.605469 141.339844 C 124.636719 141.140625 125.570312 141.011719 125.667969 141.148438 Z M 133.773438 156.570312 C 133.808594 156.804688 132.992188 157.257812 132.816406 157.101562 C 130.914062 155.113281 129.625 152.78125 128.964844 150.113281 C 128.933594 149.914062 129.757812 149.460938 129.910156 149.589844 C 131.8125 151.574219 133.105469 153.90625 133.773438 156.570312 Z M 135.574219 159.121094 C 136.070312 160.089844 136.730469 160.984375 137.28125 162.003906 C 137.835938 163.015625 138.332031 164.121094 138.625 165.363281 C 138.65625 165.582031 137.839844 166.03125 137.671875 165.898438 C 136.792969 165.050781 136 164.132812 135.398438 163.039062 C 135.101562 162.492188 134.847656 161.90625 134.675781 161.273438 C 134.507812 160.640625 134.414062 159.953125 134.503906 159.253906 C 134.546875 159.046875 135.484375 158.992188 135.574219 159.121094 Z M 147.183594 182.765625 C 146.109375 181.546875 145.230469 180.207031 144.492188 178.839844 C 143.753906 177.46875 143.128906 176.050781 142.59375 174.539062 C 142.535156 174.3125 143.328125 173.808594 143.503906 173.960938 C 144.652344 175.109375 145.621094 176.414062 146.378906 177.816406 C 147.140625 179.226562 147.695312 180.699219 148.140625 182.238281 C 148.195312 182.507812 147.382812 182.960938 147.183594 182.765625 Z M 149.886719 184.878906 C 151.140625 185.941406 151.871094 187.027344 152.339844 188.625 C 152.359375 188.769531 151.671875 189.398438 151.523438 189.351562 C 149.925781 188.628906 148.902344 187.09375 148.898438 185.316406 C 148.914062 185.183594 149.78125 184.8125 149.886719 184.878906 Z M 157.65625 188.65625 C 157.730469 188.71875 158.070312 189.589844 157.941406 189.710938 C 157.578125 189.980469 157.25 190.132812 156.898438 190.238281 C 156.554688 190.339844 156.203125 190.382812 155.851562 190.363281 C 155.496094 190.339844 155.140625 190.261719 154.785156 190.101562 C 154.609375 190.023438 154.425781 189.917969 154.25 189.789062 C 154.066406 189.640625 153.886719 189.5 153.714844 189.207031 C 153.628906 189.015625 154.445312 188.519531 154.484375 188.449219 C 154.613281 188.34375 154.890625 188.308594 155.148438 188.261719 C 155.414062 188.21875 155.691406 188.203125 155.96875 188.21875 C 156.246094 188.234375 156.53125 188.277344 156.816406 188.355469 C 157.097656 188.429688 157.40625 188.539062 157.65625 188.65625 Z M 166.988281 190.90625 C 167.140625 191.027344 166.949219 191.9375 166.746094 191.972656 C 165.570312 192.0625 164.457031 191.871094 163.449219 191.566406 C 162.429688 191.261719 161.523438 190.824219 160.558594 190.382812 C 160.425781 190.300781 160.476562 189.363281 160.648438 189.308594 C 161.835938 189.054688 163.023438 189.199219 164.070312 189.511719 C 165.128906 189.832031 166.0625 190.332031 166.988281 190.90625 Z M 176.097656 192.09375 C 176.273438 192.210938 176.078125 193.125 175.871094 193.160156 C 174.644531 193.257812 173.46875 193.179688 172.347656 192.984375 C 171.21875 192.785156 170.140625 192.46875 169.015625 192.082031 C 168.859375 192.007812 168.871094 191.070312 169.046875 191.003906 C 170.269531 190.679688 171.527344 190.660156 172.714844 190.867188 C 173.90625 191.074219 175.03125 191.503906 176.097656 192.09375 Z M 185.296875 193.378906 C 185.464844 193.496094 185.238281 194.402344 185.066406 194.445312 C 184.554688 194.515625 184.054688 194.585938 183.523438 194.605469 C 182.996094 194.621094 182.429688 194.585938 181.859375 194.445312 C 180.777344 194.171875 179.984375 193.695312 179.097656 193.367188 C 178.976562 193.304688 178.886719 192.367188 179.054688 192.289062 C 179.644531 192.089844 180.261719 192.058594 180.824219 192.097656 C 181.390625 192.136719 181.910156 192.246094 182.378906 192.359375 C 182.8125 192.46875 183.273438 192.582031 183.773438 192.734375 C 184.269531 192.890625 184.796875 193.089844 185.296875 193.378906 Z M 192.445312 194.621094 C 192.558594 194.746094 192.183594 195.601562 192.050781 195.640625 C 191.28125 195.722656 190.601562 195.8125 189.835938 195.734375 C 189.082031 195.65625 188.234375 195.421875 187.480469 194.878906 C 187.378906 194.785156 187.613281 193.875 187.726562 193.832031 C 188.507812 193.648438 189.238281 193.515625 190.050781 193.597656 C 190.84375 193.675781 191.742188 193.96875 192.445312 194.621094 Z M 149.613281 189.171875 C 149.566406 189.414062 149.488281 189.589844 149.417969 189.738281 C 149.34375 189.894531 149.265625 190.027344 149.183594 190.15625 C 149.023438 190.414062 148.847656 190.636719 148.667969 190.851562 C 148.316406 191.269531 147.90625 191.640625 147.550781 191.941406 L 147.433594 192.042969 C 147.367188 192.097656 147.300781 192.15625 147.234375 192.207031 C 147.105469 192.304688 146.976562 192.390625 146.851562 192.464844 C 146.597656 192.613281 146.359375 192.730469 146.136719 192.832031 C 145.683594 193.035156 145.285156 193.171875 144.957031 193.386719 C 144.839844 193.433594 143.960938 193.101562 144.007812 192.84375 C 144.207031 192.148438 144.675781 191.652344 145.070312 191.273438 C 145.273438 191.082031 145.472656 190.914062 145.648438 190.765625 L 145.886719 190.554688 L 145.984375 190.464844 L 146.15625 190.308594 C 146.597656 189.9375 147.015625 189.679688 147.453125 189.421875 C 147.664062 189.296875 147.886719 189.179688 148.089844 189.066406 C 148.1875 189.015625 148.28125 188.960938 148.378906 188.910156 C 148.476562 188.859375 148.539062 188.816406 148.59375 188.820312 C 148.628906 188.976562 149.640625 188.726562 149.613281 189.171875 Z M 144.347656 193.96875 C 144.191406 194.660156 143.851562 195.132812 143.527344 195.570312 C 143.199219 195.988281 142.824219 196.355469 142.53125 196.644531 L 142.28125 196.890625 C 142.183594 196.980469 142.085938 197.070312 141.988281 197.152344 C 141.792969 197.320312 141.59375 197.46875 141.398438 197.609375 C 141 197.890625 140.605469 198.128906 140.21875 198.398438 C 140.078125 198.472656 139.265625 198.011719 139.304688 197.804688 C 139.460938 197.234375 139.746094 196.730469 140.046875 196.292969 C 140.199219 196.074219 140.355469 195.871094 140.515625 195.683594 L 140.746094 195.410156 L 140.863281 195.28125 L 141.023438 195.117188 C 141.445312 194.707031 141.851562 194.4375 142.257812 194.183594 C 142.65625 193.933594 143.074219 193.714844 143.371094 193.507812 C 143.460938 193.476562 144.371094 193.742188 144.347656 193.96875 Z M 138.863281 199.664062 C 138.578125 200.316406 138.148438 200.851562 137.714844 201.3125 C 137.277344 201.773438 136.816406 202.167969 136.414062 202.515625 C 135.605469 203.222656 134.648438 204.082031 133.421875 204.621094 C 133.199219 204.695312 132.640625 203.949219 132.738281 203.773438 C 133.390625 202.789062 134 201.785156 135.007812 200.894531 C 136.023438 200.023438 137.085938 199.59375 138.011719 199.003906 C 138.148438 198.9375 138.933594 199.460938 138.863281 199.664062 Z M 125.246094 211.933594 C 124.484375 213.265625 123.433594 214.347656 122.359375 215.265625 C 121.28125 216.1875 120.167969 216.945312 119.066406 217.8125 C 118.863281 217.941406 118.101562 217.402344 118.195312 217.148438 C 118.828125 215.730469 119.871094 214.566406 120.96875 213.628906 C 122.078125 212.6875 123.257812 211.957031 124.457031 211.195312 C 124.640625 211.101562 125.339844 211.730469 125.246094 211.933594 Z M 117.257812 219.558594 C 116.984375 220.308594 116.507812 220.875 116.046875 221.363281 C 115.8125 221.605469 115.578125 221.828125 115.347656 222.039062 L 114.695312 222.636719 C 113.773438 223.484375 112.785156 224.195312 111.777344 224.953125 C 111.59375 225.066406 110.828125 224.53125 110.898438 224.300781 C 111.425781 223.007812 112.285156 221.925781 113.25 221.050781 C 114.308594 220.070312 115.488281 219.644531 116.34375 218.984375 C 116.472656 218.910156 117.320312 219.324219 117.257812 219.558594 Z M 110.1875 226.457031 C 109.917969 227.105469 109.519531 227.644531 109.121094 228.113281 C 108.71875 228.582031 108.292969 228.992188 107.925781 229.359375 C 107.757812 229.523438 107.53125 229.761719 107.308594 229.960938 C 107.085938 230.167969 106.855469 230.359375 106.625 230.539062 C 106.164062 230.90625 105.6875 231.238281 105.203125 231.582031 C 105.023438 231.683594 104.269531 231.136719 104.335938 230.917969 C 104.574219 230.316406 104.894531 229.757812 105.25 229.253906 C 105.425781 229 105.609375 228.761719 105.792969 228.53125 C 105.984375 228.300781 106.15625 228.09375 106.410156 227.835938 C 107.367188 226.902344 108.410156 226.417969 109.324219 225.8125 C 109.460938 225.742188 110.25 226.257812 110.1875 226.457031 Z M 73.25 215.984375 C 72.902344 216.027344 72.574219 216.136719 72.265625 216.273438 C 72.113281 216.351562 71.960938 216.429688 71.820312 216.527344 L 71.613281 216.671875 C 71.550781 216.71875 71.507812 216.753906 71.457031 216.796875 C 71.058594 217.117188 70.714844 217.425781 70.410156 217.640625 C 70.28125 217.738281 70.171875 217.796875 70.089844 217.835938 C 70.0625 217.773438 70.027344 217.714844 69.992188 217.652344 L 69.894531 217.398438 C 69.777344 217.074219 69.726562 216.734375 69.734375 216.367188 C 69.746094 215.632812 70.023438 214.851562 70.476562 214.1875 C 70.925781 213.519531 71.574219 212.980469 72.332031 212.71875 C 72.523438 212.644531 72.621094 212.398438 72.621094 212.144531 C 72.625 211.894531 72.445312 211.632812 72.113281 211.660156 C 71.015625 211.8125 70.011719 212.40625 69.277344 213.214844 C 68.542969 214.019531 68.003906 215.042969 67.863281 216.207031 C 67.789062 216.785156 67.824219 217.402344 67.988281 217.988281 L 68.117188 218.40625 C 68.183594 218.554688 68.25 218.707031 68.320312 218.855469 C 68.367188 218.933594 68.421875 219.019531 68.476562 219.097656 C 68.539062 219.179688 68.570312 219.253906 68.664062 219.339844 C 68.746094 219.425781 68.832031 219.507812 68.921875 219.582031 C 69.011719 219.660156 69.144531 219.730469 69.261719 219.792969 C 69.382812 219.859375 69.515625 219.894531 69.65625 219.925781 C 69.796875 219.957031 69.933594 219.976562 70.058594 219.96875 C 70.332031 219.96875 70.53125 219.910156 70.738281 219.851562 C 71.097656 219.722656 71.386719 219.554688 71.617188 219.394531 C 72.09375 219.070312 72.457031 218.742188 72.800781 218.46875 C 72.839844 218.4375 72.890625 218.394531 72.921875 218.375 L 73.007812 218.316406 C 73.058594 218.273438 73.125 218.246094 73.179688 218.210938 C 73.304688 218.160156 73.429688 218.113281 73.550781 218.09375 C 73.800781 218.054688 74.023438 218.089844 74.1875 218.191406 C 74.359375 218.285156 74.503906 218.46875 74.609375 218.75 C 74.722656 219.042969 74.75 219.355469 74.707031 219.636719 C 74.625 220.210938 74.132812 220.792969 73.46875 221.085938 C 72.808594 221.382812 72.019531 221.390625 71.464844 220.941406 C 71.277344 220.804688 71 220.816406 70.777344 220.949219 C 70.566406 221.074219 70.433594 221.378906 70.683594 221.707031 C 71.066406 222.160156 71.625 222.492188 72.210938 222.617188 C 72.800781 222.753906 73.40625 222.714844 73.972656 222.558594 C 74.539062 222.398438 75.078125 222.109375 75.535156 221.695312 C 75.761719 221.484375 75.964844 221.246094 76.140625 220.976562 C 76.308594 220.703125 76.445312 220.402344 76.539062 220.085938 C 76.710938 219.449219 76.699219 218.777344 76.523438 218.164062 C 76.355469 217.546875 75.972656 216.875 75.335938 216.453125 C 74.714844 216.019531 73.9375 215.890625 73.25 215.984375 Z M 70.019531 218.164062 C 70.019531 218.167969 70.019531 218.171875 70.015625 218.171875 C 70.011719 218.183594 70.015625 218.175781 70.019531 218.164062 Z M 118.398438 253.117188 C 117.914062 252.980469 117.453125 252.949219 117.007812 252.964844 C 116.566406 252.980469 116.132812 253.050781 115.710938 253.167969 C 115.316406 253.277344 114.960938 253.414062 114.671875 253.511719 L 114.671875 253.34375 C 114.667969 253.320312 114.679688 253.257812 114.6875 253.203125 C 114.710938 253.082031 114.753906 252.9375 114.804688 252.796875 C 114.90625 252.515625 115.035156 252.222656 115.183594 251.960938 C 115.332031 251.703125 115.511719 251.457031 115.667969 251.3125 C 115.746094 251.238281 115.808594 251.203125 115.828125 251.183594 C 115.851562 251.164062 115.875 251.136719 115.957031 251.175781 C 116.046875 251.207031 116.304688 251.140625 116.511719 250.992188 C 116.710938 250.851562 116.871094 250.597656 116.660156 250.355469 C 116.476562 250.15625 116.144531 249.984375 115.808594 249.976562 C 115.46875 249.964844 115.183594 250.070312 114.960938 250.1875 C 114.511719 250.433594 114.210938 250.738281 113.933594 251.054688 C 113.664062 251.375 113.433594 251.710938 113.234375 252.078125 C 113.132812 252.261719 113.042969 252.453125 112.960938 252.675781 C 112.917969 252.789062 112.878906 252.902344 112.851562 253.058594 C 112.832031 253.144531 112.828125 253.179688 112.820312 253.238281 L 112.796875 253.394531 L 112.773438 253.554688 L 112.765625 253.734375 C 112.757812 253.851562 112.753906 253.96875 112.769531 254.121094 C 112.777344 254.191406 112.78125 254.261719 112.792969 254.335938 C 112.8125 254.425781 112.835938 254.515625 112.863281 254.601562 C 112.878906 254.648438 112.886719 254.6875 112.914062 254.742188 C 112.9375 254.796875 112.96875 254.847656 113 254.902344 C 113.058594 255.007812 113.121094 255.109375 113.238281 255.214844 C 113.34375 255.3125 113.457031 255.410156 113.582031 255.464844 C 113.699219 255.523438 113.851562 255.589844 113.945312 255.601562 C 114.050781 255.621094 114.179688 255.644531 114.265625 255.644531 C 114.351562 255.648438 114.4375 255.644531 114.523438 255.640625 C 114.816406 255.617188 115.054688 255.5625 115.246094 255.507812 C 115.640625 255.402344 115.960938 255.296875 116.257812 255.226562 C 116.535156 255.160156 116.8125 255.121094 117.085938 255.109375 C 117.359375 255.097656 117.625 255.117188 117.835938 255.171875 C 118.046875 255.21875 118.175781 255.300781 118.222656 255.347656 C 118.269531 255.394531 118.316406 255.457031 118.332031 255.652344 C 118.332031 255.835938 118.289062 256.152344 118.210938 256.398438 C 118.132812 256.648438 118.03125 256.886719 117.890625 257.089844 C 117.75 257.289062 117.582031 257.457031 117.378906 257.578125 C 117.175781 257.699219 116.941406 257.785156 116.679688 257.804688 C 116.414062 257.824219 116.128906 257.785156 115.839844 257.699219 C 115.464844 257.589844 114.890625 258.339844 115.367188 258.6875 C 115.726562 258.902344 116.136719 259.070312 116.59375 259.144531 C 117.046875 259.214844 117.535156 259.167969 117.992188 259.007812 C 118.449219 258.847656 118.863281 258.570312 119.199219 258.234375 C 119.53125 257.890625 119.78125 257.492188 119.96875 257.078125 C 120.152344 256.65625 120.269531 256.269531 120.332031 255.734375 C 120.332031 255.597656 120.332031 255.457031 120.328125 255.320312 C 120.320312 255.179688 120.285156 255.023438 120.253906 254.878906 C 120.175781 254.578125 120.027344 254.28125 119.828125 254.023438 C 119.421875 253.511719 118.875 253.25 118.398438 253.117188 Z M 114.707031 253.941406 L 114.707031 253.9375 C 114.726562 253.929688 114.703125 253.941406 114.707031 253.941406 Z M 182.523438 224.890625 C 182.523438 224.890625 182.523438 224.886719 182.527344 224.886719 C 182.523438 224.890625 182.523438 224.890625 182.523438 224.890625 Z M 182.578125 224.828125 C 182.578125 224.824219 182.578125 224.824219 182.578125 224.824219 C 182.609375 224.8125 182.652344 224.808594 182.695312 224.8125 C 182.796875 224.816406 182.929688 224.835938 183.054688 224.828125 C 183.179688 224.824219 183.304688 224.785156 183.386719 224.675781 C 183.429688 224.621094 183.457031 224.550781 183.449219 224.457031 C 183.453125 224.363281 183.417969 224.261719 183.339844 224.160156 C 183.277344 224.070312 183.195312 224.007812 183.113281 223.945312 C 183.035156 223.898438 182.945312 223.839844 182.871094 223.8125 C 182.710938 223.746094 182.558594 223.710938 182.417969 223.695312 C 182.132812 223.660156 181.875 223.679688 181.621094 223.71875 C 181.363281 223.765625 181.117188 223.832031 180.839844 223.976562 C 180.59375 224.113281 180.378906 224.269531 180.183594 224.457031 C 179.796875 224.832031 179.523438 225.285156 179.332031 225.738281 C 179.144531 226.191406 179.027344 226.652344 178.953125 227.105469 C 178.894531 227.574219 178.8125 228.027344 178.9375 228.664062 C 178.960938 228.746094 178.984375 228.832031 179.011719 228.914062 C 179.039062 229 179.0625 229.082031 179.117188 229.175781 C 179.167969 229.269531 179.21875 229.359375 179.277344 229.449219 C 179.34375 229.539062 179.425781 229.625 179.507812 229.707031 C 179.84375 230.027344 180.304688 230.183594 180.617188 230.210938 C 181.285156 230.289062 181.726562 230.1875 182.160156 230.117188 L 183.328125 229.886719 C 183.996094 229.777344 184.785156 229.742188 185.308594 229.851562 C 185.378906 229.867188 185.4375 229.886719 185.480469 229.898438 C 185.453125 229.984375 185.414062 230.085938 185.347656 230.191406 C 185.046875 230.730469 184.542969 231.28125 183.980469 231.695312 C 183.417969 232.113281 182.769531 232.4375 182.132812 232.464844 C 181.929688 232.484375 181.753906 232.691406 181.679688 232.9375 C 181.601562 233.175781 181.691406 233.476562 182.027344 233.554688 C 182.519531 233.644531 183.015625 233.609375 183.480469 233.507812 C 183.941406 233.402344 184.378906 233.234375 184.789062 233.023438 C 185.609375 232.59375 186.339844 232.027344 186.933594 231.210938 C 187.082031 231.007812 187.222656 230.773438 187.335938 230.480469 C 187.445312 230.195312 187.546875 229.808594 187.449219 229.335938 C 187.40625 229.105469 187.296875 228.875 187.160156 228.683594 C 187.023438 228.5 186.859375 228.34375 186.707031 228.238281 C 186.394531 228.019531 186.101562 227.914062 185.835938 227.835938 C 185.296875 227.691406 184.820312 227.660156 184.351562 227.65625 C 183.882812 227.65625 183.4375 227.691406 182.96875 227.769531 C 182.71875 227.8125 182.535156 227.855469 182.328125 227.902344 L 181.75 228.027344 C 181.390625 228.109375 181.019531 228.164062 180.875 228.148438 C 180.871094 228.148438 180.867188 228.148438 180.863281 228.148438 C 180.8125 227.972656 180.808594 227.632812 180.820312 227.320312 C 180.855469 226.617188 180.996094 225.949219 181.320312 225.5 C 181.398438 225.390625 181.5 225.285156 181.597656 225.203125 C 181.664062 225.140625 181.804688 225.0625 181.941406 225.007812 C 182.078125 224.953125 182.226562 224.917969 182.347656 224.902344 C 182.410156 224.894531 182.460938 224.894531 182.492188 224.894531 C 182.515625 224.890625 182.511719 224.894531 182.523438 224.890625 C 182.523438 224.882812 182.582031 224.816406 182.578125 224.828125 Z M 185.507812 229.808594 C 185.503906 229.800781 185.503906 229.796875 185.5 229.789062 C 185.496094 229.726562 185.519531 229.742188 185.507812 229.808594 Z M 180.726562 228.367188 C 180.726562 228.371094 180.726562 228.371094 180.722656 228.371094 C 180.710938 228.382812 180.71875 228.375 180.726562 228.367188 Z M 180.910156 228.242188 C 180.90625 228.246094 180.90625 228.246094 180.902344 228.242188 C 180.910156 228.238281 180.914062 228.238281 180.910156 228.242188 Z M 162.390625 278.996094 C 162.382812 281.71875 163.226562 284.359375 164.074219 287.042969 C 164.5 288.386719 164.9375 289.753906 165.273438 291.179688 C 165.613281 292.601562 165.851562 294.089844 165.835938 295.625 C 165.832031 296.214844 165.347656 296.691406 164.753906 296.6875 C 164.546875 296.683594 164.351562 296.621094 164.1875 296.515625 L 164.171875 296.507812 C 161.738281 294.9375 159.109375 293.464844 156.617188 291.78125 C 155.363281 290.941406 154.132812 290.058594 152.957031 289.082031 C 151.789062 288.097656 150.648438 287.039062 149.78125 285.695312 C 149.328125 284.910156 150.183594 284.5 150.660156 285.066406 C 151.542969 286.132812 152.710938 287.019531 153.898438 287.84375 C 155.097656 288.667969 156.351562 289.429688 157.621094 290.179688 C 158.894531 290.925781 160.183594 291.652344 161.476562 292.386719 C 162.175781 292.789062 162.878906 293.191406 163.578125 293.609375 C 163.34375 291.628906 162.785156 289.609375 162.273438 287.554688 C 161.929688 286.175781 161.597656 284.765625 161.390625 283.320312 C 161.1875 281.878906 161.113281 280.390625 161.296875 278.921875 C 161.464844 277.898438 162.382812 278.070312 162.390625 278.996094 Z M 181.089844 273.816406 C 180.972656 274.417969 180.691406 274.773438 180.433594 275.121094 C 180.164062 275.457031 179.875 275.75 179.574219 276.019531 C 178.972656 276.554688 178.335938 277 177.671875 277.390625 C 176.355469 278.171875 174.921875 278.707031 173.507812 279.15625 C 173.265625 279.210938 172.738281 278.445312 172.925781 278.230469 C 174.074219 277.121094 175.320312 276.289062 176.585938 275.539062 C 177.214844 275.167969 177.859375 274.828125 178.480469 274.492188 C 178.792969 274.324219 179.097656 274.15625 179.382812 273.988281 C 179.660156 273.824219 179.929688 273.625 180.054688 273.507812 C 180.121094 273.523438 181.105469 273.386719 181.089844 273.816406 Z M 183.566406 278.445312 C 183.453125 278.984375 183.21875 279.390625 182.980469 279.804688 C 182.859375 280.003906 182.722656 280.183594 182.589844 280.375 C 182.453125 280.558594 182.304688 280.726562 182.160156 280.902344 C 181.5625 281.578125 180.898438 282.164062 180.179688 282.679688 C 179.464844 283.195312 178.691406 283.628906 177.871094 283.976562 C 177.042969 284.316406 176.179688 284.597656 175.199219 284.628906 C 174.851562 284.617188 174.78125 283.683594 174.988281 283.558594 C 175.652344 283.234375 176.320312 282.769531 176.972656 282.320312 C 177.628906 281.855469 178.28125 281.394531 178.933594 280.933594 C 179.585938 280.464844 180.238281 280.003906 180.875 279.535156 C 181.496094 279.066406 182.148438 278.570312 182.5625 278.054688 C 182.691406 277.933594 183.621094 278.128906 183.566406 278.445312 Z M 204.15625 266.886719 C 204.585938 267.222656 204.890625 267.753906 204.984375 268.234375 C 205.089844 268.714844 205.058594 269.152344 204.988281 269.535156 C 204.917969 269.921875 204.800781 270.273438 204.664062 270.597656 C 204.386719 271.25 204.03125 271.820312 203.644531 272.351562 C 203.449219 272.613281 203.230469 272.867188 203.019531 273.117188 C 202.785156 273.363281 202.550781 273.609375 202.277344 273.832031 C 201.746094 274.277344 201.078125 274.667969 200.332031 274.820312 C 199.582031 274.980469 198.839844 274.871094 198.203125 274.683594 C 197.558594 274.488281 196.980469 274.214844 196.433594 273.917969 C 195.710938 273.488281 196.148438 272.664062 196.886719 272.921875 C 197.972656 273.320312 199.105469 273.605469 199.953125 273.3125 C 200.796875 273.03125 201.5 272.21875 202.09375 271.28125 C 202.382812 270.820312 202.632812 270.339844 202.800781 269.871094 C 202.972656 269.414062 203.03125 268.925781 202.957031 268.710938 C 202.925781 268.597656 202.894531 268.589844 202.855469 268.550781 C 202.804688 268.519531 202.691406 268.46875 202.511719 268.445312 C 202.152344 268.394531 201.640625 268.457031 201.132812 268.578125 C 200.980469 268.613281 200.753906 268.707031 200.519531 268.820312 C 200.28125 268.9375 200.03125 269.074219 199.773438 269.214844 C 199.253906 269.5 198.714844 269.8125 198.101562 270.089844 C 197.796875 270.226562 197.472656 270.355469 197.109375 270.457031 C 196.742188 270.554688 196.328125 270.632812 195.835938 270.582031 C 195.351562 270.539062 194.785156 270.285156 194.4375 269.90625 C 194.085938 269.527344 193.90625 269.121094 193.792969 268.757812 C 193.730469 268.566406 193.699219 268.398438 193.65625 268.207031 C 193.632812 268 193.605469 267.789062 193.601562 267.585938 C 193.617188 267.382812 193.628906 267.171875 193.664062 266.976562 C 193.714844 266.785156 193.757812 266.585938 193.824219 266.402344 C 194.105469 265.671875 194.570312 265.085938 195.105469 264.625 C 195.644531 264.167969 196.257812 263.824219 196.929688 263.617188 C 197.59375 263.414062 198.335938 263.347656 199.050781 263.554688 C 199.25 263.609375 199.371094 263.753906 199.425781 263.871094 C 199.480469 264 199.464844 264.128906 199.410156 264.242188 C 199.292969 264.46875 199.054688 264.636719 198.808594 264.605469 C 197.871094 264.492188 196.839844 265.027344 196.164062 265.75 C 195.824219 266.113281 195.574219 266.539062 195.464844 266.949219 C 195.441406 267.054688 195.433594 267.152344 195.410156 267.253906 C 195.40625 267.351562 195.414062 267.449219 195.410156 267.542969 C 195.421875 267.636719 195.449219 267.726562 195.460938 267.816406 C 195.492188 267.917969 195.523438 268.046875 195.566406 268.136719 C 195.644531 268.339844 195.746094 268.484375 195.816406 268.539062 C 195.890625 268.589844 195.914062 268.589844 196.023438 268.597656 C 196.253906 268.613281 196.75 268.449219 197.21875 268.207031 C 197.695312 267.972656 198.195312 267.667969 198.726562 267.363281 C 198.992188 267.210938 199.265625 267.054688 199.570312 266.902344 C 199.875 266.753906 200.203125 266.597656 200.636719 266.492188 C 201.296875 266.34375 202 266.21875 202.835938 266.339844 C 203.25 266.40625 203.722656 266.550781 204.15625 266.886719 Z M 206.933594 256.023438 C 207.03125 256.175781 207.101562 256.332031 207.167969 256.488281 C 207.433594 257.121094 207.53125 257.785156 207.472656 258.4375 C 207.414062 259.089844 207.195312 259.738281 206.820312 260.28125 C 206.449219 260.828125 205.925781 261.25 205.367188 261.515625 C 204.804688 261.792969 204.214844 261.890625 203.648438 261.9375 C 202.945312 261.941406 202.953125 261 203.488281 260.855469 C 203.933594 260.730469 204.363281 260.574219 204.695312 260.328125 C 205.035156 260.085938 205.292969 259.789062 205.453125 259.449219 C 205.785156 258.789062 205.746094 257.921875 205.40625 257.300781 C 205.242188 256.996094 205.011719 256.757812 204.824219 256.707031 C 204.734375 256.65625 204.648438 256.675781 204.558594 256.664062 C 204.507812 256.683594 204.464844 256.679688 204.40625 256.703125 C 204.347656 256.738281 204.292969 256.730469 204.226562 256.78125 C 203.96875 256.914062 203.667969 257.167969 203.402344 257.5 C 203.257812 257.648438 203.136719 257.847656 203.003906 258.019531 C 202.875 258.207031 202.757812 258.410156 202.632812 258.601562 L 202.589844 258.667969 C 202.269531 259.160156 201.613281 259.300781 201.117188 258.980469 C 200.667969 258.6875 200.511719 258.113281 200.734375 257.640625 C 201.125 256.796875 201.339844 255.863281 201.324219 254.949219 C 201.152344 255.113281 200.988281 255.3125 200.851562 255.535156 C 200.472656 256.136719 200.210938 256.914062 200.203125 257.625 C 200.195312 257.734375 200.144531 257.816406 200.0625 257.894531 C 199.976562 257.972656 199.863281 258.039062 199.746094 258.078125 C 199.625 258.113281 199.496094 258.121094 199.382812 258.070312 C 199.265625 258.019531 199.164062 257.910156 199.132812 257.757812 C 199.035156 257.25 199.039062 256.757812 199.101562 256.269531 C 199.167969 255.785156 199.300781 255.300781 199.503906 254.835938 C 199.890625 253.910156 200.683594 253.03125 201.757812 252.617188 C 202.210938 252.441406 202.71875 252.667969 202.894531 253.121094 L 202.898438 253.128906 L 202.925781 253.207031 C 203.125 253.75 203.246094 254.3125 203.296875 254.878906 C 203.300781 254.875 203.308594 254.871094 203.3125 254.867188 C 203.464844 254.78125 203.675781 254.730469 203.855469 254.671875 C 204.042969 254.617188 204.261719 254.597656 204.464844 254.578125 C 204.886719 254.578125 205.332031 254.652344 205.699219 254.851562 C 205.898438 254.933594 206.046875 255.0625 206.214844 255.175781 C 206.355469 255.304688 206.507812 255.4375 206.621094 255.582031 C 206.734375 255.726562 206.851562 255.871094 206.933594 256.023438 Z M 206.933594 256.023438 " fill-opacity="1" fill-rule="nonzero"/></g></g></g></g><g fill="#000000" fill-opacity="1"><g transform="translate(170.842595, 343.047159)"><g><path d="M 9.171875 0 L 3.703125 0 L 3.703125 -28.515625 L 10.15625 -28.515625 L 21.609375 -10.140625 L 22.109375 -10.21875 L 22.109375 -28.515625 L 27.53125 -28.515625 L 27.53125 0 L 21.765625 0 L 9.65625 -19.625 L 9.171875 -19.546875 Z M 9.171875 0 "/></g></g></g><g fill="#000000" fill-opacity="1"><g transform="translate(202.101827, 343.047159)"><g><path d="M 9.84375 0.40625 C 7.425781 0.40625 5.640625 -0.25 4.484375 -1.5625 C 3.335938 -2.882812 2.765625 -4.78125 2.765625 -7.25 L 2.765625 -21.515625 L 8.171875 -21.515625 L 8.171875 -7.9375 C 8.171875 -6.625 8.453125 -5.664062 9.015625 -5.0625 C 9.585938 -4.457031 10.460938 -4.15625 11.640625 -4.15625 C 13.140625 -4.15625 14.300781 -4.644531 15.125 -5.625 C 15.957031 -6.601562 16.375 -8.144531 16.375 -10.25 L 16.375 -21.515625 L 21.78125 -21.515625 L 21.78125 0 L 16.59375 0 L 16.59375 -3.15625 L 16.1875 -3.25 C 15.5 -2.019531 14.65625 -1.101562 13.65625 -0.5 C 12.664062 0.101562 11.394531 0.40625 9.84375 0.40625 Z M 9.84375 0.40625 "/></g></g></g><g fill="#000000" fill-opacity="1"><g transform="translate(226.984404, 343.047159)"><g><path d="M 3.09375 0 L 3.09375 -21.515625 L 8.28125 -21.515625 L 8.28125 -18.625 L 8.703125 -18.546875 C 9.398438 -19.703125 10.21875 -20.550781 11.15625 -21.09375 C 12.101562 -21.644531 13.3125 -21.921875 14.78125 -21.921875 C 16.40625 -21.921875 17.710938 -21.597656 18.703125 -20.953125 C 19.691406 -20.304688 20.410156 -19.367188 20.859375 -18.140625 L 21.28125 -18.140625 C 21.9375 -19.421875 22.785156 -20.367188 23.828125 -20.984375 C 24.878906 -21.609375 26.1875 -21.921875 27.75 -21.921875 C 32.207031 -21.921875 34.4375 -19.4375 34.4375 -14.46875 L 34.4375 0 L 29.03125 0 L 29.03125 -13.78125 C 29.03125 -15.039062 28.78125 -15.953125 28.28125 -16.515625 C 27.789062 -17.078125 27.003906 -17.359375 25.921875 -17.359375 C 22.953125 -17.359375 21.46875 -15.375 21.46875 -11.40625 L 21.46875 0 L 16.0625 0 L 16.0625 -13.78125 C 16.0625 -15.039062 15.8125 -15.953125 15.3125 -16.515625 C 14.8125 -17.078125 14.015625 -17.359375 12.921875 -17.359375 C 11.535156 -17.359375 10.453125 -16.890625 9.671875 -15.953125 C 8.890625 -15.023438 8.5 -13.550781 8.5 -11.53125 L 8.5 0 Z M 3.09375 0 "/></g></g></g><g fill="#000000" fill-opacity="1"><g transform="translate(264.191267, 343.047159)"><g><path d="M 15.03125 0.40625 C 12.289062 0.40625 10.25 -0.617188 8.90625 -2.671875 L 8.5 -2.59375 L 8.5 0 L 3.09375 0 L 3.09375 -30.140625 L 8.5 -30.140625 L 8.5 -18.96875 L 8.90625 -18.890625 C 9.644531 -19.921875 10.519531 -20.679688 11.53125 -21.171875 C 12.539062 -21.671875 13.75 -21.921875 15.15625 -21.921875 C 16.894531 -21.921875 18.414062 -21.507812 19.71875 -20.6875 C 21.019531 -19.875 22.03125 -18.628906 22.75 -16.953125 C 23.476562 -15.285156 23.84375 -13.21875 23.84375 -10.75 C 23.84375 -8.300781 23.46875 -6.238281 22.71875 -4.5625 C 21.96875 -2.894531 20.925781 -1.648438 19.59375 -0.828125 C 18.269531 -0.00390625 16.75 0.40625 15.03125 0.40625 Z M 13.390625 -4.171875 C 14.984375 -4.171875 16.191406 -4.703125 17.015625 -5.765625 C 17.847656 -6.828125 18.265625 -8.488281 18.265625 -10.75 C 18.265625 -13.019531 17.847656 -14.6875 17.015625 -15.75 C 16.191406 -16.8125 14.984375 -17.34375 13.390625 -17.34375 C 11.867188 -17.34375 10.660156 -16.796875 9.765625 -15.703125 C 8.878906 -14.609375 8.4375 -12.957031 8.4375 -10.75 C 8.4375 -8.539062 8.878906 -6.890625 9.765625 -5.796875 C 10.660156 -4.710938 11.867188 -4.171875 13.390625 -4.171875 Z M 13.390625 -4.171875 "/></g></g></g><g fill="#000000" fill-opacity="1"><g transform="translate(289.951371, 343.047159)"><g><path d="M 21.25 -9.53125 L 7.4375 -9.53125 C 7.582031 -7.664062 8.109375 -6.304688 9.015625 -5.453125 C 9.929688 -4.597656 11.175781 -4.171875 12.75 -4.171875 C 13.988281 -4.171875 14.988281 -4.398438 15.75 -4.859375 C 16.519531 -5.328125 17.140625 -6.03125 17.609375 -6.96875 L 18.015625 -6.96875 L 21.609375 -4.65625 C 20.898438 -3.15625 19.835938 -1.9375 18.421875 -1 C 17.003906 -0.0625 15.113281 0.40625 12.75 0.40625 C 10.53125 0.40625 8.609375 -0.015625 6.984375 -0.859375 C 5.367188 -1.703125 4.125 -2.957031 3.25 -4.625 C 2.375 -6.300781 1.9375 -8.34375 1.9375 -10.75 C 1.9375 -13.1875 2.394531 -15.242188 3.3125 -16.921875 C 4.238281 -18.597656 5.488281 -19.847656 7.0625 -20.671875 C 8.632812 -21.503906 10.398438 -21.921875 12.359375 -21.921875 C 15.398438 -21.921875 17.726562 -21.113281 19.34375 -19.5 C 20.96875 -17.882812 21.78125 -15.519531 21.78125 -12.40625 C 21.78125 -11.269531 21.742188 -10.390625 21.671875 -9.765625 Z M 16.609375 -13.03125 C 16.554688 -14.664062 16.175781 -15.851562 15.46875 -16.59375 C 14.757812 -17.34375 13.722656 -17.71875 12.359375 -17.71875 C 9.628906 -17.71875 8.023438 -16.15625 7.546875 -13.03125 Z M 16.609375 -13.03125 "/></g></g></g><g fill="#000000" fill-opacity="1"><g transform="translate(313.332419, 343.047159)"><g><path d="M 3.09375 0 L 3.09375 -21.515625 L 8.34375 -21.515625 L 8.34375 -18.3125 L 8.75 -18.234375 C 9.269531 -19.429688 9.953125 -20.304688 10.796875 -20.859375 C 11.648438 -21.421875 12.679688 -21.703125 13.890625 -21.703125 C 15.109375 -21.703125 16.035156 -21.492188 16.671875 -21.078125 L 15.75 -16.421875 L 15.34375 -16.34375 C 15 -16.488281 14.660156 -16.59375 14.328125 -16.65625 C 14.003906 -16.71875 13.609375 -16.75 13.140625 -16.75 C 11.628906 -16.75 10.476562 -16.21875 9.6875 -15.15625 C 8.894531 -14.101562 8.5 -12.40625 8.5 -10.0625 L 8.5 0 Z M 3.09375 0 "/></g></g></g><g fill="#000000" fill-opacity="1"><g transform="translate(330.200316, 343.047159)"><g/></g></g><g fill="#000000" fill-opacity="1"><g transform="translate(339.61904, 343.047159)"><g><path d="M 12.640625 0.40625 C 10.660156 0.40625 8.898438 0.164062 7.359375 -0.3125 C 5.816406 -0.800781 4.53125 -1.441406 3.5 -2.234375 C 2.476562 -3.035156 1.695312 -3.910156 1.15625 -4.859375 L 4.25 -8.640625 L 4.734375 -8.640625 C 5.597656 -7.367188 6.6875 -6.351562 8 -5.59375 C 9.320312 -4.84375 10.867188 -4.46875 12.640625 -4.46875 C 14.148438 -4.46875 15.285156 -4.785156 16.046875 -5.421875 C 16.816406 -6.054688 17.203125 -6.929688 17.203125 -8.046875 C 17.203125 -8.722656 17.078125 -9.289062 16.828125 -9.75 C 16.578125 -10.207031 16.164062 -10.597656 15.59375 -10.921875 C 15.03125 -11.242188 14.257812 -11.523438 13.28125 -11.765625 L 9.609375 -12.59375 C 7.046875 -13.175781 5.140625 -14.144531 3.890625 -15.5 C 2.640625 -16.863281 2.015625 -18.632812 2.015625 -20.8125 C 2.015625 -22.414062 2.414062 -23.828125 3.21875 -25.046875 C 4.019531 -26.273438 5.191406 -27.226562 6.734375 -27.90625 C 8.273438 -28.582031 10.117188 -28.921875 12.265625 -28.921875 C 14.460938 -28.921875 16.34375 -28.628906 17.90625 -28.046875 C 19.476562 -27.472656 20.800781 -26.585938 21.875 -25.390625 L 19.09375 -21.5625 L 18.609375 -21.5625 C 17.796875 -22.40625 16.867188 -23.039062 15.828125 -23.46875 C 14.796875 -23.894531 13.609375 -24.109375 12.265625 -24.109375 C 10.722656 -24.109375 9.546875 -23.832031 8.734375 -23.28125 C 7.929688 -22.738281 7.53125 -21.984375 7.53125 -21.015625 C 7.53125 -20.117188 7.8125 -19.40625 8.375 -18.875 C 8.9375 -18.34375 9.914062 -17.925781 11.3125 -17.625 L 15.046875 -16.84375 C 17.816406 -16.257812 19.828125 -15.269531 21.078125 -13.875 C 22.328125 -12.476562 22.953125 -10.65625 22.953125 -8.40625 C 22.953125 -6.625 22.566406 -5.070312 21.796875 -3.75 C 21.035156 -2.4375 19.878906 -1.414062 18.328125 -0.6875 C 16.785156 0.0390625 14.890625 0.40625 12.640625 0.40625 Z M 12.640625 0.40625 "/></g></g></g><g fill="#000000" fill-opacity="1"><g transform="translate(364.111608, 343.047159)"><g><path d="M 4.765625 9.125 C 3.835938 9.125 3 9.050781 2.25 8.90625 C 1.5 8.769531 0.890625 8.582031 0.421875 8.34375 L 1.28125 3.984375 L 1.640625 3.859375 C 1.960938 4.023438 2.363281 4.160156 2.84375 4.265625 C 3.320312 4.367188 3.816406 4.421875 4.328125 4.421875 C 5.203125 4.421875 5.925781 4.304688 6.5 4.078125 C 7.082031 3.859375 7.570312 3.484375 7.96875 2.953125 C 8.375 2.429688 8.734375 1.703125 9.046875 0.765625 L 0.46875 -21.515625 L 6.125 -21.515625 L 11.46875 -6.546875 L 11.9375 -6.546875 L 17.140625 -21.515625 L 22.640625 -21.515625 L 14 1.34375 C 13.3125 3.1875 12.550781 4.671875 11.71875 5.796875 C 10.894531 6.921875 9.921875 7.753906 8.796875 8.296875 C 7.679688 8.847656 6.335938 9.125 4.765625 9.125 Z M 4.765625 9.125 "/></g></g></g><g fill="#000000" fill-opacity="1"><g transform="translate(387.200143, 343.047159)"><g><path d="M 10.0625 0.40625 C 8.59375 0.40625 7.242188 0.234375 6.015625 -0.109375 C 4.796875 -0.453125 3.753906 -0.925781 2.890625 -1.53125 C 2.023438 -2.132812 1.382812 -2.828125 0.96875 -3.609375 L 3.984375 -6.84375 L 4.390625 -6.84375 C 5.097656 -5.882812 5.941406 -5.160156 6.921875 -4.671875 C 7.898438 -4.191406 8.957031 -3.953125 10.09375 -3.953125 C 11.15625 -3.953125 11.953125 -4.140625 12.484375 -4.515625 C 13.015625 -4.898438 13.28125 -5.441406 13.28125 -6.140625 C 13.28125 -6.691406 13.085938 -7.148438 12.703125 -7.515625 C 12.316406 -7.890625 11.695312 -8.179688 10.84375 -8.390625 L 8 -9.0625 C 5.863281 -9.570312 4.304688 -10.347656 3.328125 -11.390625 C 2.347656 -12.441406 1.859375 -13.773438 1.859375 -15.390625 C 1.859375 -16.722656 2.195312 -17.882812 2.875 -18.875 C 3.5625 -19.863281 4.523438 -20.617188 5.765625 -21.140625 C 7.003906 -21.660156 8.445312 -21.921875 10.09375 -21.921875 C 12.03125 -21.921875 13.632812 -21.640625 14.90625 -21.078125 C 16.1875 -20.515625 17.1875 -19.769531 17.90625 -18.84375 L 15.015625 -15.71875 L 14.625 -15.71875 C 14.03125 -16.394531 13.359375 -16.890625 12.609375 -17.203125 C 11.859375 -17.515625 11.019531 -17.671875 10.09375 -17.671875 C 7.96875 -17.671875 6.90625 -17.003906 6.90625 -15.671875 C 6.90625 -15.117188 7.101562 -14.664062 7.5 -14.3125 C 7.894531 -13.957031 8.59375 -13.671875 9.59375 -13.453125 L 12.25 -12.875 C 14.425781 -12.40625 16.019531 -11.648438 17.03125 -10.609375 C 18.039062 -9.578125 18.546875 -8.191406 18.546875 -6.453125 C 18.546875 -5.085938 18.207031 -3.882812 17.53125 -2.84375 C 16.851562 -1.800781 15.875 -1 14.59375 -0.4375 C 13.320312 0.125 11.8125 0.40625 10.0625 0.40625 Z M 10.0625 0.40625 "/></g></g></g><g fill="#000000" fill-opacity="1"><g transform="translate(407.032121, 343.047159)"><g><path d="M 14.84375 -5.125 L 16.25 -1.125 C 15.65625 -0.644531 14.914062 -0.269531 14.03125 0 C 13.15625 0.269531 12.15625 0.40625 11.03125 0.40625 C 8.707031 0.40625 6.941406 -0.222656 5.734375 -1.484375 C 4.523438 -2.753906 3.921875 -4.597656 3.921875 -7.015625 L 3.921875 -17.234375 L 0.640625 -17.234375 L 0.640625 -21.53125 L 3.921875 -21.53125 L 3.921875 -25.71875 L 9.328125 -26.59375 L 9.328125 -21.53125 L 15.421875 -21.53125 L 15.421875 -17.234375 L 9.328125 -17.234375 L 9.328125 -7.40625 C 9.328125 -6.34375 9.546875 -5.566406 9.984375 -5.078125 C 10.421875 -4.585938 11.066406 -4.34375 11.921875 -4.34375 C 12.878906 -4.34375 13.71875 -4.601562 14.4375 -5.125 Z M 14.84375 -5.125 "/></g></g></g><g fill="#000000" fill-opacity="1"><g transform="translate(423.744026, 343.047159)"><g><path d="M 21.25 -9.53125 L 7.4375 -9.53125 C 7.582031 -7.664062 8.109375 -6.304688 9.015625 -5.453125 C 9.929688 -4.597656 11.175781 -4.171875 12.75 -4.171875 C 13.988281 -4.171875 14.988281 -4.398438 15.75 -4.859375 C 16.519531 -5.328125 17.140625 -6.03125 17.609375 -6.96875 L 18.015625 -6.96875 L 21.609375 -4.65625 C 20.898438 -3.15625 19.835938 -1.9375 18.421875 -1 C 17.003906 -0.0625 15.113281 0.40625 12.75 0.40625 C 10.53125 0.40625 8.609375 -0.015625 6.984375 -0.859375 C 5.367188 -1.703125 4.125 -2.957031 3.25 -4.625 C 2.375 -6.300781 1.9375 -8.34375 1.9375 -10.75 C 1.9375 -13.1875 2.394531 -15.242188 3.3125 -16.921875 C 4.238281 -18.597656 5.488281 -19.847656 7.0625 -20.671875 C 8.632812 -21.503906 10.398438 -21.921875 12.359375 -21.921875 C 15.398438 -21.921875 17.726562 -21.113281 19.34375 -19.5 C 20.96875 -17.882812 21.78125 -15.519531 21.78125 -12.40625 C 21.78125 -11.269531 21.742188 -10.390625 21.671875 -9.765625 Z M 16.609375 -13.03125 C 16.554688 -14.664062 16.175781 -15.851562 15.46875 -16.59375 C 14.757812 -17.34375 13.722656 -17.71875 12.359375 -17.71875 C 9.628906 -17.71875 8.023438 -16.15625 7.546875 -13.03125 Z M 16.609375 -13.03125 "/></g></g></g><g fill="#000000" fill-opacity="1"><g transform="translate(447.125074, 343.047159)"><g><path d="M 3.09375 0 L 3.09375 -21.515625 L 8.28125 -21.515625 L 8.28125 -18.625 L 8.703125 -18.546875 C 9.398438 -19.703125 10.21875 -20.550781 11.15625 -21.09375 C 12.101562 -21.644531 13.3125 -21.921875 14.78125 -21.921875 C 16.40625 -21.921875 17.710938 -21.597656 18.703125 -20.953125 C 19.691406 -20.304688 20.410156 -19.367188 20.859375 -18.140625 L 21.28125 -18.140625 C 21.9375 -19.421875 22.785156 -20.367188 23.828125 -20.984375 C 24.878906 -21.609375 26.1875 -21.921875 27.75 -21.921875 C 32.207031 -21.921875 34.4375 -19.4375 34.4375 -14.46875 L 34.4375 0 L 29.03125 0 L 29.03125 -13.78125 C 29.03125 -15.039062 28.78125 -15.953125 28.28125 -16.515625 C 27.789062 -17.078125 27.003906 -17.359375 25.921875 -17.359375 C 22.953125 -17.359375 21.46875 -15.375 21.46875 -11.40625 L 21.46875 0 L 16.0625 0 L 16.0625 -13.78125 C 16.0625 -15.039062 15.8125 -15.953125 15.3125 -16.515625 C 14.8125 -17.078125 14.015625 -17.359375 12.921875 -17.359375 C 11.535156 -17.359375 10.453125 -16.890625 9.671875 -15.953125 C 8.890625 -15.023438 8.5 -13.550781 8.5 -11.53125 L 8.5 0 Z M 3.09375 0 "/></g></g></g><g fill="#000000" fill-opacity="1"><g transform="translate(484.331937, 343.047159)"><g><path d="M 10.0625 0.40625 C 8.59375 0.40625 7.242188 0.234375 6.015625 -0.109375 C 4.796875 -0.453125 3.753906 -0.925781 2.890625 -1.53125 C 2.023438 -2.132812 1.382812 -2.828125 0.96875 -3.609375 L 3.984375 -6.84375 L 4.390625 -6.84375 C 5.097656 -5.882812 5.941406 -5.160156 6.921875 -4.671875 C 7.898438 -4.191406 8.957031 -3.953125 10.09375 -3.953125 C 11.15625 -3.953125 11.953125 -4.140625 12.484375 -4.515625 C 13.015625 -4.898438 13.28125 -5.441406 13.28125 -6.140625 C 13.28125 -6.691406 13.085938 -7.148438 12.703125 -7.515625 C 12.316406 -7.890625 11.695312 -8.179688 10.84375 -8.390625 L 8 -9.0625 C 5.863281 -9.570312 4.304688 -10.347656 3.328125 -11.390625 C 2.347656 -12.441406 1.859375 -13.773438 1.859375 -15.390625 C 1.859375 -16.722656 2.195312 -17.882812 2.875 -18.875 C 3.5625 -19.863281 4.523438 -20.617188 5.765625 -21.140625 C 7.003906 -21.660156 8.445312 -21.921875 10.09375 -21.921875 C 12.03125 -21.921875 13.632812 -21.640625 14.90625 -21.078125 C 16.1875 -20.515625 17.1875 -19.769531 17.90625 -18.84375 L 15.015625 -15.71875 L 14.625 -15.71875 C 14.03125 -16.394531 13.359375 -16.890625 12.609375 -17.203125 C 11.859375 -17.515625 11.019531 -17.671875 10.09375 -17.671875 C 7.96875 -17.671875 6.90625 -17.003906 6.90625 -15.671875 C 6.90625 -15.117188 7.101562 -14.664062 7.5 -14.3125 C 7.894531 -13.957031 8.59375 -13.671875 9.59375 -13.453125 L 12.25 -12.875 C 14.425781 -12.40625 16.019531 -11.648438 17.03125 -10.609375 C 18.039062 -9.578125 18.546875 -8.191406 18.546875 -6.453125 C 18.546875 -5.085938 18.207031 -3.882812 17.53125 -2.84375 C 16.851562 -1.800781 15.875 -1 14.59375 -0.4375 C 13.320312 0.125 11.8125 0.40625 10.0625 0.40625 Z M 10.0625 0.40625 "/></g></g></g></svg>