<svg xmlns="http://www.w3.org/2000/svg" xmlns:xlink="http://www.w3.org/1999/xlink" width="900" zoomAndPan="magnify" viewBox="0 0 675 675.000002" height="900" preserveAspectRatio="xMidYMid meet" version="1.0"><defs><g/><clipPath id="1d8adcfa68"><path d="M 0.5 0 L 674.5 0 L 674.5 674 L 0.5 674 Z M 0.5 0 " clip-rule="nonzero"/></clipPath><clipPath id="699b546bab"><path d="M 475 344 L 550 344 L 550 560 L 475 560 Z M 475 344 " clip-rule="nonzero"/></clipPath><clipPath id="7391b69ee4"><path d="M 367.054688 405.78125 L 565.863281 328.128906 L 647.875 538.097656 L 449.066406 615.75 Z M 367.054688 405.78125 " clip-rule="nonzero"/></clipPath><clipPath id="e7201abfef"><path d="M 367.054688 405.78125 L 565.863281 328.128906 L 647.875 538.097656 L 449.066406 615.75 Z M 367.054688 405.78125 " clip-rule="nonzero"/></clipPath><clipPath id="b55f6b57de"><path d="M 367.054688 405.78125 L 565.863281 328.128906 L 647.875 538.097656 L 449.066406 615.75 Z M 367.054688 405.78125 " clip-rule="nonzero"/></clipPath><clipPath id="8b328b9277"><path d="M 489 359 L 547 359 L 547 547 L 489 547 Z M 489 359 " clip-rule="nonzero"/></clipPath><clipPath id="1a64a39046"><path d="M 367.054688 405.78125 L 565.863281 328.128906 L 647.875 538.097656 L 449.066406 615.75 Z M 367.054688 405.78125 " clip-rule="nonzero"/></clipPath><clipPath id="483f3527ba"><path d="M 367.054688 405.78125 L 565.863281 328.128906 L 647.875 538.097656 L 449.066406 615.75 Z M 367.054688 405.78125 " clip-rule="nonzero"/></clipPath><clipPath id="a8529fec29"><path d="M 367.054688 405.78125 L 565.863281 328.128906 L 647.875 538.097656 L 449.066406 615.75 Z M 367.054688 405.78125 " clip-rule="nonzero"/></clipPath><clipPath id="58a695fa62"><path d="M 425 408 L 526 408 L 526 519 L 425 519 Z M 425 408 " clip-rule="nonzero"/></clipPath><clipPath id="1b9ede30a4"><path d="M 367.054688 405.78125 L 565.863281 328.128906 L 647.875 538.097656 L 449.066406 615.75 Z M 367.054688 405.78125 " clip-rule="nonzero"/></clipPath><clipPath id="c1de3f4f54"><path d="M 367.054688 405.78125 L 565.863281 328.128906 L 647.875 538.097656 L 449.066406 615.75 Z M 367.054688 405.78125 " clip-rule="nonzero"/></clipPath><clipPath id="953f35b5c8"><path d="M 367.054688 405.78125 L 565.863281 328.128906 L 647.875 538.097656 L 449.066406 615.75 Z M 367.054688 405.78125 " clip-rule="nonzero"/></clipPath><clipPath id="9d9f3e9a5c"><path d="M 426 408 L 513 408 L 513 509 L 426 509 Z M 426 408 " clip-rule="nonzero"/></clipPath><clipPath id="bcf6695125"><path d="M 367.054688 405.78125 L 565.863281 328.128906 L 647.875 538.097656 L 449.066406 615.75 Z M 367.054688 405.78125 " clip-rule="nonzero"/></clipPath><clipPath id="be260ea5d3"><path d="M 367.054688 405.78125 L 565.863281 328.128906 L 647.875 538.097656 L 449.066406 615.75 Z M 367.054688 405.78125 " clip-rule="nonzero"/></clipPath><clipPath id="5bf798a3ab"><path d="M 367.054688 405.78125 L 565.863281 328.128906 L 647.875 538.097656 L 449.066406 615.75 Z M 367.054688 405.78125 " clip-rule="nonzero"/></clipPath><clipPath id="00161631ee"><path d="M 487 380 L 612 380 L 612 531 L 487 531 Z M 487 380 " clip-rule="nonzero"/></clipPath><clipPath id="353f4c208a"><path d="M 367.054688 405.78125 L 565.863281 328.128906 L 647.875 538.097656 L 449.066406 615.75 Z M 367.054688 405.78125 " clip-rule="nonzero"/></clipPath><clipPath id="e2bf26dbd3"><path d="M 367.054688 405.78125 L 565.863281 328.128906 L 647.875 538.097656 L 449.066406 615.75 Z M 367.054688 405.78125 " clip-rule="nonzero"/></clipPath><clipPath id="402862f749"><path d="M 367.054688 405.78125 L 565.863281 328.128906 L 647.875 538.097656 L 449.066406 615.75 Z M 367.054688 405.78125 " clip-rule="nonzero"/></clipPath><clipPath id="360ffde114"><path d="M 577 467 L 601 467 L 601 506 L 577 506 Z M 577 467 " clip-rule="nonzero"/></clipPath><clipPath id="a082b98436"><path d="M 367.054688 405.78125 L 565.863281 328.128906 L 647.875 538.097656 L 449.066406 615.75 Z M 367.054688 405.78125 " clip-rule="nonzero"/></clipPath><clipPath id="d6553dfb99"><path d="M 367.054688 405.78125 L 565.863281 328.128906 L 647.875 538.097656 L 449.066406 615.75 Z M 367.054688 405.78125 " clip-rule="nonzero"/></clipPath><clipPath id="e4a4feecfb"><path d="M 367.054688 405.78125 L 565.863281 328.128906 L 647.875 538.097656 L 449.066406 615.75 Z M 367.054688 405.78125 " clip-rule="nonzero"/></clipPath><clipPath id="53035e65ac"><path d="M 503 427 L 593 427 L 593 519 L 503 519 Z M 503 427 " clip-rule="nonzero"/></clipPath><clipPath id="9a9da9aebb"><path d="M 367.054688 405.78125 L 565.863281 328.128906 L 647.875 538.097656 L 449.066406 615.75 Z M 367.054688 405.78125 " clip-rule="nonzero"/></clipPath><clipPath id="8b5d0f6b21"><path d="M 367.054688 405.78125 L 565.863281 328.128906 L 647.875 538.097656 L 449.066406 615.75 Z M 367.054688 405.78125 " clip-rule="nonzero"/></clipPath><clipPath id="eb6c41079d"><path d="M 367.054688 405.78125 L 565.863281 328.128906 L 647.875 538.097656 L 449.066406 615.75 Z M 367.054688 405.78125 " clip-rule="nonzero"/></clipPath><clipPath id="7d5a61e7de"><path d="M 509 439 L 609 439 L 609 528 L 509 528 Z M 509 439 " clip-rule="nonzero"/></clipPath><clipPath id="96ce34ecbd"><path d="M 367.054688 405.78125 L 565.863281 328.128906 L 647.875 538.097656 L 449.066406 615.75 Z M 367.054688 405.78125 " clip-rule="nonzero"/></clipPath><clipPath id="07e0f1ad03"><path d="M 367.054688 405.78125 L 565.863281 328.128906 L 647.875 538.097656 L 449.066406 615.75 Z M 367.054688 405.78125 " clip-rule="nonzero"/></clipPath><clipPath id="e6c94e0831"><path d="M 367.054688 405.78125 L 565.863281 328.128906 L 647.875 538.097656 L 449.066406 615.75 Z M 367.054688 405.78125 " clip-rule="nonzero"/></clipPath><clipPath id="228e3e4ec9"><path d="M 487 380 L 595 380 L 595 440 L 487 440 Z M 487 380 " clip-rule="nonzero"/></clipPath><clipPath id="84d67fa42e"><path d="M 367.054688 405.78125 L 565.863281 328.128906 L 647.875 538.097656 L 449.066406 615.75 Z M 367.054688 405.78125 " clip-rule="nonzero"/></clipPath><clipPath id="e5c335a489"><path d="M 367.054688 405.78125 L 565.863281 328.128906 L 647.875 538.097656 L 449.066406 615.75 Z M 367.054688 405.78125 " clip-rule="nonzero"/></clipPath><clipPath id="288df8b9db"><path d="M 367.054688 405.78125 L 565.863281 328.128906 L 647.875 538.097656 L 449.066406 615.75 Z M 367.054688 405.78125 " clip-rule="nonzero"/></clipPath><clipPath id="c9d044e324"><path d="M 497 392 L 584 392 L 584 429 L 497 429 Z M 497 392 " clip-rule="nonzero"/></clipPath><clipPath id="dc2d1e4abf"><path d="M 367.054688 405.78125 L 565.863281 328.128906 L 647.875 538.097656 L 449.066406 615.75 Z M 367.054688 405.78125 " clip-rule="nonzero"/></clipPath><clipPath id="2a3db11008"><path d="M 367.054688 405.78125 L 565.863281 328.128906 L 647.875 538.097656 L 449.066406 615.75 Z M 367.054688 405.78125 " clip-rule="nonzero"/></clipPath><clipPath id="63eebe0c9f"><path d="M 367.054688 405.78125 L 565.863281 328.128906 L 647.875 538.097656 L 449.066406 615.75 Z M 367.054688 405.78125 " clip-rule="nonzero"/></clipPath><clipPath id="02ee26ac4e"><path d="M 483 570 L 504 570 L 504 595 L 483 595 Z M 483 570 " clip-rule="nonzero"/></clipPath><clipPath id="439244f0f1"><path d="M 367.054688 405.78125 L 565.863281 328.128906 L 647.875 538.097656 L 449.066406 615.75 Z M 367.054688 405.78125 " clip-rule="nonzero"/></clipPath><clipPath id="2e87896517"><path d="M 367.054688 405.78125 L 565.863281 328.128906 L 647.875 538.097656 L 449.066406 615.75 Z M 367.054688 405.78125 " clip-rule="nonzero"/></clipPath><clipPath id="8f7e7f6311"><path d="M 367.054688 405.78125 L 565.863281 328.128906 L 647.875 538.097656 L 449.066406 615.75 Z M 367.054688 405.78125 " clip-rule="nonzero"/></clipPath><clipPath id="8e444bd392"><path d="M 451 513 L 535 513 L 535 556 L 451 556 Z M 451 513 " clip-rule="nonzero"/></clipPath><clipPath id="0ac0bc2f66"><path d="M 367.054688 405.78125 L 565.863281 328.128906 L 647.875 538.097656 L 449.066406 615.75 Z M 367.054688 405.78125 " clip-rule="nonzero"/></clipPath><clipPath id="dbdbbddb34"><path d="M 367.054688 405.78125 L 565.863281 328.128906 L 647.875 538.097656 L 449.066406 615.75 Z M 367.054688 405.78125 " clip-rule="nonzero"/></clipPath><clipPath id="9834be5966"><path d="M 367.054688 405.78125 L 565.863281 328.128906 L 647.875 538.097656 L 449.066406 615.75 Z M 367.054688 405.78125 " clip-rule="nonzero"/></clipPath><clipPath id="f7b5d24504"><path d="M 431 509 L 524 509 L 524 588 L 431 588 Z M 431 509 " clip-rule="nonzero"/></clipPath><clipPath id="f9a23b4b94"><path d="M 367.054688 405.78125 L 565.863281 328.128906 L 647.875 538.097656 L 449.066406 615.75 Z M 367.054688 405.78125 " clip-rule="nonzero"/></clipPath><clipPath id="6616cd423e"><path d="M 367.054688 405.78125 L 565.863281 328.128906 L 647.875 538.097656 L 449.066406 615.75 Z M 367.054688 405.78125 " clip-rule="nonzero"/></clipPath><clipPath id="bd7708f386"><path d="M 367.054688 405.78125 L 565.863281 328.128906 L 647.875 538.097656 L 449.066406 615.75 Z M 367.054688 405.78125 " clip-rule="nonzero"/></clipPath><clipPath id="3a4bb4f8cf"><path d="M 402 489 L 446 489 L 446 523 L 402 523 Z M 402 489 " clip-rule="nonzero"/></clipPath><clipPath id="63fded6a0e"><path d="M 367.054688 405.78125 L 565.863281 328.128906 L 647.875 538.097656 L 449.066406 615.75 Z M 367.054688 405.78125 " clip-rule="nonzero"/></clipPath><clipPath id="4b38e91f3d"><path d="M 367.054688 405.78125 L 565.863281 328.128906 L 647.875 538.097656 L 449.066406 615.75 Z M 367.054688 405.78125 " clip-rule="nonzero"/></clipPath><clipPath id="d72b83956c"><path d="M 367.054688 405.78125 L 565.863281 328.128906 L 647.875 538.097656 L 449.066406 615.75 Z M 367.054688 405.78125 " clip-rule="nonzero"/></clipPath><clipPath id="75c2c7510a"><path d="M 507 536 L 520 536 L 520 549 L 507 549 Z M 507 536 " clip-rule="nonzero"/></clipPath><clipPath id="46c4805c2a"><path d="M 367.054688 405.78125 L 565.863281 328.128906 L 647.875 538.097656 L 449.066406 615.75 Z M 367.054688 405.78125 " clip-rule="nonzero"/></clipPath><clipPath id="ef2052f3c3"><path d="M 367.054688 405.78125 L 565.863281 328.128906 L 647.875 538.097656 L 449.066406 615.75 Z M 367.054688 405.78125 " clip-rule="nonzero"/></clipPath><clipPath id="a4ba553a01"><path d="M 367.054688 405.78125 L 565.863281 328.128906 L 647.875 538.097656 L 449.066406 615.75 Z M 367.054688 405.78125 " clip-rule="nonzero"/></clipPath><clipPath id="73a1776a5b"><path d="M 405 491 L 434 491 L 434 514 L 405 514 Z M 405 491 " clip-rule="nonzero"/></clipPath><clipPath id="8777989d93"><path d="M 367.054688 405.78125 L 565.863281 328.128906 L 647.875 538.097656 L 449.066406 615.75 Z M 367.054688 405.78125 " clip-rule="nonzero"/></clipPath><clipPath id="a819d308ad"><path d="M 367.054688 405.78125 L 565.863281 328.128906 L 647.875 538.097656 L 449.066406 615.75 Z M 367.054688 405.78125 " clip-rule="nonzero"/></clipPath><clipPath id="b971c1751a"><path d="M 367.054688 405.78125 L 565.863281 328.128906 L 647.875 538.097656 L 449.066406 615.75 Z M 367.054688 405.78125 " clip-rule="nonzero"/></clipPath><clipPath id="19425bd935"><path d="M 426 505 L 434 505 L 434 516 L 426 516 Z M 426 505 " clip-rule="nonzero"/></clipPath><clipPath id="0b85d47be6"><path d="M 367.054688 405.78125 L 565.863281 328.128906 L 647.875 538.097656 L 449.066406 615.75 Z M 367.054688 405.78125 " clip-rule="nonzero"/></clipPath><clipPath id="faa0bdfd0b"><path d="M 367.054688 405.78125 L 565.863281 328.128906 L 647.875 538.097656 L 449.066406 615.75 Z M 367.054688 405.78125 " clip-rule="nonzero"/></clipPath><clipPath id="7a6ed673c3"><path d="M 367.054688 405.78125 L 565.863281 328.128906 L 647.875 538.097656 L 449.066406 615.75 Z M 367.054688 405.78125 " clip-rule="nonzero"/></clipPath><clipPath id="f37c946a2f"><path d="M 454 527 L 476 527 L 476 544 L 454 544 Z M 454 527 " clip-rule="nonzero"/></clipPath><clipPath id="93bfe7abec"><path d="M 367.054688 405.78125 L 565.863281 328.128906 L 647.875 538.097656 L 449.066406 615.75 Z M 367.054688 405.78125 " clip-rule="nonzero"/></clipPath><clipPath id="28b7fca062"><path d="M 367.054688 405.78125 L 565.863281 328.128906 L 647.875 538.097656 L 449.066406 615.75 Z M 367.054688 405.78125 " clip-rule="nonzero"/></clipPath><clipPath id="922f209d96"><path d="M 367.054688 405.78125 L 565.863281 328.128906 L 647.875 538.097656 L 449.066406 615.75 Z M 367.054688 405.78125 " clip-rule="nonzero"/></clipPath><clipPath id="487be77aad"><path d="M 507 540 L 519 540 L 519 549 L 507 549 Z M 507 540 " clip-rule="nonzero"/></clipPath><clipPath id="b52d9283bb"><path d="M 367.054688 405.78125 L 565.863281 328.128906 L 647.875 538.097656 L 449.066406 615.75 Z M 367.054688 405.78125 " clip-rule="nonzero"/></clipPath><clipPath id="946e1fcdd7"><path d="M 367.054688 405.78125 L 565.863281 328.128906 L 647.875 538.097656 L 449.066406 615.75 Z M 367.054688 405.78125 " clip-rule="nonzero"/></clipPath><clipPath id="ec1dbb78a4"><path d="M 367.054688 405.78125 L 565.863281 328.128906 L 647.875 538.097656 L 449.066406 615.75 Z M 367.054688 405.78125 " clip-rule="nonzero"/></clipPath><clipPath id="a276441adb"><path d="M 63 130 L 208 130 L 208 297 L 63 297 Z M 63 130 " clip-rule="nonzero"/></clipPath><clipPath id="8d39852674"><path d="M 42.160156 171.484375 L 154.257812 109.574219 L 236.082031 257.730469 L 123.980469 319.640625 Z M 42.160156 171.484375 " clip-rule="nonzero"/></clipPath><clipPath id="c5e679cfb1"><path d="M 42.160156 171.484375 L 154.257812 109.574219 L 236.082031 257.730469 L 123.980469 319.640625 Z M 42.160156 171.484375 " clip-rule="nonzero"/></clipPath></defs><g clip-path="url(#1d8adcfa68)"><path fill="#ffffff" d="M 0.5 0 L 674.5 0 L 674.5 674 L 0.5 674 Z M 0.5 0 " fill-opacity="1" fill-rule="nonzero"/><path fill="#000000" d="M 0.5 0 L 674.5 0 L 674.5 674 L 0.5 674 Z M 0.5 0 " fill-opacity="1" fill-rule="nonzero"/></g><g clip-path="url(#699b546bab)"><g clip-path="url(#7391b69ee4)"><g clip-path="url(#e7201abfef)"><g clip-path="url(#b55f6b57de)"><path fill="#a7ddea" d="M 524.152344 344.421875 L 549.257812 350.273438 L 500.539062 559.175781 L 475.652344 552.328125 Z M 524.152344 344.421875 " fill-opacity="1" fill-rule="nonzero"/></g></g></g></g><g clip-path="url(#8b328b9277)"><g clip-path="url(#1a64a39046)"><g clip-path="url(#483f3527ba)"><g clip-path="url(#a8529fec29)"><path fill="#281c22" d="M 503.535156 546.289062 L 503.410156 546.742188 C 498.769531 545.722656 494.160156 544.644531 489.53125 543.523438 C 489.242188 543.433594 489.324219 542.996094 489.65625 543.070312 C 494.285156 544.191406 498.894531 545.269531 503.535156 546.289062 Z M 502.261719 526.480469 C 501.972656 526.390625 501.863281 526.886719 502.132812 526.933594 C 503.992188 527.417969 505.875 527.847656 507.695312 528.246094 L 507.820312 527.792969 C 506 527.394531 504.117188 526.964844 502.261719 526.480469 Z M 497.128906 506.105469 C 496.800781 506.035156 496.734375 506.515625 497.003906 506.558594 C 502.042969 507.570312 507.066406 508.539062 512.109375 509.550781 L 512.234375 509.097656 C 507.195312 508.085938 502.152344 507.074219 497.128906 506.105469 Z M 522.527344 396.882812 C 522.242188 396.792969 522.132812 397.289062 522.402344 397.335938 C 527.378906 398.574219 532.425781 399.734375 537.441406 400.804688 L 537.566406 400.351562 C 532.550781 399.28125 527.550781 398.101562 522.527344 396.882812 Z M 535.480469 380.40625 C 535.191406 380.316406 535.085938 380.8125 535.355469 380.859375 C 537.480469 381.394531 539.589844 381.882812 541.746094 382.355469 L 541.871094 381.902344 C 539.761719 381.414062 537.589844 380.894531 535.480469 380.40625 Z M 529.941406 359.890625 C 529.609375 359.816406 529.546875 360.296875 529.816406 360.34375 C 535.230469 361.410156 540.664062 362.523438 546.121094 363.570312 L 546.246094 363.117188 C 540.832031 362.050781 535.402344 360.941406 529.941406 359.890625 Z M 539.144531 371.296875 C 538.855469 371.207031 538.746094 371.707031 539.015625 371.75 C 540.691406 372.160156 542.332031 372.476562 543.96875 372.796875 L 544.09375 372.34375 C 542.414062 372.042969 540.757812 371.679688 539.144531 371.296875 Z M 535.058594 390.574219 C 536.566406 390.945312 538.09375 391.359375 539.601562 391.730469 L 539.726562 391.277344 C 538.21875 390.90625 536.691406 390.492188 535.183594 390.121094 C 534.878906 389.984375 534.769531 390.484375 535.058594 390.574219 Z M 506.003906 517.1875 C 505.671875 517.117188 505.605469 517.59375 505.875 517.640625 C 507.246094 517.914062 508.589844 518.25 509.957031 518.523438 L 510.082031 518.070312 C 508.757812 517.777344 507.390625 517.503906 506.003906 517.1875 Z M 501.445312 536.546875 C 501.132812 536.515625 501.050781 536.953125 501.320312 537 C 502.714844 537.210938 504.128906 537.46875 505.523438 537.679688 L 505.652344 537.226562 C 504.253906 537.015625 502.84375 536.757812 501.445312 536.546875 Z M 501.445312 536.546875 " fill-opacity="1" fill-rule="nonzero"/></g></g></g></g><g clip-path="url(#58a695fa62)"><g clip-path="url(#1b9ede30a4)"><g clip-path="url(#c1de3f4f54)"><g clip-path="url(#953f35b5c8)"><path fill="#f2da66" d="M 512.546875 412.953125 C 512.425781 412.898438 512.242188 412.820312 512.121094 412.765625 C 506.949219 410.644531 501.5625 409.261719 496.15625 408.597656 C 495.988281 408.558594 495.839844 408.566406 495.675781 408.53125 C 490.597656 407.9375 485.460938 407.976562 480.414062 408.632812 C 480.265625 408.640625 480.074219 408.664062 479.945312 408.714844 C 474.425781 409.457031 469.007812 410.964844 463.820312 413.195312 C 463.6875 413.246094 463.511719 413.3125 463.382812 413.367188 C 458.542969 415.457031 453.964844 418.207031 449.726562 421.578125 C 449.613281 421.671875 449.496094 421.769531 449.339844 421.878906 C 445.71875 424.761719 442.347656 428.148438 439.335938 431.949219 C 439.242188 432.089844 439.125 432.183594 439.027344 432.324219 C 436.082031 436.152344 433.621094 440.191406 431.675781 444.386719 C 431.578125 444.527344 431.542969 444.691406 431.488281 444.816406 C 429.265625 449.722656 427.722656 454.820312 426.808594 459.976562 C 426.773438 460.144531 426.734375 460.308594 426.742188 460.457031 C 425.832031 466.015625 425.65625 471.640625 426.25 477.167969 C 426.257812 477.316406 426.285156 477.507812 426.289062 477.65625 C 426.863281 482.738281 428.054688 487.726562 429.832031 492.539062 C 429.882812 492.667969 429.953125 492.84375 430.003906 492.976562 C 431.960938 498.121094 434.613281 503.097656 437.957031 507.652344 C 438.050781 507.765625 438.164062 507.921875 438.257812 508.039062 C 441.007812 511.710938 444.175781 515.171875 447.816406 518.296875 C 449.03125 519.335938 450.886719 519.167969 451.910156 517.910156 L 525.019531 423.6875 C 526.054688 422.324219 525.746094 420.375 524.355469 419.402344 C 520.578125 416.835938 516.59375 414.65625 512.546875 412.953125 Z M 453.300781 489.9375 C 439.96875 479.585938 441.195312 459.710938 453.636719 443.742188 C 466.0625 427.726562 484.976562 421.601562 498.308594 431.949219 Z M 453.300781 489.9375 " fill-opacity="1" fill-rule="nonzero"/></g></g></g></g><g clip-path="url(#9d9f3e9a5c)"><g clip-path="url(#bcf6695125)"><g clip-path="url(#be260ea5d3)"><g clip-path="url(#5bf798a3ab)"><path fill="#281c22" d="M 450.195312 440.488281 C 450.429688 440.699219 450.121094 441.074219 449.886719 440.863281 C 446.285156 437.972656 442.65625 435.148438 438.984375 432.339844 C 439.082031 432.199219 439.179688 432.0625 439.292969 431.964844 C 442.964844 434.777344 446.609375 437.644531 450.195312 440.488281 Z M 431.648438 444.449219 C 431.550781 444.589844 431.515625 444.753906 431.460938 444.875 C 434.609375 446.726562 437.753906 448.578125 440.929688 450.371094 C 441.1875 450.523438 441.375 450.09375 441.097656 449.902344 C 437.984375 448.136719 434.796875 446.300781 431.648438 444.449219 Z M 435.527344 462.785156 C 432.636719 461.84375 429.71875 460.964844 426.78125 460.039062 C 426.746094 460.203125 426.707031 460.371094 426.714844 460.519531 C 429.589844 461.417969 432.464844 462.3125 435.339844 463.210938 C 435.644531 463.34375 435.832031 462.917969 435.527344 462.785156 Z M 434.847656 476.941406 C 431.964844 477.058594 429.125 477.15625 426.242188 477.273438 C 426.25 477.421875 426.273438 477.613281 426.28125 477.761719 C 429.164062 477.644531 432.003906 477.546875 434.886719 477.429688 C 435.183594 477.414062 435.144531 476.925781 434.847656 476.941406 Z M 437.011719 489.984375 C 434.632812 490.867188 432.230469 491.703125 429.804688 492.597656 C 429.855469 492.730469 429.925781 492.90625 429.976562 493.039062 C 432.359375 492.15625 434.800781 491.304688 437.183594 490.425781 C 437.464844 490.363281 437.292969 489.925781 437.011719 489.984375 Z M 445.164062 502.714844 C 442.765625 504.457031 440.378906 506.097656 437.945312 507.753906 C 438.039062 507.871094 438.152344 508.027344 438.25 508.140625 C 440.699219 506.527344 443.113281 504.828125 445.511719 503.082031 C 445.742188 502.890625 445.4375 502.503906 445.164062 502.714844 Z M 449.296875 421.898438 C 451.949219 424.550781 454.554688 427.21875 457.164062 429.886719 C 457.398438 430.097656 457.785156 429.796875 457.550781 429.585938 C 454.941406 426.914062 452.335938 424.246094 449.683594 421.59375 C 449.570312 421.691406 449.453125 421.785156 449.296875 421.898438 Z M 463.355469 413.425781 C 464.976562 416.027344 466.613281 418.667969 468.234375 421.269531 C 468.398438 421.558594 468.785156 421.257812 468.621094 420.964844 C 467 418.367188 465.398438 415.8125 463.820312 413.195312 C 463.644531 413.261719 463.488281 413.375 463.355469 413.425781 Z M 479.917969 408.777344 C 480.503906 411.578125 481.121094 414.316406 481.710938 417.117188 C 481.769531 417.398438 482.257812 417.359375 482.199219 417.078125 C 481.609375 414.277344 480.996094 411.539062 480.40625 408.738281 C 480.242188 408.699219 480.09375 408.707031 479.917969 408.777344 Z M 495.648438 408.59375 C 495.402344 411.0625 495.152344 413.535156 494.933594 415.941406 C 494.90625 416.257812 495.386719 416.324219 495.414062 416.007812 C 495.660156 413.539062 495.90625 411.066406 496.109375 408.613281 C 495.960938 408.621094 495.796875 408.585938 495.648438 408.59375 Z M 512.078125 412.78125 C 511.0625 415.351562 509.984375 417.894531 508.941406 420.523438 C 508.851562 420.8125 509.277344 421 509.410156 420.695312 C 510.429688 418.125 511.546875 415.566406 512.546875 412.953125 C 512.382812 412.917969 512.242188 412.820312 512.078125 412.78125 Z M 512.078125 412.78125 " fill-opacity="1" fill-rule="nonzero"/></g></g></g></g><g clip-path="url(#00161631ee)"><g clip-path="url(#353f4c208a)"><g clip-path="url(#e2bf26dbd3)"><g clip-path="url(#402862f749)"><path fill="#e87b69" d="M 587.722656 386.570312 L 611.550781 505.109375 C 612.339844 508.941406 609.820312 512.703125 606.015625 513.433594 L 519.457031 530.824219 C 515.625 531.613281 511.863281 529.09375 511.132812 525.285156 L 487.304688 406.75 C 486.515625 402.917969 489.03125 399.15625 492.839844 398.425781 L 579.398438 381.035156 C 583.230469 380.246094 586.929688 382.738281 587.722656 386.570312 Z M 587.722656 386.570312 " fill-opacity="1" fill-rule="nonzero"/></g></g></g></g><g clip-path="url(#360ffde114)"><g clip-path="url(#a082b98436)"><g clip-path="url(#d6553dfb99)"><g clip-path="url(#e4a4feecfb)"><path fill="#d15081" d="M 578.910156 470.527344 L 592.164062 467.878906 C 593.28125 467.640625 594.378906 468.375 594.613281 469.496094 L 600.667969 499.863281 C 600.902344 500.984375 600.167969 502.078125 599.050781 502.3125 L 585.796875 504.964844 C 584.675781 505.199219 583.582031 504.464844 583.347656 503.34375 L 577.25 472.996094 C 577.054688 471.859375 577.789062 470.765625 578.910156 470.527344 Z M 578.910156 470.527344 " fill-opacity="1" fill-rule="nonzero"/></g></g></g></g><g clip-path="url(#53035e65ac)"><g clip-path="url(#9a9da9aebb)"><g clip-path="url(#8b5d0f6b21)"><g clip-path="url(#eb6c41079d)"><path fill="#f2da66" d="M 505.796875 443.371094 L 518.492188 440.835938 C 519.757812 440.59375 520.992188 441.425781 521.28125 442.675781 L 523.386719 453.117188 C 523.632812 454.386719 522.800781 455.621094 521.550781 455.90625 L 508.855469 458.441406 C 507.589844 458.683594 506.355469 457.851562 506.066406 456.601562 L 503.960938 446.160156 C 503.714844 444.890625 504.546875 443.65625 505.796875 443.371094 Z M 525.898438 441.582031 L 528.058594 452.40625 C 528.3125 453.570312 529.421875 454.347656 530.585938 454.09375 L 543.648438 451.46875 C 544.808594 451.214844 545.585938 450.105469 545.335938 448.941406 L 543.175781 438.117188 C 542.925781 436.953125 541.8125 436.171875 540.648438 436.425781 L 527.589844 439.050781 C 526.40625 439.261719 525.648438 440.417969 525.898438 441.582031 Z M 547.714844 437.707031 L 549.667969 447.5 C 549.980469 448.945312 551.371094 449.917969 552.816406 449.605469 L 564.84375 447.179688 C 566.285156 446.871094 567.257812 445.480469 566.945312 444.035156 L 564.988281 434.242188 C 564.679688 432.796875 563.289062 431.824219 561.84375 432.136719 L 549.816406 434.5625 C 548.355469 434.828125 547.402344 436.261719 547.714844 437.707031 Z M 569.3125 433.414062 L 571.269531 443.207031 C 571.578125 444.652344 572.96875 445.625 574.457031 445.292969 L 586.484375 442.871094 C 587.929688 442.558594 588.898438 441.167969 588.570312 439.679688 L 586.613281 429.886719 C 586.304688 428.445312 584.914062 427.472656 583.425781 427.800781 L 571.398438 430.226562 C 569.953125 430.535156 569.027344 431.910156 569.3125 433.414062 Z M 508.140625 466.953125 L 510.242188 477.496094 C 510.484375 478.765625 511.699219 479.554688 512.96875 479.3125 L 525.792969 476.726562 C 527.0625 476.484375 527.847656 475.269531 527.605469 474 L 525.507812 463.453125 C 525.265625 462.183594 524.046875 461.398438 522.777344 461.640625 L 509.953125 464.222656 C 508.6875 464.46875 507.898438 465.683594 508.140625 466.953125 Z M 530.140625 462.652344 L 532.199219 472.960938 C 532.460938 474.273438 533.753906 475.132812 535.066406 474.875 L 547.609375 472.347656 C 548.921875 472.085938 549.78125 470.792969 549.519531 469.480469 L 547.460938 459.171875 C 547.203125 457.859375 545.90625 457 544.597656 457.261719 L 532.050781 459.785156 C 530.695312 460.0625 529.839844 461.359375 530.140625 462.652344 Z M 551.726562 457.808594 L 554.011719 469.089844 C 554.214844 470.121094 555.246094 470.828125 556.28125 470.628906 L 569.8125 467.917969 C 570.84375 467.71875 571.550781 466.683594 571.351562 465.652344 L 569.066406 454.371094 C 568.863281 453.339844 567.828125 452.632812 566.796875 452.832031 L 553.265625 455.542969 C 552.234375 455.742188 551.527344 456.777344 551.726562 457.808594 Z M 573.359375 453.601562 L 575.585938 464.605469 C 575.820312 465.722656 576.917969 466.457031 578.035156 466.222656 L 591.289062 463.570312 C 592.410156 463.335938 593.140625 462.242188 592.90625 461.121094 L 590.679688 450.121094 C 590.445312 449 589.351562 448.265625 588.230469 448.503906 L 574.976562 451.152344 C 573.859375 451.386719 573.125 452.484375 573.359375 453.601562 Z M 512.054688 486.539062 L 514.070312 496.609375 C 514.347656 497.96875 515.722656 498.894531 517.078125 498.617188 L 529.386719 496.136719 C 530.742188 495.859375 531.667969 494.484375 531.390625 493.128906 L 529.375 483.054688 C 529.097656 481.699219 527.726562 480.769531 526.371094 481.046875 L 514.0625 483.53125 C 512.707031 483.808594 511.777344 485.179688 512.054688 486.539062 Z M 533.902344 481.589844 L 536.136719 492.738281 C 536.355469 493.816406 537.390625 494.523438 538.464844 494.304688 L 551.851562 491.605469 C 552.925781 491.386719 553.632812 490.351562 553.414062 489.273438 L 551.179688 478.125 C 550.960938 477.050781 549.929688 476.34375 548.851562 476.558594 L 535.46875 479.261719 C 534.390625 479.480469 533.683594 480.515625 533.902344 481.589844 Z M 555.703125 477.421875 L 557.886719 488.183594 C 558.140625 489.347656 559.25 490.128906 560.476562 489.902344 L 573.492188 487.292969 C 574.65625 487.039062 575.433594 485.929688 575.207031 484.703125 L 573.023438 473.9375 C 572.769531 472.773438 571.65625 471.996094 570.433594 472.222656 L 557.417969 474.832031 C 556.210938 475.101562 555.449219 476.257812 555.703125 477.421875 Z M 515.84375 505.414062 L 518.042969 516.476562 C 518.277344 517.597656 519.355469 518.285156 520.433594 518.066406 L 533.730469 515.402344 C 534.847656 515.164062 535.539062 514.085938 535.320312 513.011719 L 533.121094 501.949219 C 532.886719 500.828125 531.808594 500.140625 530.730469 500.355469 L 517.433594 503.023438 C 516.34375 503.199219 515.652344 504.277344 515.84375 505.414062 Z M 537.851562 501.011719 L 540.097656 512.054688 C 540.332031 513.175781 541.410156 513.867188 542.484375 513.648438 L 555.78125 510.980469 C 556.902344 510.742188 557.59375 509.667969 557.375 508.589844 L 555.128906 497.546875 C 554.894531 496.425781 553.816406 495.734375 552.742188 495.953125 L 539.445312 498.621094 C 538.308594 498.8125 537.617188 499.890625 537.851562 501.011719 Z M 559.554688 496.726562 L 561.75 507.640625 C 562 508.804688 563.09375 509.539062 564.257812 509.285156 L 577.40625 506.625 C 578.570312 506.371094 579.304688 505.277344 579.050781 504.113281 L 576.859375 493.199219 C 576.605469 492.035156 575.511719 491.300781 574.347656 491.554688 L 561.199219 494.214844 C 560.082031 494.449219 559.347656 495.546875 559.554688 496.726562 Z M 559.554688 496.726562 " fill-opacity="1" fill-rule="nonzero"/></g></g></g></g><g clip-path="url(#7d5a61e7de)"><g clip-path="url(#96ce34ecbd)"><g clip-path="url(#07e0f1ad03)"><g clip-path="url(#e6c94e0831)"><path fill="#281c22" d="M 608.199219 508.289062 C 608.476562 508.226562 608.5625 508.699219 608.238281 508.777344 C 601.5625 510.171875 594.886719 511.566406 588.273438 512.988281 C 564.757812 517.929688 541.242188 522.871094 517.769531 527.796875 C 517.488281 527.855469 517.40625 527.382812 517.730469 527.308594 C 524.40625 525.910156 531.078125 524.515625 537.695312 523.09375 C 561.167969 518.171875 584.683594 513.230469 608.199219 508.289062 Z M 599.554688 499.339844 C 594.410156 500.136719 589.339844 501.105469 584.289062 502.269531 C 584.007812 502.328125 584.050781 502.816406 584.328125 502.757812 C 589.378906 501.597656 594.496094 500.605469 599.59375 499.828125 C 599.917969 499.753906 599.851562 499.324219 599.554688 499.339844 Z M 577.480469 503.96875 C 572.957031 505.179688 568.433594 506.140625 563.816406 506.984375 C 563.535156 507.042969 563.558594 507.488281 563.855469 507.472656 C 568.488281 506.671875 573.101562 505.679688 577.625 504.46875 C 577.914062 504.304688 577.742188 503.867188 577.480469 503.96875 Z M 555.863281 508.472656 C 551.191406 509.4375 546.519531 510.40625 541.832031 511.328125 C 541.550781 511.386719 541.589844 511.875 541.871094 511.816406 C 546.542969 510.851562 551.214844 509.882812 555.902344 508.960938 C 556.167969 508.859375 556.144531 508.414062 555.863281 508.472656 Z M 533.976562 512.675781 C 529.097656 513.625 524.234375 514.613281 519.324219 515.621094 C 519.046875 515.679688 519.085938 516.171875 519.367188 516.109375 C 524.230469 515.121094 529.136719 514.113281 534.019531 513.167969 C 534.339844 513.089844 534.273438 512.660156 533.976562 512.675781 Z M 529.832031 492.878906 C 525.324219 494.136719 520.789062 495.199219 516.207031 496.128906 C 515.925781 496.1875 515.964844 496.679688 516.246094 496.621094 C 520.875 495.671875 525.449219 494.589844 529.976562 493.378906 C 530.265625 493.214844 530.09375 492.777344 529.832031 492.878906 Z M 551.035156 488.738281 C 547.042969 489.894531 543.015625 490.960938 538.957031 491.941406 C 538.675781 492 538.714844 492.492188 538.996094 492.433594 C 543.101562 491.433594 547.125 490.367188 551.179688 489.238281 C 551.53125 489.101562 551.359375 488.664062 551.035156 488.738281 Z M 572.746094 484.351562 C 568.351562 485.511719 564.019531 486.699219 559.625 487.859375 C 559.347656 487.917969 559.519531 488.355469 559.796875 488.296875 C 564.191406 487.136719 568.523438 485.949219 572.917969 484.789062 C 573.179688 484.6875 573.007812 484.25 572.746094 484.351562 Z M 590.242188 461.40625 C 586.058594 462.332031 581.9375 463.285156 577.753906 464.210938 C 577.476562 464.269531 577.515625 464.757812 577.792969 464.699219 C 581.976562 463.773438 586.097656 462.820312 590.28125 461.894531 C 590.605469 461.820312 590.5625 461.328125 590.242188 461.40625 Z M 568.90625 465.597656 C 564.933594 466.542969 560.910156 467.355469 556.894531 468.066406 C 556.613281 468.125 556.636719 468.570312 556.933594 468.554688 C 560.949219 467.84375 564.972656 467.03125 568.945312 466.085938 C 569.25 465.964844 569.183594 465.539062 568.90625 465.597656 Z M 546.933594 469.835938 C 542.707031 470.523438 538.542969 471.496094 534.386719 472.613281 C 534.105469 472.671875 534.277344 473.109375 534.558594 473.050781 C 538.652344 471.90625 542.792969 470.996094 546.953125 470.28125 C 547.25 470.265625 547.210938 469.777344 546.933594 469.835938 Z M 525.785156 474.507812 C 523.609375 474.75 521.464844 475.082031 519.347656 475.609375 C 517.40625 476.0625 515.425781 476.9375 513.40625 477.070312 C 513.109375 477.085938 513.148438 477.574219 513.445312 477.558594 C 515.464844 477.425781 517.445312 476.554688 519.386719 476.097656 C 521.523438 475.617188 523.648438 475.242188 525.824219 474.996094 C 526.164062 474.964844 526.125 474.476562 525.785156 474.507812 Z M 521.554688 453.078125 C 517.492188 454.308594 513.386719 455.304688 509.234375 456.171875 C 508.953125 456.230469 508.992188 456.71875 509.273438 456.660156 C 513.472656 455.777344 517.621094 454.765625 521.726562 453.515625 C 521.988281 453.414062 521.816406 452.972656 521.554688 453.078125 Z M 543.265625 448.6875 C 539.257812 449.800781 535.292969 450.894531 531.285156 452.003906 C 531.003906 452.0625 531.175781 452.5 531.457031 452.441406 C 535.464844 451.332031 539.429688 450.238281 543.4375 449.125 C 543.71875 449.066406 543.546875 448.628906 543.265625 448.6875 Z M 564.980469 444.046875 C 560.800781 444.972656 556.667969 446.03125 552.527344 447.191406 C 552.25 447.25 552.417969 447.6875 552.699219 447.628906 C 556.796875 446.484375 560.882812 445.445312 565.019531 444.535156 C 565.300781 444.476562 565.261719 443.988281 564.980469 444.046875 Z M 586.242188 439.53125 C 582.453125 440.300781 578.699219 441.164062 574.953125 442.171875 C 574.671875 442.230469 574.84375 442.667969 575.125 442.609375 C 578.828125 441.617188 582.519531 440.730469 586.261719 439.976562 C 586.585938 439.898438 586.5625 439.453125 586.242188 439.53125 Z M 586.242188 439.53125 " fill-opacity="1" fill-rule="nonzero"/></g></g></g></g><g clip-path="url(#228e3e4ec9)"><g clip-path="url(#84d67fa42e)"><g clip-path="url(#e5c335a489)"><g clip-path="url(#288df8b9db)"><path fill="#281c22" d="M 587.722656 386.570312 L 594.375 419.632812 L 493.894531 439.785156 L 487.242188 406.722656 C 486.453125 402.890625 488.972656 399.128906 492.777344 398.398438 L 579.335938 381.007812 C 583.230469 380.246094 586.929688 382.738281 587.722656 386.570312 Z M 587.722656 386.570312 " fill-opacity="1" fill-rule="nonzero"/></g></g></g></g><g clip-path="url(#c9d044e324)"><g clip-path="url(#dc2d1e4abf)"><g clip-path="url(#2a3db11008)"><g clip-path="url(#63eebe0c9f)"><path fill="#a7ddea" d="M 581.878906 412.847656 L 502.804688 428.730469 C 501.816406 428.914062 500.863281 428.277344 500.695312 427.332031 L 497.351562 410.757812 C 497.167969 409.765625 497.804688 408.8125 498.746094 408.644531 L 577.820312 392.761719 C 578.808594 392.578125 579.761719 393.214844 579.929688 394.160156 L 583.273438 410.734375 C 583.503906 411.707031 582.867188 412.664062 581.878906 412.847656 Z M 581.878906 412.847656 " fill-opacity="1" fill-rule="nonzero"/></g></g></g></g><g clip-path="url(#02ee26ac4e)"><g clip-path="url(#439244f0f1)"><g clip-path="url(#2e87896517)"><g clip-path="url(#8f7e7f6311)"><path fill="#a7ddea" d="M 492.832031 571.882812 C 495.472656 573.730469 496.132812 577.363281 494.332031 579.988281 C 492.484375 582.628906 488.855469 583.289062 486.230469 581.484375 C 483.589844 579.636719 482.929688 576.003906 484.730469 573.378906 C 486.5625 570.695312 490.191406 570.035156 492.832031 571.882812 Z M 495.054688 584.300781 L 492.761719 586.308594 C 492.714844 586.324219 492.707031 586.429688 492.769531 586.457031 L 503.402344 594.425781 C 503.480469 594.496094 503.640625 594.382812 503.542969 594.269531 L 495.203125 584.292969 C 495.144531 584.265625 495.097656 584.28125 495.054688 584.300781 Z M 495.054688 584.300781 " fill-opacity="1" fill-rule="nonzero"/></g></g></g></g><g clip-path="url(#8e444bd392)"><g clip-path="url(#0ac0bc2f66)"><g clip-path="url(#dbdbbddb34)"><g clip-path="url(#9834be5966)"><path fill="#281c22" d="M 451.308594 553.855469 L 478.441406 514.617188 C 478.832031 514.0625 479.398438 513.839844 479.800781 514.085938 C 480.15625 514.351562 480.160156 515.007812 479.796875 515.503906 L 452.664062 554.742188 C 452.273438 555.296875 451.703125 555.519531 451.304688 555.269531 C 450.921875 555.066406 450.917969 554.410156 451.308594 553.855469 Z M 521.265625 544.765625 C 525.03125 546.125 528.835938 547.46875 532.597656 548.828125 C 534.007812 549.335938 534.984375 547.1875 533.53125 546.695312 C 529.769531 545.335938 525.964844 543.992188 522.203125 542.632812 C 520.835938 542.105469 519.855469 544.257812 521.265625 544.765625 Z M 521.265625 544.765625 " fill-opacity="1" fill-rule="nonzero"/></g></g></g></g><g clip-path="url(#f7b5d24504)"><g clip-path="url(#f9a23b4b94)"><g clip-path="url(#6616cd423e)"><g clip-path="url(#bd7708f386)"><path fill="#d15081" d="M 438.632812 509 L 521.632812 538.460938 C 523.148438 538.980469 524.085938 540.480469 523.945312 542.054688 L 523.683594 545.136719 C 523.582031 546.035156 522.703125 546.628906 521.824219 546.316406 L 439.253906 516.539062 Z M 431.777344 519.105469 L 488.609375 586.414062 C 489.640625 587.628906 491.339844 587.972656 492.796875 587.304688 L 495.558594 585.972656 C 496.355469 585.558594 496.601562 584.503906 495.984375 583.835938 L 439.101562 517.050781 Z M 431.777344 519.105469 " fill-opacity="1" fill-rule="nonzero"/></g></g></g></g><g clip-path="url(#3a4bb4f8cf)"><g clip-path="url(#63fded6a0e)"><g clip-path="url(#4b38e91f3d)"><g clip-path="url(#d72b83956c)"><path fill="#281c22" d="M 444.289062 520.632812 C 439.542969 527.742188 421.507812 516.601562 415.019531 512.265625 C 413.722656 511.40625 413.425781 509.605469 414.335938 508.1875 L 416.4375 505.042969 L 403.605469 496.871094 C 402.664062 496.277344 402.246094 495.078125 402.597656 494.035156 C 403.023438 492.804688 403.78125 491.246094 405.152344 490.105469 C 406.023438 489.363281 407.332031 489.355469 408.21875 490.070312 L 420.203125 499.429688 L 422.433594 496.085938 C 423.386719 494.652344 425.300781 494.257812 426.605469 495.261719 C 432.898438 500.128906 448.964844 513.605469 444.289062 520.632812 Z M 444.289062 520.632812 " fill-opacity="1" fill-rule="nonzero"/></g></g></g></g><g clip-path="url(#75c2c7510a)"><g clip-path="url(#46c4805c2a)"><g clip-path="url(#ef2052f3c3)"><g clip-path="url(#a4ba553a01)"><path fill="#a7ddea" d="M 516.511719 537.632812 C 519.152344 539.480469 519.8125 543.109375 518.011719 545.734375 C 516.164062 548.375 512.535156 549.035156 509.910156 547.230469 C 507.289062 545.425781 506.609375 541.753906 508.414062 539.128906 C 510.214844 536.503906 513.890625 535.828125 516.511719 537.632812 Z M 516.511719 537.632812 " fill-opacity="1" fill-rule="nonzero"/></g></g></g></g><g clip-path="url(#73a1776a5b)"><g clip-path="url(#8777989d93)"><g clip-path="url(#a819d308ad)"><g clip-path="url(#b971c1751a)"><path fill="#a7ddea" d="M 431.710938 506.402344 C 433.5625 507.648438 434.003906 510.203125 432.742188 512.011719 C 431.476562 513.816406 428.941406 514.304688 427.136719 513.039062 C 425.285156 511.792969 424.84375 509.238281 426.105469 507.429688 C 427.367188 505.621094 429.863281 505.15625 431.710938 506.402344 Z M 419.914062 499.59375 C 419.71875 499.871094 419.527344 500.148438 419.332031 500.425781 C 419.3125 500.382812 419.3125 500.382812 419.253906 500.355469 C 415.609375 497.488281 411.890625 494.695312 408.148438 491.964844 C 407.933594 491.796875 407.625 492.171875 407.839844 492.339844 C 411.628906 495.050781 415.34375 497.84375 418.945312 500.730469 C 418.960938 500.773438 419.003906 500.757812 419.066406 500.785156 C 418.800781 501.140625 418.535156 501.496094 418.273438 501.851562 C 414.335938 499.144531 410.359375 496.457031 406.328125 493.890625 C 406.066406 493.738281 405.800781 494.09375 406.019531 494.261719 C 410.066406 496.875 414.027344 499.519531 417.980469 502.269531 C 417.757812 502.609375 417.539062 502.945312 417.273438 503.300781 C 413.335938 500.851562 409.382812 498.351562 405.488281 495.882812 C 405.230469 495.734375 404.964844 496.089844 405.179688 496.257812 C 409.136719 498.753906 413.070312 501.207031 417.027344 503.703125 C 416.875 503.964844 416.679688 504.242188 416.488281 504.519531 C 416.335938 504.78125 416.691406 505.046875 416.859375 504.828125 C 417.921875 503.152344 419.015625 501.5625 420.21875 499.980469 C 420.480469 499.625 420.125 499.359375 419.914062 499.59375 Z M 419.914062 499.59375 " fill-opacity="1" fill-rule="nonzero"/></g></g></g></g><g clip-path="url(#19425bd935)"><g clip-path="url(#0b85d47be6)"><g clip-path="url(#faa0bdfd0b)"><g clip-path="url(#7a6ed673c3)"><path fill="#281c22" d="M 426.125 506.058594 C 425.980469 505.8125 426.417969 505.640625 426.5625 505.886719 C 428.320312 509.089844 430.144531 512.214844 432.058594 515.308594 C 432.207031 515.554688 431.863281 515.839844 431.671875 515.609375 C 429.742188 512.476562 427.882812 509.261719 426.125 506.058594 Z M 427.8125 505.855469 C 429.414062 508.664062 431.015625 511.472656 432.679688 514.308594 C 432.824219 514.554688 433.230469 514.292969 433.066406 514.003906 C 431.464844 511.195312 429.863281 508.386719 428.199219 505.550781 C 428.050781 505.304688 427.664062 505.609375 427.8125 505.855469 Z M 427.8125 505.855469 " fill-opacity="1" fill-rule="nonzero"/></g></g></g></g><g clip-path="url(#f37c946a2f)"><g clip-path="url(#93bfe7abec)"><g clip-path="url(#28b7fca062)"><g clip-path="url(#922f209d96)"><path fill="#a7ddea" d="M 457.167969 527.625 L 475.410156 541.109375 L 473.898438 543.316406 L 454.976562 530.804688 Z M 457.167969 527.625 " fill-opacity="1" fill-rule="nonzero"/></g></g></g></g><g clip-path="url(#487be77aad)"><g clip-path="url(#b52d9283bb)"><g clip-path="url(#946e1fcdd7)"><g clip-path="url(#ec1dbb78a4)"><path fill="#281c22" d="M 512.269531 540.855469 C 512.496094 540.664062 512.800781 541.050781 512.570312 541.242188 C 511.4375 542.089844 512.425781 543.976562 513.773438 543.550781 C 515.492188 543.03125 514.082031 540.199219 512.570312 541.242188 C 512.28125 541.40625 511.976562 541.019531 512.269531 540.855469 C 513.058594 540.292969 514.296875 540.621094 514.769531 541.445312 C 515.226562 542.226562 515.058594 543.351562 514.277344 543.808594 C 513.472656 544.324219 512.332031 543.863281 511.847656 543.140625 C 511.304688 542.394531 511.519531 541.398438 512.269531 540.855469 Z M 507.277344 541.136719 C 506.460938 543.832031 508.792969 547.214844 511.238281 548.175781 C 513.914062 549.203125 517.226562 547.859375 518.496094 545.292969 C 518.644531 545.03125 518.21875 544.84375 518.066406 545.105469 C 516.90625 547.429688 513.8125 548.6875 511.425781 547.75 C 509.242188 546.9375 506.953125 543.789062 507.703125 541.324219 C 507.792969 541.035156 507.367188 540.851562 507.277344 541.136719 Z M 507.277344 541.136719 " fill-opacity="1" fill-rule="nonzero"/></g></g></g></g><g clip-path="url(#a276441adb)"><g clip-path="url(#8d39852674)"><g clip-path="url(#c5e679cfb1)"><path fill="#ded6d6" d="M 194.164062 181.730469 L 186.183594 167.394531 C 180.851562 157.84375 175.503906 148.300781 170.136719 138.777344 L 170.132812 138.765625 C 169.984375 138.511719 169.71875 138.328125 169.402344 138.296875 C 153.753906 136.824219 138.359375 133.078125 122.722656 130.75 C 118.445312 130.167969 118.324219 131.097656 122.550781 131.816406 C 137.59375 134.410156 152.46875 138.273438 167.785156 140.027344 C 167.574219 140.207031 167.339844 140.414062 167.089844 140.65625 C 159.773438 147.824219 153.355469 155.796875 146.316406 163.097656 C 139.292969 170.425781 131.75 177.246094 123.558594 183.199219 C 121.503906 184.675781 119.429688 186.125 117.300781 187.492188 C 116.246094 188.179688 115.160156 188.890625 114.117188 189.5 C 113.59375 189.800781 113.09375 190.046875 112.597656 190.195312 C 112.109375 190.34375 111.59375 190.398438 111.015625 190.394531 C 109.867188 190.382812 108.59375 190.199219 107.339844 190.042969 C 106.070312 189.882812 104.847656 189.707031 103.605469 189.484375 C 101.128906 189.050781 98.664062 188.484375 96.195312 187.878906 C 93.726562 187.269531 91.25 186.664062 88.796875 186.015625 L 81.414062 184.054688 C 76.527344 182.761719 71.609375 181.507812 66.613281 180.609375 C 68.246094 178.6875 69.894531 176.789062 71.613281 174.964844 C 72.609375 173.90625 73.632812 172.871094 74.679688 171.867188 C 75.722656 170.871094 76.824219 169.902344 77.921875 168.921875 C 82.308594 165.023438 86.785156 161.207031 91.222656 157.335938 C 95.664062 153.464844 100.035156 149.503906 104.300781 145.441406 C 108.570312 141.378906 112.746094 137.222656 116.796875 132.949219 C 119.734375 129.789062 119.042969 129.148438 116.019531 132.199219 C 111.886719 136.359375 107.636719 140.414062 103.308594 144.378906 C 98.984375 148.351562 94.570312 152.21875 90.082031 156.011719 C 85.601562 159.8125 81.074219 163.578125 76.628906 167.457031 C 75.519531 168.425781 74.398438 169.390625 73.308594 170.417969 C 72.21875 171.4375 71.164062 172.492188 70.136719 173.566406 C 68.082031 175.714844 66.136719 177.953125 64.222656 180.199219 C 63.921875 180.550781 63.886719 181.082031 64.171875 181.476562 L 64.222656 181.546875 C 64.589844 182.0625 64.976562 182.542969 65.332031 183.074219 L 66.382812 184.726562 C 67.042969 185.867188 67.722656 186.992188 68.347656 188.164062 L 69.300781 189.910156 L 70.230469 191.675781 C 70.855469 192.847656 71.453125 194.035156 72.058594 195.222656 C 74.472656 199.96875 76.8125 204.765625 79.160156 209.5625 C 81.515625 214.359375 83.824219 219.167969 86.378906 223.917969 C 86.703125 224.511719 87.054688 225.101562 87.390625 225.695312 L 87.890625 226.539062 L 88.367188 227.390625 C 88.992188 228.539062 89.574219 229.722656 90.152344 230.917969 C 91.308594 233.3125 92.460938 235.773438 93.929688 238.101562 L 93.933594 238.109375 C 94.070312 238.324219 94.289062 238.480469 94.554688 238.53125 C 102.484375 240.042969 110.429688 241.367188 118.265625 243.105469 C 119.234375 243.328125 120.230469 243.554688 121.230469 243.761719 C 122.226562 243.960938 123.226562 244.140625 124.226562 244.308594 C 126.230469 244.640625 128.238281 244.902344 130.246094 245.132812 C 134.265625 245.585938 138.285156 245.902344 142.296875 246.214844 C 144.792969 246.402344 146.089844 246.277344 146.167969 246.035156 C 146.566406 245.988281 147.660156 245.367188 149.375 244.066406 C 151.691406 242.300781 154.003906 240.527344 156.296875 238.71875 C 157.441406 237.816406 158.582031 236.902344 159.710938 235.96875 C 160.84375 235.039062 161.953125 234.070312 163.046875 233.132812 C 167.46875 229.371094 172.074219 225.785156 176.4375 221.855469 C 178.613281 219.890625 180.742188 217.820312 182.71875 215.664062 C 183.691406 214.644531 184.742188 213.628906 185.789062 212.628906 L 188.957031 209.625 L 195.332031 203.632812 C 196.390625 202.632812 197.453125 201.628906 198.503906 200.609375 C 199.558594 199.582031 200.601562 198.582031 201.636719 197.453125 C 201.921875 197.136719 201.996094 196.664062 201.78125 196.269531 L 201.769531 196.25 C 200.480469 193.882812 199.277344 191.433594 198.042969 188.988281 C 197.425781 187.765625 196.804688 186.542969 196.152344 185.324219 Z M 130.414062 243.785156 C 128.425781 243.519531 126.445312 243.222656 124.476562 242.859375 C 123.496094 242.675781 122.519531 242.480469 121.546875 242.265625 C 120.574219 242.046875 119.613281 241.8125 118.621094 241.566406 C 111.617188 239.890625 104.554688 238.566406 97.523438 237.171875 C 97.730469 237.0625 97.941406 236.957031 98.148438 236.847656 C 98.425781 236.703125 98.707031 236.550781 98.984375 236.378906 C 99.125 236.296875 99.265625 236.207031 99.414062 236.105469 C 99.484375 236.058594 99.578125 235.988281 99.648438 235.933594 L 99.816406 235.808594 C 100.273438 235.460938 100.796875 235.082031 101.296875 234.625 C 101.796875 234.167969 102.304688 233.628906 102.648438 232.949219 C 102.730469 232.734375 101.964844 232.1875 101.816406 232.253906 C 100.832031 232.859375 99.667969 233.238281 98.519531 234.09375 L 97.792969 234.671875 C 97.542969 234.875 97.289062 235.089844 97.042969 235.320312 C 96.796875 235.554688 96.558594 235.800781 96.328125 236.082031 C 96.214844 236.21875 96.101562 236.367188 95.992188 236.535156 C 95.9375 236.621094 95.886719 236.695312 95.835938 236.804688 L 95.820312 236.832031 C 95.660156 236.800781 95.503906 236.769531 95.34375 236.738281 C 94.082031 234.628906 93.035156 232.355469 91.949219 230.058594 C 91.378906 228.847656 90.792969 227.628906 90.148438 226.425781 L 89.65625 225.527344 L 89.140625 224.644531 C 88.824219 224.074219 88.496094 223.515625 88.183594 222.933594 C 85.710938 218.257812 83.414062 213.425781 81.074219 208.628906 C 78.738281 203.824219 76.402344 199.019531 73.96875 194.25 C 73.359375 193.058594 72.753906 191.863281 72.121094 190.679688 L 71.179688 188.902344 L 70.207031 187.136719 C 69.570312 185.953125 68.867188 184.792969 68.183594 183.628906 L 67.074219 181.902344 C 67.054688 181.871094 67.03125 181.839844 67.011719 181.8125 C 71.714844 182.851562 76.355469 184.183594 80.996094 185.542969 L 88.339844 187.6875 C 90.800781 188.390625 93.265625 189.046875 95.734375 189.703125 C 98.207031 190.351562 100.707031 190.96875 103.246094 191.449219 C 104.507812 191.691406 105.808594 191.894531 107.066406 192.066406 C 108.339844 192.234375 109.597656 192.441406 110.996094 192.476562 C 111.695312 192.484375 112.460938 192.421875 113.195312 192.203125 C 113.925781 191.988281 114.574219 191.664062 115.15625 191.335938 C 115.332031 191.234375 115.5 191.132812 115.667969 191.03125 C 124.851562 209.386719 134.667969 227.449219 145.070312 245.136719 C 145.191406 245.332031 145.308594 245.496094 145.421875 245.625 C 144.800781 245.453125 143.792969 245.277344 142.394531 245.125 C 138.390625 244.722656 134.390625 244.320312 130.414062 243.785156 Z M 197.0625 199.128906 C 196.027344 200.144531 194.976562 201.152344 193.925781 202.160156 L 187.605469 208.207031 L 184.457031 211.253906 C 183.410156 212.277344 182.375 213.300781 181.347656 214.398438 C 179.410156 216.566406 177.382812 218.589844 175.257812 220.566406 C 171.011719 224.5 166.472656 228.15625 162.089844 232.03125 C 157.792969 235.953125 153.242188 239.554688 148.699219 243.203125 C 147.492188 244.179688 146.707031 244.925781 146.308594 245.410156 C 146.269531 245.191406 146.183594 244.925781 146.03125 244.613281 C 140.246094 233.039062 134.203125 221.574219 127.921875 210.246094 C 128.652344 209.796875 129.371094 209.332031 130.042969 208.722656 C 130.460938 208.34375 130.855469 207.914062 131.199219 207.417969 C 131.542969 206.921875 131.832031 206.355469 131.988281 205.738281 C 132.019531 205.550781 131.1875 205.113281 131.058594 205.191406 C 130.25 205.851562 129.40625 206.398438 128.601562 207.132812 C 128.074219 207.609375 127.554688 208.160156 127.117188 208.804688 C 123.6875 202.644531 120.1875 196.527344 116.617188 190.457031 C 117.234375 190.070312 117.839844 189.679688 118.457031 189.285156 C 120.625 187.90625 122.734375 186.4375 124.820312 184.9375 C 133.136719 178.890625 140.730469 171.90625 147.6875 164.394531 C 154.675781 156.886719 160.863281 148.773438 167.863281 141.429688 C 168.269531 141 168.582031 140.632812 168.820312 140.324219 C 173.964844 149.699219 179.128906 159.066406 184.316406 168.421875 L 192.277344 182.753906 L 194.265625 186.335938 C 194.90625 187.523438 195.527344 188.734375 196.144531 189.949219 C 196.992188 191.613281 197.828125 193.285156 198.699219 194.953125 C 198.378906 194.84375 198.035156 194.757812 197.65625 194.722656 C 197.125 194.679688 196.691406 194.722656 196.265625 194.777344 C 195.839844 194.828125 195.445312 194.914062 195.066406 194.945312 C 194.964844 194.976562 194.507812 195.800781 194.636719 195.9375 C 195.105469 196.324219 195.632812 196.519531 196.117188 196.648438 C 196.597656 196.777344 197.082031 196.828125 197.460938 196.863281 C 197.828125 196.894531 198.238281 196.9375 198.699219 196.953125 C 198.871094 196.957031 199.054688 196.957031 199.242188 196.949219 C 198.539062 197.679688 197.792969 198.40625 197.0625 199.128906 Z M 121.871094 135.566406 C 122.113281 136.101562 122.355469 136.621094 122.625 137.105469 C 122.898438 137.589844 123.199219 138.050781 123.609375 138.464844 C 123.726562 138.625 123.363281 139.488281 123.097656 139.433594 C 122.355469 139.246094 121.671875 138.804688 121.144531 138.269531 C 120.605469 137.730469 120.207031 137.101562 119.917969 136.453125 C 119.332031 135.144531 119.152344 133.761719 119.203125 132.410156 C 119.230469 132.214844 120.144531 132.003906 120.253906 132.164062 C 120.890625 133.347656 121.386719 134.492188 121.871094 135.566406 Z M 125.699219 141.140625 C 126.253906 142.144531 126.863281 143.082031 127.386719 144.109375 C 127.910156 145.125 128.355469 146.210938 128.71875 147.386719 C 128.761719 147.597656 127.992188 148.125 127.8125 147.996094 C 126.839844 147.179688 126.046875 146.203125 125.472656 145.085938 C 124.910156 143.972656 124.535156 142.691406 124.636719 141.332031 C 124.671875 141.136719 125.601562 141.003906 125.699219 141.140625 Z M 133.8125 156.578125 C 133.847656 156.8125 133.03125 157.261719 132.855469 157.105469 C 130.949219 155.117188 129.664062 152.785156 129 150.113281 C 128.96875 149.914062 129.792969 149.460938 129.945312 149.589844 C 131.851562 151.574219 133.144531 153.90625 133.8125 156.578125 Z M 135.613281 159.128906 C 136.109375 160.097656 136.773438 160.992188 137.324219 162.011719 C 137.878906 163.023438 138.375 164.132812 138.667969 165.375 C 138.699219 165.597656 137.882812 166.042969 137.714844 165.910156 C 136.835938 165.0625 136.039062 164.144531 135.441406 163.046875 C 135.140625 162.5 134.890625 161.914062 134.71875 161.28125 C 134.550781 160.648438 134.453125 159.960938 134.542969 159.257812 C 134.585938 159.054688 135.527344 159 135.613281 159.128906 Z M 147.234375 182.789062 C 146.15625 181.570312 145.277344 180.230469 144.539062 178.863281 C 143.800781 177.492188 143.175781 176.070312 142.636719 174.554688 C 142.582031 174.332031 143.375 173.828125 143.550781 173.980469 C 144.699219 175.128906 145.667969 176.433594 146.429688 177.839844 C 147.191406 179.246094 147.746094 180.722656 148.191406 182.261719 C 148.246094 182.53125 147.433594 182.984375 147.234375 182.789062 Z M 149.9375 184.90625 C 151.195312 185.972656 151.925781 187.058594 152.390625 188.652344 C 152.414062 188.800781 151.726562 189.429688 151.574219 189.382812 C 149.976562 188.65625 148.957031 187.121094 148.949219 185.34375 C 148.964844 185.210938 149.832031 184.839844 149.9375 184.90625 Z M 157.710938 188.6875 C 157.789062 188.75 158.125 189.621094 157.996094 189.742188 C 157.632812 190.011719 157.304688 190.164062 156.953125 190.269531 C 156.609375 190.371094 156.257812 190.414062 155.90625 190.394531 C 155.550781 190.375 155.195312 190.292969 154.839844 190.132812 C 154.664062 190.054688 154.480469 189.949219 154.304688 189.820312 C 154.121094 189.671875 153.941406 189.53125 153.769531 189.238281 C 153.679688 189.046875 154.496094 188.546875 154.539062 188.480469 C 154.667969 188.371094 154.945312 188.335938 155.203125 188.289062 C 155.46875 188.25 155.746094 188.234375 156.023438 188.25 C 156.300781 188.265625 156.585938 188.308594 156.871094 188.386719 C 157.152344 188.460938 157.460938 188.566406 157.710938 188.6875 Z M 167.050781 190.941406 C 167.199219 191.058594 167.011719 191.972656 166.808594 192.007812 C 165.628906 192.097656 164.515625 191.90625 163.507812 191.601562 C 162.488281 191.292969 161.582031 190.855469 160.617188 190.417969 C 160.484375 190.332031 160.535156 189.394531 160.703125 189.339844 C 161.894531 189.085938 163.082031 189.230469 164.128906 189.542969 C 165.1875 189.863281 166.125 190.367188 167.050781 190.941406 Z M 176.164062 192.128906 C 176.339844 192.25 176.144531 193.160156 175.933594 193.199219 C 174.707031 193.296875 173.535156 193.214844 172.410156 193.019531 C 171.28125 192.820312 170.203125 192.503906 169.078125 192.117188 C 168.921875 192.042969 168.933594 191.101562 169.105469 191.039062 C 170.328125 190.714844 171.589844 190.695312 172.777344 190.902344 C 173.972656 191.109375 175.09375 191.539062 176.164062 192.128906 Z M 185.367188 193.414062 C 185.535156 193.535156 185.308594 194.441406 185.136719 194.484375 C 184.625 194.554688 184.125 194.625 183.59375 194.644531 C 183.066406 194.660156 182.5 194.625 181.925781 194.484375 C 180.84375 194.210938 180.050781 193.734375 179.164062 193.40625 C 179.042969 193.339844 178.949219 192.402344 179.121094 192.328125 C 179.710938 192.128906 180.332031 192.097656 180.890625 192.132812 C 181.457031 192.171875 181.980469 192.285156 182.445312 192.398438 C 182.878906 192.507812 183.34375 192.617188 183.84375 192.773438 C 184.335938 192.929688 184.867188 193.125 185.367188 193.414062 Z M 192.519531 194.660156 C 192.628906 194.789062 192.257812 195.644531 192.125 195.679688 C 191.355469 195.761719 190.671875 195.855469 189.90625 195.773438 C 189.152344 195.695312 188.308594 195.460938 187.550781 194.921875 C 187.449219 194.824219 187.683594 193.914062 187.796875 193.871094 C 188.578125 193.6875 189.308594 193.554688 190.121094 193.636719 C 190.914062 193.714844 191.816406 194.007812 192.519531 194.660156 Z M 149.664062 189.199219 C 149.617188 189.445312 149.539062 189.621094 149.46875 189.769531 C 149.394531 189.925781 149.316406 190.058594 149.234375 190.1875 C 149.074219 190.445312 148.902344 190.667969 148.722656 190.882812 C 148.367188 191.300781 147.957031 191.671875 147.601562 191.972656 L 147.484375 192.074219 C 147.417969 192.128906 147.351562 192.1875 147.285156 192.238281 C 147.15625 192.335938 147.027344 192.421875 146.902344 192.496094 C 146.652344 192.644531 146.414062 192.761719 146.1875 192.863281 C 145.734375 193.066406 145.335938 193.203125 145.007812 193.417969 C 144.890625 193.464844 144.011719 193.132812 144.058594 192.875 C 144.257812 192.179688 144.726562 191.683594 145.121094 191.304688 C 145.324219 191.113281 145.523438 190.945312 145.699219 190.796875 L 145.9375 190.585938 L 146.035156 190.496094 L 146.207031 190.339844 C 146.652344 189.96875 147.066406 189.707031 147.503906 189.453125 C 147.714844 189.328125 147.9375 189.207031 148.140625 189.097656 C 148.238281 189.042969 148.335938 188.992188 148.433594 188.9375 C 148.527344 188.886719 148.59375 188.84375 148.644531 188.847656 C 148.679688 189.007812 149.691406 188.757812 149.664062 189.199219 Z M 144.398438 194 C 144.242188 194.695312 143.902344 195.167969 143.578125 195.601562 C 143.246094 196.023438 142.875 196.386719 142.578125 196.675781 L 142.332031 196.921875 C 142.234375 197.015625 142.136719 197.101562 142.039062 197.1875 C 141.84375 197.351562 141.644531 197.503906 141.445312 197.640625 C 141.050781 197.921875 140.65625 198.164062 140.269531 198.433594 C 140.125 198.507812 139.316406 198.046875 139.351562 197.835938 C 139.511719 197.269531 139.792969 196.761719 140.09375 196.328125 C 140.246094 196.109375 140.40625 195.90625 140.5625 195.714844 L 140.796875 195.441406 L 140.914062 195.3125 L 141.070312 195.148438 C 141.492188 194.738281 141.898438 194.46875 142.308594 194.214844 C 142.707031 193.96875 143.121094 193.746094 143.417969 193.539062 C 143.511719 193.511719 144.421875 193.773438 144.398438 194 Z M 138.914062 199.699219 C 138.625 200.351562 138.195312 200.886719 137.761719 201.347656 C 137.328125 201.808594 136.867188 202.203125 136.460938 202.554688 C 135.652344 203.261719 134.695312 204.117188 133.472656 204.660156 C 133.246094 204.734375 132.6875 203.988281 132.785156 203.808594 C 133.4375 202.828125 134.046875 201.820312 135.054688 200.929688 C 136.074219 200.058594 137.136719 199.628906 138.058594 199.035156 C 138.199219 198.96875 138.980469 199.496094 138.914062 199.699219 Z M 125.289062 211.972656 C 124.53125 213.304688 123.476562 214.390625 122.40625 215.304688 C 121.324219 216.230469 120.210938 216.988281 119.109375 217.855469 C 118.90625 217.984375 118.144531 217.445312 118.238281 217.195312 C 118.871094 215.773438 119.910156 214.605469 121.011719 213.671875 C 122.121094 212.726562 123.300781 212 124.5 211.234375 C 124.683594 211.144531 125.382812 211.773438 125.289062 211.972656 Z M 117.300781 219.601562 C 117.027344 220.351562 116.550781 220.917969 116.089844 221.410156 C 115.855469 221.652344 115.617188 221.875 115.390625 222.082031 L 114.738281 222.683594 C 113.8125 223.53125 112.828125 224.242188 111.820312 225 C 111.632812 225.113281 110.871094 224.578125 110.941406 224.347656 C 111.46875 223.054688 112.328125 221.972656 113.292969 221.09375 C 114.351562 220.117188 115.527344 219.6875 116.386719 219.027344 C 116.515625 218.953125 117.363281 219.371094 117.300781 219.601562 Z M 110.226562 226.507812 C 109.960938 227.152344 109.5625 227.691406 109.160156 228.160156 C 108.757812 228.632812 108.335938 229.042969 107.964844 229.410156 C 107.796875 229.574219 107.570312 229.8125 107.347656 230.011719 C 107.125 230.214844 106.894531 230.40625 106.664062 230.589844 C 106.203125 230.957031 105.726562 231.289062 105.242188 231.632812 C 105.0625 231.734375 104.308594 231.1875 104.375 230.96875 C 104.613281 230.367188 104.933594 229.808594 105.285156 229.304688 C 105.464844 229.050781 105.648438 228.808594 105.832031 228.582031 C 106.023438 228.351562 106.195312 228.140625 106.449219 227.886719 C 107.40625 226.949219 108.453125 226.464844 109.363281 225.859375 C 109.503906 225.789062 110.289062 226.308594 110.226562 226.507812 Z M 73.273438 216.019531 C 72.925781 216.0625 72.597656 216.171875 72.285156 216.308594 C 72.136719 216.386719 71.980469 216.464844 71.84375 216.5625 L 71.636719 216.707031 C 71.570312 216.753906 71.53125 216.789062 71.476562 216.832031 C 71.082031 217.152344 70.738281 217.460938 70.433594 217.675781 C 70.304688 217.773438 70.191406 217.832031 70.113281 217.875 C 70.082031 217.8125 70.046875 217.75 70.011719 217.6875 L 69.914062 217.433594 C 69.800781 217.109375 69.746094 216.769531 69.753906 216.402344 C 69.765625 215.667969 70.042969 214.882812 70.496094 214.222656 C 70.945312 213.550781 71.59375 213.015625 72.351562 212.75 C 72.546875 212.675781 72.640625 212.429688 72.640625 212.175781 C 72.644531 211.925781 72.46875 211.664062 72.136719 211.695312 C 71.035156 211.84375 70.03125 212.4375 69.296875 213.246094 C 68.5625 214.054688 68.023438 215.078125 67.882812 216.242188 C 67.808594 216.820312 67.84375 217.4375 68.007812 218.023438 L 68.136719 218.441406 C 68.203125 218.59375 68.269531 218.742188 68.339844 218.890625 C 68.386719 218.972656 68.441406 219.054688 68.496094 219.132812 C 68.558594 219.214844 68.589844 219.289062 68.683594 219.375 C 68.765625 219.460938 68.851562 219.542969 68.941406 219.621094 C 69.03125 219.695312 69.164062 219.765625 69.28125 219.828125 C 69.402344 219.894531 69.539062 219.933594 69.675781 219.960938 C 69.816406 219.996094 69.957031 220.011719 70.078125 220.003906 C 70.351562 220.003906 70.550781 219.949219 70.757812 219.890625 C 71.117188 219.757812 71.410156 219.59375 71.640625 219.433594 C 72.117188 219.109375 72.480469 218.777344 72.824219 218.503906 C 72.863281 218.472656 72.914062 218.429688 72.945312 218.410156 L 73.027344 218.351562 C 73.082031 218.308594 73.144531 218.285156 73.203125 218.25 C 73.324219 218.195312 73.449219 218.148438 73.574219 218.128906 C 73.820312 218.09375 74.046875 218.125 74.210938 218.230469 C 74.382812 218.320312 74.527344 218.503906 74.632812 218.789062 C 74.746094 219.082031 74.773438 219.390625 74.730469 219.675781 C 74.644531 220.25 74.15625 220.832031 73.492188 221.125 C 72.832031 221.421875 72.042969 221.429688 71.488281 220.980469 C 71.300781 220.839844 71.023438 220.851562 70.800781 220.988281 C 70.589844 221.113281 70.453125 221.417969 70.703125 221.746094 C 71.089844 222.199219 71.648438 222.53125 72.234375 222.65625 C 72.824219 222.792969 73.429688 222.753906 73.996094 222.597656 C 74.5625 222.4375 75.101562 222.148438 75.558594 221.734375 C 75.785156 221.523438 75.992188 221.285156 76.164062 221.015625 C 76.335938 220.742188 76.46875 220.441406 76.5625 220.125 C 76.734375 219.484375 76.722656 218.816406 76.546875 218.203125 C 76.378906 217.582031 75.996094 216.910156 75.359375 216.488281 C 74.734375 216.054688 73.957031 215.925781 73.273438 216.019531 Z M 70.039062 218.203125 C 70.039062 218.203125 70.039062 218.207031 70.039062 218.210938 C 70.035156 218.21875 70.035156 218.210938 70.039062 218.203125 Z M 118.445312 253.183594 C 117.960938 253.046875 117.5 253.015625 117.058594 253.03125 C 116.613281 253.046875 116.179688 253.117188 115.757812 253.234375 C 115.363281 253.34375 115.007812 253.480469 114.71875 253.578125 L 114.71875 253.410156 C 114.714844 253.386719 114.726562 253.324219 114.734375 253.269531 C 114.757812 253.148438 114.800781 253.003906 114.851562 252.863281 C 114.953125 252.582031 115.082031 252.289062 115.230469 252.027344 C 115.378906 251.769531 115.558594 251.519531 115.714844 251.378906 C 115.792969 251.304688 115.855469 251.269531 115.875 251.25 C 115.898438 251.230469 115.921875 251.203125 116.003906 251.242188 C 116.09375 251.273438 116.351562 251.207031 116.558594 251.058594 C 116.757812 250.917969 116.917969 250.664062 116.707031 250.421875 C 116.523438 250.222656 116.191406 250.050781 115.855469 250.042969 C 115.515625 250.027344 115.230469 250.132812 115.007812 250.253906 C 114.558594 250.496094 114.257812 250.804688 113.980469 251.121094 C 113.707031 251.4375 113.480469 251.773438 113.28125 252.140625 C 113.179688 252.328125 113.085938 252.519531 113.003906 252.738281 C 112.964844 252.855469 112.925781 252.96875 112.894531 253.125 C 112.878906 253.210938 112.875 253.246094 112.867188 253.304688 L 112.84375 253.460938 L 112.820312 253.621094 L 112.8125 253.800781 C 112.804688 253.917969 112.796875 254.035156 112.816406 254.1875 C 112.824219 254.257812 112.828125 254.328125 112.839844 254.402344 C 112.859375 254.492188 112.882812 254.582031 112.910156 254.671875 C 112.925781 254.71875 112.933594 254.753906 112.957031 254.808594 C 112.984375 254.863281 113.011719 254.917969 113.042969 254.96875 C 113.105469 255.074219 113.167969 255.175781 113.28125 255.28125 C 113.390625 255.382812 113.503906 255.476562 113.628906 255.535156 C 113.746094 255.59375 113.898438 255.65625 113.992188 255.667969 C 114.097656 255.691406 114.226562 255.710938 114.3125 255.714844 C 114.398438 255.714844 114.484375 255.714844 114.570312 255.710938 C 114.863281 255.683594 115.101562 255.628906 115.292969 255.578125 C 115.691406 255.472656 116.007812 255.363281 116.304688 255.292969 C 116.582031 255.226562 116.859375 255.1875 117.136719 255.175781 C 117.40625 255.167969 117.671875 255.1875 117.882812 255.238281 C 118.097656 255.289062 118.222656 255.371094 118.269531 255.417969 C 118.316406 255.460938 118.363281 255.527344 118.382812 255.722656 C 118.378906 255.902344 118.335938 256.222656 118.261719 256.46875 C 118.179688 256.71875 118.078125 256.957031 117.941406 257.160156 C 117.800781 257.359375 117.628906 257.527344 117.425781 257.648438 C 117.226562 257.769531 116.992188 257.855469 116.726562 257.875 C 116.464844 257.894531 116.179688 257.855469 115.886719 257.769531 C 115.515625 257.660156 114.941406 258.410156 115.414062 258.757812 C 115.777344 258.972656 116.1875 259.140625 116.640625 259.214844 C 117.09375 259.285156 117.585938 259.238281 118.042969 259.078125 C 118.5 258.917969 118.914062 258.640625 119.25 258.304688 C 119.582031 257.960938 119.832031 257.5625 120.019531 257.148438 C 120.199219 256.726562 120.320312 256.339844 120.378906 255.804688 C 120.382812 255.667969 120.382812 255.527344 120.378906 255.390625 C 120.371094 255.25 120.332031 255.09375 120.304688 254.949219 C 120.226562 254.648438 120.078125 254.347656 119.878906 254.09375 C 119.46875 253.578125 118.921875 253.316406 118.445312 253.183594 Z M 114.753906 254.007812 L 114.753906 254.003906 C 114.773438 254 114.75 254.007812 114.753906 254.007812 Z M 182.597656 224.949219 C 182.597656 224.949219 182.597656 224.949219 182.597656 224.945312 C 182.597656 224.949219 182.597656 224.949219 182.597656 224.949219 Z M 182.648438 224.886719 C 182.648438 224.886719 182.652344 224.882812 182.652344 224.882812 C 182.683594 224.871094 182.726562 224.867188 182.769531 224.871094 C 182.871094 224.875 183.003906 224.894531 183.128906 224.886719 C 183.253906 224.882812 183.378906 224.84375 183.460938 224.734375 C 183.503906 224.683594 183.53125 224.609375 183.523438 224.515625 C 183.527344 224.425781 183.492188 224.320312 183.414062 224.21875 C 183.347656 224.128906 183.265625 224.066406 183.1875 224.003906 C 183.109375 223.957031 183.019531 223.898438 182.945312 223.871094 C 182.785156 223.804688 182.632812 223.769531 182.492188 223.753906 C 182.207031 223.71875 181.949219 223.734375 181.691406 223.777344 C 181.4375 223.824219 181.191406 223.890625 180.910156 224.035156 C 180.664062 224.171875 180.449219 224.328125 180.253906 224.515625 C 179.867188 224.890625 179.59375 225.34375 179.40625 225.796875 C 179.214844 226.253906 179.097656 226.714844 179.023438 227.164062 C 178.96875 227.632812 178.886719 228.089844 179.011719 228.722656 C 179.03125 228.808594 179.058594 228.894531 179.082031 228.976562 C 179.109375 229.058594 179.136719 229.140625 179.191406 229.238281 C 179.238281 229.332031 179.292969 229.421875 179.347656 229.511719 C 179.414062 229.597656 179.5 229.6875 179.582031 229.769531 C 179.917969 230.089844 180.378906 230.246094 180.691406 230.273438 C 181.359375 230.351562 181.800781 230.25 182.234375 230.179688 L 183.402344 229.949219 C 184.070312 229.839844 184.863281 229.804688 185.382812 229.914062 C 185.453125 229.929688 185.511719 229.949219 185.554688 229.964844 C 185.53125 230.046875 185.488281 230.148438 185.425781 230.253906 C 185.125 230.796875 184.617188 231.34375 184.054688 231.757812 C 183.492188 232.179688 182.84375 232.503906 182.207031 232.53125 C 182.003906 232.546875 181.828125 232.757812 181.753906 233.003906 C 181.675781 233.238281 181.765625 233.539062 182.101562 233.617188 C 182.59375 233.710938 183.089844 233.675781 183.554688 233.574219 C 184.015625 233.46875 184.453125 233.300781 184.863281 233.089844 C 185.683594 232.660156 186.414062 232.089844 187.011719 231.273438 C 187.160156 231.074219 187.296875 230.835938 187.414062 230.546875 C 187.523438 230.257812 187.625 229.871094 187.527344 229.398438 C 187.480469 229.167969 187.371094 228.9375 187.238281 228.746094 C 187.097656 228.5625 186.9375 228.40625 186.785156 228.300781 C 186.46875 228.082031 186.179688 227.976562 185.910156 227.898438 C 185.371094 227.753906 184.894531 227.722656 184.425781 227.71875 C 183.957031 227.71875 183.507812 227.753906 183.042969 227.832031 C 182.792969 227.875 182.609375 227.917969 182.402344 227.960938 L 181.824219 228.089844 C 181.460938 228.167969 181.089844 228.222656 180.949219 228.210938 C 180.945312 228.210938 180.941406 228.210938 180.9375 228.210938 C 180.886719 228.035156 180.882812 227.695312 180.890625 227.382812 C 180.925781 226.675781 181.070312 226.007812 181.394531 225.558594 C 181.472656 225.449219 181.574219 225.347656 181.667969 225.261719 C 181.738281 225.199219 181.878906 225.121094 182.015625 225.070312 C 182.152344 225.011719 182.300781 224.976562 182.421875 224.960938 C 182.484375 224.953125 182.535156 224.953125 182.566406 224.953125 C 182.585938 224.949219 182.585938 224.953125 182.597656 224.949219 C 182.597656 224.941406 182.65625 224.875 182.648438 224.886719 Z M 185.582031 229.871094 C 185.578125 229.863281 185.578125 229.859375 185.578125 229.851562 C 185.574219 229.789062 185.59375 229.804688 185.582031 229.871094 Z M 180.800781 228.429688 C 180.796875 228.429688 180.796875 228.433594 180.796875 228.433594 C 180.785156 228.445312 180.792969 228.4375 180.800781 228.429688 Z M 180.980469 228.300781 C 180.980469 228.308594 180.976562 228.308594 180.976562 228.304688 C 180.980469 228.300781 180.984375 228.300781 180.980469 228.300781 Z M 162.464844 279.085938 C 162.457031 281.8125 163.300781 284.457031 164.148438 287.140625 C 164.574219 288.484375 165.011719 289.855469 165.351562 291.28125 C 165.691406 292.703125 165.929688 294.191406 165.914062 295.726562 C 165.910156 296.320312 165.425781 296.796875 164.832031 296.789062 C 164.625 296.789062 164.429688 296.726562 164.265625 296.621094 L 164.25 296.609375 C 161.816406 295.042969 159.183594 293.5625 156.6875 291.878906 C 155.4375 291.039062 154.203125 290.15625 153.027344 289.179688 C 151.859375 288.195312 150.71875 287.136719 149.851562 285.789062 C 149.398438 285.003906 150.253906 284.59375 150.726562 285.160156 C 151.613281 286.230469 152.78125 287.113281 153.96875 287.941406 C 155.167969 288.765625 156.425781 289.527344 157.695312 290.277344 C 158.964844 291.023438 160.257812 291.75 161.550781 292.488281 C 162.253906 292.890625 162.953125 293.292969 163.652344 293.710938 C 163.417969 291.730469 162.859375 289.707031 162.347656 287.652344 C 162.003906 286.269531 161.671875 284.863281 161.464844 283.414062 C 161.257812 281.972656 161.1875 280.480469 161.371094 279.015625 C 161.535156 277.992188 162.457031 278.160156 162.464844 279.085938 Z M 181.171875 273.90625 C 181.054688 274.507812 180.769531 274.863281 180.511719 275.210938 C 180.242188 275.550781 179.953125 275.84375 179.652344 276.113281 C 179.054688 276.648438 178.414062 277.09375 177.753906 277.484375 C 176.433594 278.265625 175 278.800781 173.585938 279.25 C 173.34375 279.304688 172.816406 278.539062 173.003906 278.324219 C 174.152344 277.214844 175.398438 276.382812 176.664062 275.632812 C 177.296875 275.261719 177.9375 274.917969 178.5625 274.582031 C 178.871094 274.414062 179.179688 274.25 179.460938 274.078125 C 179.738281 273.914062 180.007812 273.714844 180.136719 273.597656 C 180.199219 273.613281 181.1875 273.476562 181.171875 273.90625 Z M 183.648438 278.542969 C 183.535156 279.078125 183.300781 279.488281 183.0625 279.898438 C 182.941406 280.097656 182.804688 280.28125 182.671875 280.472656 C 182.535156 280.65625 182.386719 280.824219 182.242188 281 C 181.648438 281.675781 180.980469 282.261719 180.261719 282.777344 C 179.546875 283.292969 178.773438 283.726562 177.949219 284.074219 C 177.125 284.414062 176.257812 284.695312 175.277344 284.726562 C 174.933594 284.714844 174.859375 283.78125 175.066406 283.652344 C 175.734375 283.332031 176.398438 282.867188 177.054688 282.414062 C 177.710938 281.953125 178.363281 281.492188 179.015625 281.03125 C 179.664062 280.5625 180.320312 280.101562 180.953125 279.628906 C 181.578125 279.160156 182.230469 278.667969 182.644531 278.152344 C 182.773438 278.03125 183.703125 278.222656 183.648438 278.542969 Z M 204.246094 266.976562 C 204.675781 267.316406 204.984375 267.847656 205.074219 268.324219 C 205.179688 268.808594 205.152344 269.242188 205.082031 269.628906 C 205.007812 270.015625 204.890625 270.367188 204.753906 270.691406 C 204.476562 271.34375 204.125 271.914062 203.734375 272.445312 C 203.542969 272.707031 203.324219 272.960938 203.109375 273.210938 C 202.875 273.457031 202.644531 273.703125 202.371094 273.925781 C 201.835938 274.375 201.167969 274.761719 200.421875 274.914062 C 199.671875 275.074219 198.929688 274.96875 198.292969 274.777344 C 197.648438 274.582031 197.070312 274.308594 196.523438 274.011719 C 195.796875 273.582031 196.238281 272.757812 196.976562 273.015625 C 198.0625 273.414062 199.195312 273.699219 200.042969 273.40625 C 200.886719 273.125 201.589844 272.3125 202.183594 271.375 C 202.472656 270.910156 202.722656 270.433594 202.890625 269.964844 C 203.0625 269.503906 203.121094 269.019531 203.046875 268.800781 C 203.015625 268.6875 202.984375 268.679688 202.945312 268.644531 C 202.894531 268.613281 202.78125 268.558594 202.601562 268.539062 C 202.242188 268.484375 201.726562 268.550781 201.222656 268.667969 C 201.066406 268.703125 200.84375 268.796875 200.609375 268.914062 C 200.371094 269.027344 200.121094 269.164062 199.863281 269.308594 C 199.34375 269.59375 198.800781 269.90625 198.191406 270.179688 C 197.882812 270.316406 197.5625 270.449219 197.195312 270.550781 C 196.832031 270.648438 196.414062 270.726562 195.921875 270.675781 C 195.4375 270.632812 194.871094 270.378906 194.523438 269.996094 C 194.171875 269.621094 193.992188 269.210938 193.878906 268.847656 C 193.816406 268.65625 193.78125 268.488281 193.742188 268.296875 C 193.71875 268.089844 193.691406 267.878906 193.6875 267.675781 C 193.703125 267.46875 193.714844 267.261719 193.75 267.066406 C 193.800781 266.871094 193.84375 266.675781 193.910156 266.492188 C 194.1875 265.757812 194.65625 265.171875 195.1875 264.710938 C 195.726562 264.253906 196.34375 263.910156 197.015625 263.707031 C 197.679688 263.503906 198.421875 263.433594 199.136719 263.640625 C 199.335938 263.695312 199.457031 263.839844 199.511719 263.960938 C 199.566406 264.085938 199.550781 264.214844 199.496094 264.328125 C 199.378906 264.558594 199.144531 264.726562 198.894531 264.695312 C 197.957031 264.582031 196.925781 265.117188 196.25 265.835938 C 195.910156 266.203125 195.660156 266.628906 195.550781 267.039062 C 195.527344 267.140625 195.519531 267.242188 195.496094 267.34375 C 195.492188 267.441406 195.5 267.539062 195.496094 267.632812 C 195.507812 267.726562 195.535156 267.816406 195.546875 267.90625 C 195.578125 268.007812 195.609375 268.136719 195.652344 268.226562 C 195.730469 268.429688 195.832031 268.574219 195.902344 268.628906 C 195.976562 268.683594 196 268.679688 196.109375 268.6875 C 196.339844 268.703125 196.839844 268.539062 197.304688 268.300781 C 197.785156 268.0625 198.28125 267.757812 198.8125 267.453125 C 199.078125 267.300781 199.355469 267.144531 199.65625 266.992188 C 199.960938 266.84375 200.289062 266.6875 200.722656 266.582031 C 201.386719 266.433594 202.085938 266.308594 202.925781 266.429688 C 203.339844 266.496094 203.8125 266.644531 204.246094 266.976562 Z M 207.023438 256.109375 C 207.117188 256.257812 207.191406 256.417969 207.257812 256.574219 C 207.523438 257.207031 207.621094 257.871094 207.5625 258.523438 C 207.503906 259.175781 207.285156 259.824219 206.910156 260.367188 C 206.539062 260.914062 206.015625 261.339844 205.457031 261.605469 C 204.894531 261.882812 204.304688 261.980469 203.738281 262.027344 C 203.03125 262.027344 203.042969 261.089844 203.574219 260.945312 C 204.023438 260.816406 204.453125 260.660156 204.785156 260.414062 C 205.125 260.171875 205.378906 259.875 205.542969 259.539062 C 205.875 258.875 205.835938 258.007812 205.492188 257.382812 C 205.328125 257.078125 205.097656 256.84375 204.910156 256.789062 C 204.820312 256.738281 204.738281 256.757812 204.648438 256.75 C 204.597656 256.769531 204.550781 256.765625 204.496094 256.785156 C 204.4375 256.820312 204.382812 256.8125 204.316406 256.863281 C 204.058594 256.996094 203.757812 257.25 203.488281 257.585938 C 203.347656 257.730469 203.226562 257.933594 203.089844 258.105469 C 202.964844 258.292969 202.847656 258.492188 202.722656 258.6875 L 202.679688 258.75 C 202.359375 259.246094 201.699219 259.382812 201.207031 259.0625 C 200.757812 258.769531 200.601562 258.195312 200.820312 257.722656 C 201.210938 256.878906 201.425781 255.945312 201.414062 255.03125 C 201.238281 255.195312 201.078125 255.394531 200.9375 255.621094 C 200.558594 256.222656 200.296875 257 200.292969 257.710938 C 200.285156 257.820312 200.230469 257.902344 200.148438 257.976562 C 200.066406 258.054688 199.953125 258.125 199.832031 258.160156 C 199.710938 258.199219 199.582031 258.203125 199.46875 258.152344 C 199.351562 258.101562 199.25 257.996094 199.21875 257.839844 C 199.121094 257.332031 199.125 256.839844 199.1875 256.351562 C 199.253906 255.867188 199.386719 255.386719 199.589844 254.917969 C 199.976562 253.992188 200.769531 253.109375 201.84375 252.695312 C 202.296875 252.523438 202.808594 252.75 202.980469 253.203125 L 202.984375 253.210938 L 203.015625 253.289062 C 203.214844 253.832031 203.335938 254.394531 203.382812 254.960938 C 203.390625 254.957031 203.394531 254.953125 203.402344 254.949219 C 203.554688 254.863281 203.761719 254.8125 203.941406 254.753906 C 204.132812 254.699219 204.347656 254.679688 204.550781 254.660156 C 204.976562 254.660156 205.421875 254.734375 205.789062 254.933594 C 205.988281 255.015625 206.136719 255.144531 206.304688 255.261719 C 206.445312 255.390625 206.597656 255.519531 206.707031 255.664062 C 206.824219 255.808594 206.941406 255.953125 207.023438 256.109375 Z M 207.023438 256.109375 " fill-opacity="1" fill-rule="nonzero"/></g></g></g><g fill="#ded6d6" fill-opacity="1"><g transform="translate(170.842595, 343.047159)"><g><path d="M 9.171875 0 L 3.703125 0 L 3.703125 -28.515625 L 10.15625 -28.515625 L 21.609375 -10.140625 L 22.109375 -10.21875 L 22.109375 -28.515625 L 27.53125 -28.515625 L 27.53125 0 L 21.765625 0 L 9.65625 -19.625 L 9.171875 -19.546875 Z M 9.171875 0 "/></g></g></g><g fill="#ded6d6" fill-opacity="1"><g transform="translate(202.101827, 343.047159)"><g><path d="M 9.84375 0.40625 C 7.425781 0.40625 5.640625 -0.25 4.484375 -1.5625 C 3.335938 -2.882812 2.765625 -4.78125 2.765625 -7.25 L 2.765625 -21.515625 L 8.171875 -21.515625 L 8.171875 -7.9375 C 8.171875 -6.625 8.453125 -5.664062 9.015625 -5.0625 C 9.585938 -4.457031 10.460938 -4.15625 11.640625 -4.15625 C 13.140625 -4.15625 14.300781 -4.644531 15.125 -5.625 C 15.957031 -6.601562 16.375 -8.144531 16.375 -10.25 L 16.375 -21.515625 L 21.78125 -21.515625 L 21.78125 0 L 16.59375 0 L 16.59375 -3.15625 L 16.1875 -3.25 C 15.5 -2.019531 14.65625 -1.101562 13.65625 -0.5 C 12.664062 0.101562 11.394531 0.40625 9.84375 0.40625 Z M 9.84375 0.40625 "/></g></g></g><g fill="#ded6d6" fill-opacity="1"><g transform="translate(226.984404, 343.047159)"><g><path d="M 3.09375 0 L 3.09375 -21.515625 L 8.28125 -21.515625 L 8.28125 -18.625 L 8.703125 -18.546875 C 9.398438 -19.703125 10.21875 -20.550781 11.15625 -21.09375 C 12.101562 -21.644531 13.3125 -21.921875 14.78125 -21.921875 C 16.40625 -21.921875 17.710938 -21.597656 18.703125 -20.953125 C 19.691406 -20.304688 20.410156 -19.367188 20.859375 -18.140625 L 21.28125 -18.140625 C 21.9375 -19.421875 22.785156 -20.367188 23.828125 -20.984375 C 24.878906 -21.609375 26.1875 -21.921875 27.75 -21.921875 C 32.207031 -21.921875 34.4375 -19.4375 34.4375 -14.46875 L 34.4375 0 L 29.03125 0 L 29.03125 -13.78125 C 29.03125 -15.039062 28.78125 -15.953125 28.28125 -16.515625 C 27.789062 -17.078125 27.003906 -17.359375 25.921875 -17.359375 C 22.953125 -17.359375 21.46875 -15.375 21.46875 -11.40625 L 21.46875 0 L 16.0625 0 L 16.0625 -13.78125 C 16.0625 -15.039062 15.8125 -15.953125 15.3125 -16.515625 C 14.8125 -17.078125 14.015625 -17.359375 12.921875 -17.359375 C 11.535156 -17.359375 10.453125 -16.890625 9.671875 -15.953125 C 8.890625 -15.023438 8.5 -13.550781 8.5 -11.53125 L 8.5 0 Z M 3.09375 0 "/></g></g></g><g fill="#ded6d6" fill-opacity="1"><g transform="translate(264.191267, 343.047159)"><g><path d="M 15.03125 0.40625 C 12.289062 0.40625 10.25 -0.617188 8.90625 -2.671875 L 8.5 -2.59375 L 8.5 0 L 3.09375 0 L 3.09375 -30.140625 L 8.5 -30.140625 L 8.5 -18.96875 L 8.90625 -18.890625 C 9.644531 -19.921875 10.519531 -20.679688 11.53125 -21.171875 C 12.539062 -21.671875 13.75 -21.921875 15.15625 -21.921875 C 16.894531 -21.921875 18.414062 -21.507812 19.71875 -20.6875 C 21.019531 -19.875 22.03125 -18.628906 22.75 -16.953125 C 23.476562 -15.285156 23.84375 -13.21875 23.84375 -10.75 C 23.84375 -8.300781 23.46875 -6.238281 22.71875 -4.5625 C 21.96875 -2.894531 20.925781 -1.648438 19.59375 -0.828125 C 18.269531 -0.00390625 16.75 0.40625 15.03125 0.40625 Z M 13.390625 -4.171875 C 14.984375 -4.171875 16.191406 -4.703125 17.015625 -5.765625 C 17.847656 -6.828125 18.265625 -8.488281 18.265625 -10.75 C 18.265625 -13.019531 17.847656 -14.6875 17.015625 -15.75 C 16.191406 -16.8125 14.984375 -17.34375 13.390625 -17.34375 C 11.867188 -17.34375 10.660156 -16.796875 9.765625 -15.703125 C 8.878906 -14.609375 8.4375 -12.957031 8.4375 -10.75 C 8.4375 -8.539062 8.878906 -6.890625 9.765625 -5.796875 C 10.660156 -4.710938 11.867188 -4.171875 13.390625 -4.171875 Z M 13.390625 -4.171875 "/></g></g></g><g fill="#ded6d6" fill-opacity="1"><g transform="translate(289.951371, 343.047159)"><g><path d="M 21.25 -9.53125 L 7.4375 -9.53125 C 7.582031 -7.664062 8.109375 -6.304688 9.015625 -5.453125 C 9.929688 -4.597656 11.175781 -4.171875 12.75 -4.171875 C 13.988281 -4.171875 14.988281 -4.398438 15.75 -4.859375 C 16.519531 -5.328125 17.140625 -6.03125 17.609375 -6.96875 L 18.015625 -6.96875 L 21.609375 -4.65625 C 20.898438 -3.15625 19.835938 -1.9375 18.421875 -1 C 17.003906 -0.0625 15.113281 0.40625 12.75 0.40625 C 10.53125 0.40625 8.609375 -0.015625 6.984375 -0.859375 C 5.367188 -1.703125 4.125 -2.957031 3.25 -4.625 C 2.375 -6.300781 1.9375 -8.34375 1.9375 -10.75 C 1.9375 -13.1875 2.394531 -15.242188 3.3125 -16.921875 C 4.238281 -18.597656 5.488281 -19.847656 7.0625 -20.671875 C 8.632812 -21.503906 10.398438 -21.921875 12.359375 -21.921875 C 15.398438 -21.921875 17.726562 -21.113281 19.34375 -19.5 C 20.96875 -17.882812 21.78125 -15.519531 21.78125 -12.40625 C 21.78125 -11.269531 21.742188 -10.390625 21.671875 -9.765625 Z M 16.609375 -13.03125 C 16.554688 -14.664062 16.175781 -15.851562 15.46875 -16.59375 C 14.757812 -17.34375 13.722656 -17.71875 12.359375 -17.71875 C 9.628906 -17.71875 8.023438 -16.15625 7.546875 -13.03125 Z M 16.609375 -13.03125 "/></g></g></g><g fill="#ded6d6" fill-opacity="1"><g transform="translate(313.332419, 343.047159)"><g><path d="M 3.09375 0 L 3.09375 -21.515625 L 8.34375 -21.515625 L 8.34375 -18.3125 L 8.75 -18.234375 C 9.269531 -19.429688 9.953125 -20.304688 10.796875 -20.859375 C 11.648438 -21.421875 12.679688 -21.703125 13.890625 -21.703125 C 15.109375 -21.703125 16.035156 -21.492188 16.671875 -21.078125 L 15.75 -16.421875 L 15.34375 -16.34375 C 15 -16.488281 14.660156 -16.59375 14.328125 -16.65625 C 14.003906 -16.71875 13.609375 -16.75 13.140625 -16.75 C 11.628906 -16.75 10.476562 -16.21875 9.6875 -15.15625 C 8.894531 -14.101562 8.5 -12.40625 8.5 -10.0625 L 8.5 0 Z M 3.09375 0 "/></g></g></g><g fill="#ded6d6" fill-opacity="1"><g transform="translate(330.200316, 343.047159)"><g/></g></g><g fill="#ded6d6" fill-opacity="1"><g transform="translate(339.61904, 343.047159)"><g><path d="M 12.640625 0.40625 C 10.660156 0.40625 8.898438 0.164062 7.359375 -0.3125 C 5.816406 -0.800781 4.53125 -1.441406 3.5 -2.234375 C 2.476562 -3.035156 1.695312 -3.910156 1.15625 -4.859375 L 4.25 -8.640625 L 4.734375 -8.640625 C 5.597656 -7.367188 6.6875 -6.351562 8 -5.59375 C 9.320312 -4.84375 10.867188 -4.46875 12.640625 -4.46875 C 14.148438 -4.46875 15.285156 -4.785156 16.046875 -5.421875 C 16.816406 -6.054688 17.203125 -6.929688 17.203125 -8.046875 C 17.203125 -8.722656 17.078125 -9.289062 16.828125 -9.75 C 16.578125 -10.207031 16.164062 -10.597656 15.59375 -10.921875 C 15.03125 -11.242188 14.257812 -11.523438 13.28125 -11.765625 L 9.609375 -12.59375 C 7.046875 -13.175781 5.140625 -14.144531 3.890625 -15.5 C 2.640625 -16.863281 2.015625 -18.632812 2.015625 -20.8125 C 2.015625 -22.414062 2.414062 -23.828125 3.21875 -25.046875 C 4.019531 -26.273438 5.191406 -27.226562 6.734375 -27.90625 C 8.273438 -28.582031 10.117188 -28.921875 12.265625 -28.921875 C 14.460938 -28.921875 16.34375 -28.628906 17.90625 -28.046875 C 19.476562 -27.472656 20.800781 -26.585938 21.875 -25.390625 L 19.09375 -21.5625 L 18.609375 -21.5625 C 17.796875 -22.40625 16.867188 -23.039062 15.828125 -23.46875 C 14.796875 -23.894531 13.609375 -24.109375 12.265625 -24.109375 C 10.722656 -24.109375 9.546875 -23.832031 8.734375 -23.28125 C 7.929688 -22.738281 7.53125 -21.984375 7.53125 -21.015625 C 7.53125 -20.117188 7.8125 -19.40625 8.375 -18.875 C 8.9375 -18.34375 9.914062 -17.925781 11.3125 -17.625 L 15.046875 -16.84375 C 17.816406 -16.257812 19.828125 -15.269531 21.078125 -13.875 C 22.328125 -12.476562 22.953125 -10.65625 22.953125 -8.40625 C 22.953125 -6.625 22.566406 -5.070312 21.796875 -3.75 C 21.035156 -2.4375 19.878906 -1.414062 18.328125 -0.6875 C 16.785156 0.0390625 14.890625 0.40625 12.640625 0.40625 Z M 12.640625 0.40625 "/></g></g></g><g fill="#ded6d6" fill-opacity="1"><g transform="translate(364.111608, 343.047159)"><g><path d="M 4.765625 9.125 C 3.835938 9.125 3 9.050781 2.25 8.90625 C 1.5 8.769531 0.890625 8.582031 0.421875 8.34375 L 1.28125 3.984375 L 1.640625 3.859375 C 1.960938 4.023438 2.363281 4.160156 2.84375 4.265625 C 3.320312 4.367188 3.816406 4.421875 4.328125 4.421875 C 5.203125 4.421875 5.925781 4.304688 6.5 4.078125 C 7.082031 3.859375 7.570312 3.484375 7.96875 2.953125 C 8.375 2.429688 8.734375 1.703125 9.046875 0.765625 L 0.46875 -21.515625 L 6.125 -21.515625 L 11.46875 -6.546875 L 11.9375 -6.546875 L 17.140625 -21.515625 L 22.640625 -21.515625 L 14 1.34375 C 13.3125 3.1875 12.550781 4.671875 11.71875 5.796875 C 10.894531 6.921875 9.921875 7.753906 8.796875 8.296875 C 7.679688 8.847656 6.335938 9.125 4.765625 9.125 Z M 4.765625 9.125 "/></g></g></g><g fill="#ded6d6" fill-opacity="1"><g transform="translate(387.200143, 343.047159)"><g><path d="M 10.0625 0.40625 C 8.59375 0.40625 7.242188 0.234375 6.015625 -0.109375 C 4.796875 -0.453125 3.753906 -0.925781 2.890625 -1.53125 C 2.023438 -2.132812 1.382812 -2.828125 0.96875 -3.609375 L 3.984375 -6.84375 L 4.390625 -6.84375 C 5.097656 -5.882812 5.941406 -5.160156 6.921875 -4.671875 C 7.898438 -4.191406 8.957031 -3.953125 10.09375 -3.953125 C 11.15625 -3.953125 11.953125 -4.140625 12.484375 -4.515625 C 13.015625 -4.898438 13.28125 -5.441406 13.28125 -6.140625 C 13.28125 -6.691406 13.085938 -7.148438 12.703125 -7.515625 C 12.316406 -7.890625 11.695312 -8.179688 10.84375 -8.390625 L 8 -9.0625 C 5.863281 -9.570312 4.304688 -10.347656 3.328125 -11.390625 C 2.347656 -12.441406 1.859375 -13.773438 1.859375 -15.390625 C 1.859375 -16.722656 2.195312 -17.882812 2.875 -18.875 C 3.5625 -19.863281 4.523438 -20.617188 5.765625 -21.140625 C 7.003906 -21.660156 8.445312 -21.921875 10.09375 -21.921875 C 12.03125 -21.921875 13.632812 -21.640625 14.90625 -21.078125 C 16.1875 -20.515625 17.1875 -19.769531 17.90625 -18.84375 L 15.015625 -15.71875 L 14.625 -15.71875 C 14.03125 -16.394531 13.359375 -16.890625 12.609375 -17.203125 C 11.859375 -17.515625 11.019531 -17.671875 10.09375 -17.671875 C 7.96875 -17.671875 6.90625 -17.003906 6.90625 -15.671875 C 6.90625 -15.117188 7.101562 -14.664062 7.5 -14.3125 C 7.894531 -13.957031 8.59375 -13.671875 9.59375 -13.453125 L 12.25 -12.875 C 14.425781 -12.40625 16.019531 -11.648438 17.03125 -10.609375 C 18.039062 -9.578125 18.546875 -8.191406 18.546875 -6.453125 C 18.546875 -5.085938 18.207031 -3.882812 17.53125 -2.84375 C 16.851562 -1.800781 15.875 -1 14.59375 -0.4375 C 13.320312 0.125 11.8125 0.40625 10.0625 0.40625 Z M 10.0625 0.40625 "/></g></g></g><g fill="#ded6d6" fill-opacity="1"><g transform="translate(407.032121, 343.047159)"><g><path d="M 14.84375 -5.125 L 16.25 -1.125 C 15.65625 -0.644531 14.914062 -0.269531 14.03125 0 C 13.15625 0.269531 12.15625 0.40625 11.03125 0.40625 C 8.707031 0.40625 6.941406 -0.222656 5.734375 -1.484375 C 4.523438 -2.753906 3.921875 -4.597656 3.921875 -7.015625 L 3.921875 -17.234375 L 0.640625 -17.234375 L 0.640625 -21.53125 L 3.921875 -21.53125 L 3.921875 -25.71875 L 9.328125 -26.59375 L 9.328125 -21.53125 L 15.421875 -21.53125 L 15.421875 -17.234375 L 9.328125 -17.234375 L 9.328125 -7.40625 C 9.328125 -6.34375 9.546875 -5.566406 9.984375 -5.078125 C 10.421875 -4.585938 11.066406 -4.34375 11.921875 -4.34375 C 12.878906 -4.34375 13.71875 -4.601562 14.4375 -5.125 Z M 14.84375 -5.125 "/></g></g></g><g fill="#ded6d6" fill-opacity="1"><g transform="translate(423.744026, 343.047159)"><g><path d="M 21.25 -9.53125 L 7.4375 -9.53125 C 7.582031 -7.664062 8.109375 -6.304688 9.015625 -5.453125 C 9.929688 -4.597656 11.175781 -4.171875 12.75 -4.171875 C 13.988281 -4.171875 14.988281 -4.398438 15.75 -4.859375 C 16.519531 -5.328125 17.140625 -6.03125 17.609375 -6.96875 L 18.015625 -6.96875 L 21.609375 -4.65625 C 20.898438 -3.15625 19.835938 -1.9375 18.421875 -1 C 17.003906 -0.0625 15.113281 0.40625 12.75 0.40625 C 10.53125 0.40625 8.609375 -0.015625 6.984375 -0.859375 C 5.367188 -1.703125 4.125 -2.957031 3.25 -4.625 C 2.375 -6.300781 1.9375 -8.34375 1.9375 -10.75 C 1.9375 -13.1875 2.394531 -15.242188 3.3125 -16.921875 C 4.238281 -18.597656 5.488281 -19.847656 7.0625 -20.671875 C 8.632812 -21.503906 10.398438 -21.921875 12.359375 -21.921875 C 15.398438 -21.921875 17.726562 -21.113281 19.34375 -19.5 C 20.96875 -17.882812 21.78125 -15.519531 21.78125 -12.40625 C 21.78125 -11.269531 21.742188 -10.390625 21.671875 -9.765625 Z M 16.609375 -13.03125 C 16.554688 -14.664062 16.175781 -15.851562 15.46875 -16.59375 C 14.757812 -17.34375 13.722656 -17.71875 12.359375 -17.71875 C 9.628906 -17.71875 8.023438 -16.15625 7.546875 -13.03125 Z M 16.609375 -13.03125 "/></g></g></g><g fill="#ded6d6" fill-opacity="1"><g transform="translate(447.125074, 343.047159)"><g><path d="M 3.09375 0 L 3.09375 -21.515625 L 8.28125 -21.515625 L 8.28125 -18.625 L 8.703125 -18.546875 C 9.398438 -19.703125 10.21875 -20.550781 11.15625 -21.09375 C 12.101562 -21.644531 13.3125 -21.921875 14.78125 -21.921875 C 16.40625 -21.921875 17.710938 -21.597656 18.703125 -20.953125 C 19.691406 -20.304688 20.410156 -19.367188 20.859375 -18.140625 L 21.28125 -18.140625 C 21.9375 -19.421875 22.785156 -20.367188 23.828125 -20.984375 C 24.878906 -21.609375 26.1875 -21.921875 27.75 -21.921875 C 32.207031 -21.921875 34.4375 -19.4375 34.4375 -14.46875 L 34.4375 0 L 29.03125 0 L 29.03125 -13.78125 C 29.03125 -15.039062 28.78125 -15.953125 28.28125 -16.515625 C 27.789062 -17.078125 27.003906 -17.359375 25.921875 -17.359375 C 22.953125 -17.359375 21.46875 -15.375 21.46875 -11.40625 L 21.46875 0 L 16.0625 0 L 16.0625 -13.78125 C 16.0625 -15.039062 15.8125 -15.953125 15.3125 -16.515625 C 14.8125 -17.078125 14.015625 -17.359375 12.921875 -17.359375 C 11.535156 -17.359375 10.453125 -16.890625 9.671875 -15.953125 C 8.890625 -15.023438 8.5 -13.550781 8.5 -11.53125 L 8.5 0 Z M 3.09375 0 "/></g></g></g><g fill="#ded6d6" fill-opacity="1"><g transform="translate(484.331937, 343.047159)"><g><path d="M 10.0625 0.40625 C 8.59375 0.40625 7.242188 0.234375 6.015625 -0.109375 C 4.796875 -0.453125 3.753906 -0.925781 2.890625 -1.53125 C 2.023438 -2.132812 1.382812 -2.828125 0.96875 -3.609375 L 3.984375 -6.84375 L 4.390625 -6.84375 C 5.097656 -5.882812 5.941406 -5.160156 6.921875 -4.671875 C 7.898438 -4.191406 8.957031 -3.953125 10.09375 -3.953125 C 11.15625 -3.953125 11.953125 -4.140625 12.484375 -4.515625 C 13.015625 -4.898438 13.28125 -5.441406 13.28125 -6.140625 C 13.28125 -6.691406 13.085938 -7.148438 12.703125 -7.515625 C 12.316406 -7.890625 11.695312 -8.179688 10.84375 -8.390625 L 8 -9.0625 C 5.863281 -9.570312 4.304688 -10.347656 3.328125 -11.390625 C 2.347656 -12.441406 1.859375 -13.773438 1.859375 -15.390625 C 1.859375 -16.722656 2.195312 -17.882812 2.875 -18.875 C 3.5625 -19.863281 4.523438 -20.617188 5.765625 -21.140625 C 7.003906 -21.660156 8.445312 -21.921875 10.09375 -21.921875 C 12.03125 -21.921875 13.632812 -21.640625 14.90625 -21.078125 C 16.1875 -20.515625 17.1875 -19.769531 17.90625 -18.84375 L 15.015625 -15.71875 L 14.625 -15.71875 C 14.03125 -16.394531 13.359375 -16.890625 12.609375 -17.203125 C 11.859375 -17.515625 11.019531 -17.671875 10.09375 -17.671875 C 7.96875 -17.671875 6.90625 -17.003906 6.90625 -15.671875 C 6.90625 -15.117188 7.101562 -14.664062 7.5 -14.3125 C 7.894531 -13.957031 8.59375 -13.671875 9.59375 -13.453125 L 12.25 -12.875 C 14.425781 -12.40625 16.019531 -11.648438 17.03125 -10.609375 C 18.039062 -9.578125 18.546875 -8.191406 18.546875 -6.453125 C 18.546875 -5.085938 18.207031 -3.882812 17.53125 -2.84375 C 16.851562 -1.800781 15.875 -1 14.59375 -0.4375 C 13.320312 0.125 11.8125 0.40625 10.0625 0.40625 Z M 10.0625 0.40625 "/></g></g></g></svg>